<svg width="673" height="720" viewBox="0 0 673 720" fill="none" xmlns="http://www.w3.org/2000/svg">
<g filter="url(#filter0_d_0_8388)">
<path d="M336.5 636C493.625 636 621 568.587 621 485.429C621 402.271 493.625 334.858 336.5 334.858C179.375 334.858 52 402.271 52 485.429C52 568.587 179.375 636 336.5 636Z" fill="url(#paint0_linear_0_8388)"/>
<path d="M454.891 580.367L242.524 466.127C240.655 465.124 239.104 463.68 238.025 461.941C236.946 460.202 236.378 458.229 236.378 456.22C236.378 454.211 236.946 452.238 238.025 450.499C239.104 448.76 240.655 447.316 242.524 446.313L263.473 434.006C267.089 432.065 271.189 431.044 275.363 431.044C279.536 431.044 283.636 432.065 287.252 434.006L499.649 548.259C501.517 549.262 503.069 550.705 504.148 552.444C505.227 554.184 505.795 556.157 505.795 558.166C505.795 560.174 505.227 562.148 504.148 563.887C503.069 565.626 501.517 567.069 499.649 568.072L478.7 580.367C475.082 582.317 470.976 583.344 466.796 583.344C462.615 583.344 458.509 582.317 454.891 580.367Z" fill="#E0E0E0"/>
<path d="M131.986 476.215C157.439 476.215 178.072 465.176 178.072 451.559C178.072 437.942 157.439 426.903 131.986 426.903C106.534 426.903 85.9004 437.942 85.9004 451.559C85.9004 465.176 106.534 476.215 131.986 476.215Z" fill="#E6E6E6"/>
<path d="M530.2 481.864L550.413 492.692C550.413 492.692 540.09 462.468 545.59 432.001C547.669 420.487 552.131 414.77 553.69 411.69C555.249 408.61 567.334 389.577 556.578 380.86C545.821 372.144 520.8 389.671 522.158 436.575C522.775 451.927 525.477 467.145 530.2 481.864Z" fill="#F8961F"/>
<path opacity="0.5" d="M530.2 481.864L550.413 492.692C550.413 492.692 540.09 462.468 545.59 432.001C547.669 420.487 552.131 414.77 553.69 411.69C555.249 408.61 567.334 389.577 556.578 380.86C545.821 372.144 520.8 389.671 522.158 436.575C522.775 451.927 525.477 467.145 530.2 481.864Z" fill="black"/>
<path d="M539.599 487.567C539.452 487.57 539.307 487.53 539.186 487.453C539.064 487.376 538.971 487.266 538.92 487.137C538.848 486.935 531.124 467.27 531.369 435.66C531.614 404.05 549.445 386.886 549.619 386.725C549.686 386.662 549.766 386.612 549.854 386.578C549.941 386.543 550.036 386.526 550.131 386.526C550.226 386.526 550.321 386.543 550.409 386.578C550.497 386.612 550.577 386.662 550.644 386.725C550.711 386.787 550.765 386.862 550.802 386.944C550.838 387.026 550.857 387.114 550.857 387.202C550.857 387.291 550.838 387.379 550.802 387.461C550.765 387.543 550.711 387.617 550.644 387.68C550.47 387.841 533.058 404.494 532.813 435.673C532.567 466.853 540.191 486.491 540.277 486.68C540.342 486.847 540.333 487.032 540.252 487.194C540.171 487.355 540.024 487.48 539.844 487.541C539.765 487.563 539.682 487.573 539.599 487.567Z" fill="white"/>
<path d="M538.632 486.491L566.266 501.288C569.145 502.873 572.56 503.39 575.83 502.734C579.1 502.079 581.985 500.299 583.909 497.75C585.738 495.098 586.51 491.933 586.089 488.805C584.761 475.435 578.524 472.354 586.161 466.396C593.799 460.437 595.791 460.02 595.358 454.29C594.925 448.559 590.724 446.058 588.731 443.798C586.739 441.538 581.224 436.803 584.977 429.809C588.731 422.814 593.857 416.048 586.089 412.955C581.455 411.098 573.73 413.573 568.648 418.712C563.566 423.85 559.379 427.549 554.513 428.786C549.648 430.024 539.512 430.226 539.945 438.041C540.379 445.856 542.602 448.533 540.61 452.016C536.856 458.527 520.526 462.226 538.632 486.491Z" fill="#F8961F"/>
<path d="M552.29 494.455C552.11 494.449 551.938 494.384 551.805 494.27C551.673 494.157 551.588 494.002 551.568 493.836C551.568 493.378 547.323 447.214 581.397 416.492C581.537 416.384 581.716 416.33 581.898 416.34C582.08 416.349 582.251 416.423 582.377 416.546C582.503 416.668 582.575 416.831 582.578 417C582.581 417.17 582.515 417.334 582.393 417.461C548.81 447.739 552.968 493.257 553.012 493.715C553.028 493.891 552.969 494.066 552.847 494.202C552.725 494.338 552.551 494.424 552.362 494.441L552.29 494.455Z" fill="white"/>
<path d="M557.762 454.72C557.58 454.721 557.404 454.657 557.271 454.542C557.137 454.428 557.054 454.27 557.04 454.101C556.737 450.524 555.656 447.041 553.861 443.866C552.066 440.691 549.596 437.889 546.601 435.633C546.523 435.582 546.457 435.517 546.406 435.442C546.355 435.367 546.32 435.283 546.304 435.196C546.288 435.108 546.29 435.019 546.312 434.932C546.333 434.845 546.372 434.764 546.428 434.691C546.481 434.619 546.55 434.557 546.629 434.51C546.708 434.463 546.797 434.431 546.889 434.416C546.982 434.4 547.077 434.403 547.169 434.422C547.261 434.442 547.348 434.479 547.424 434.53C550.616 436.888 553.247 439.838 555.151 443.193C557.055 446.548 558.189 450.235 558.484 454.021C558.5 454.2 558.439 454.379 558.315 454.518C558.19 454.656 558.012 454.743 557.819 454.76L557.762 454.72Z" fill="white"/>
<path d="M555.408 462.643C555.234 462.644 555.065 462.587 554.932 462.481C554.789 462.362 554.701 462.196 554.687 462.017C554.674 461.839 554.736 461.663 554.86 461.526C555.206 461.15 563.739 452.379 583.736 454.706C583.925 454.73 584.097 454.822 584.213 454.964C584.329 455.105 584.381 455.283 584.356 455.46C584.331 455.637 584.232 455.798 584.081 455.909C583.93 456.019 583.739 456.071 583.548 456.052C564.345 453.805 556.015 462.333 555.928 462.414C555.862 462.483 555.782 462.538 555.693 462.577C555.604 462.617 555.507 462.639 555.408 462.643Z" fill="white"/>
<path d="M448.423 566.714L261.654 466.248C248.472 459.159 237.788 440.139 237.788 423.769V51.1749C237.788 34.8049 248.472 27.2858 261.654 34.3745L448.423 134.84C461.605 141.929 472.289 160.949 472.289 177.319V549.913C472.289 566.27 461.605 573.802 448.423 566.714Z" fill="#455A64"/>
<path d="M469.935 123.125L283.152 22.6586C277.521 19.6321 272.352 19.2823 268.266 21.1386C267.766 21.372 267.283 21.6371 266.822 21.9322L245.887 33.2714C250.103 30.9175 255.618 31.0924 261.668 34.3475L448.437 134.813C461.619 141.902 472.303 160.922 472.303 177.292V549.886C472.303 558.549 469.315 564.682 464.55 567.588L485.211 556.383C490.481 553.774 493.874 547.384 493.874 538.224V165.63C493.874 149.233 483.117 130.213 469.935 123.125Z" fill="#37474F"/>
<path d="M472.289 177.292V549.886C472.289 558.549 469.3 564.682 464.536 567.588L485.211 556.383C490.481 553.774 493.874 547.384 493.874 538.224V165.63L472.361 177.265L472.289 177.292Z" fill="#263238"/>
<path d="M493.802 194.536L472.289 206.104V215.143L493.802 203.562V194.536Z" fill="#37474F"/>
<path d="M484.374 254.649C482.453 255.685 480.894 254.582 480.894 252.201V232.764C480.914 231.549 481.238 230.355 481.843 229.278C482.447 228.201 483.314 227.272 484.374 226.563C486.294 225.527 487.853 226.563 487.853 229.011V248.448C487.834 249.663 487.509 250.857 486.904 251.934C486.3 253.011 485.433 253.941 484.374 254.649Z" fill="#37474F"/>
<path d="M480.88 252.255V232.764C480.899 231.549 481.224 230.355 481.828 229.278C482.433 228.201 483.299 227.271 484.359 226.563C484.676 226.357 485.045 226.231 485.43 226.198C485.814 226.165 486.202 226.226 486.554 226.375L483.94 225.124C483.583 224.964 483.187 224.894 482.791 224.922C482.396 224.951 482.015 225.076 481.688 225.285C480.627 225.994 479.759 226.923 479.152 228C478.546 229.077 478.218 230.27 478.194 231.486V250.91C478.14 251.4 478.22 251.896 478.427 252.35C478.634 252.804 478.961 253.201 479.378 253.506L482.107 254.851C481.673 254.559 481.33 254.165 481.114 253.708C480.898 253.252 480.817 252.75 480.88 252.255Z" fill="#455A64"/>
<path d="M484.374 301.687C482.453 302.723 480.894 301.687 480.894 299.239V279.802C480.915 278.588 481.24 277.394 481.844 276.317C482.448 275.241 483.315 274.311 484.374 273.602C486.294 272.566 487.853 273.602 487.853 276.063V295.486C487.836 296.702 487.512 297.896 486.908 298.974C486.303 300.051 485.435 300.98 484.374 301.687Z" fill="#37474F"/>
<path d="M480.879 299.239V279.802C480.9 278.588 481.225 277.394 481.83 276.317C482.434 275.241 483.3 274.31 484.359 273.601C484.677 273.399 485.046 273.275 485.43 273.242C485.814 273.209 486.201 273.268 486.554 273.413L483.94 272.149C483.585 271.981 483.187 271.908 482.79 271.936C482.393 271.965 482.012 272.094 481.688 272.31C480.625 273.016 479.754 273.945 479.148 275.023C478.541 276.1 478.214 277.295 478.194 278.511V297.988C478.138 298.479 478.218 298.975 478.425 299.429C478.632 299.883 478.96 300.281 479.378 300.584L482.107 301.929C481.655 301.631 481.3 301.221 481.084 300.746C480.867 300.271 480.796 299.749 480.879 299.239Z" fill="#455A64"/>
<path d="M441.897 145.292L258.361 46.5341C257.595 46.1236 256.728 45.9068 255.844 45.9053C254.96 45.9038 254.091 46.1175 253.324 46.5254C252.556 46.9333 251.916 47.5211 251.468 48.2305C251.019 48.9399 250.778 49.7462 250.767 50.5695V423.769C250.767 436.225 260.253 451.519 271.832 457.747L450.863 554.096C451.712 554.552 452.674 554.791 453.654 554.79C454.634 554.789 455.596 554.549 456.444 554.092C457.292 553.636 457.997 552.98 458.487 552.189C458.977 551.399 459.236 550.503 459.237 549.59V173.31C459.309 163.034 451.484 150.43 441.897 145.292Z" fill="#F8961F"/>
<path opacity="0.9" d="M441.897 145.292L258.361 46.5341C257.595 46.1236 256.728 45.9068 255.844 45.9053C254.96 45.9038 254.091 46.1175 253.324 46.5254C252.556 46.9333 251.916 47.5211 251.468 48.2305C251.019 48.9399 250.778 49.7462 250.767 50.5695V423.769C250.767 436.225 260.253 451.519 271.832 457.747L450.863 554.097C451.712 554.552 452.674 554.791 453.654 554.79C454.634 554.789 455.596 554.549 456.444 554.092C457.292 553.636 457.997 552.98 458.487 552.189C458.977 551.399 459.236 550.503 459.237 549.59V173.31C459.309 163.034 451.484 150.43 441.897 145.292Z" fill="white"/>
<path d="M313.255 72.3198L316.099 83.4707L376.941 116.157L387.452 110.938L313.255 72.3198Z" fill="#455A64"/>
<path d="M331.144 83.0941C331.144 84.9504 329.7 85.6902 328.025 84.7755C327.126 84.2194 326.379 83.4746 325.845 82.6009C325.311 81.7272 325.004 80.749 324.95 79.7448C324.95 77.902 326.394 77.1488 328.068 78.0769C328.967 78.6301 329.714 79.3724 330.248 80.244C330.782 81.1155 331.089 82.0918 331.144 83.0941Z" fill="#263238"/>
<path d="M372.133 106.701C371.8 106.698 371.473 106.62 371.18 106.472L340.11 90.3309C339.671 90.0909 339.35 89.7006 339.216 89.2434C339.082 88.7861 339.145 88.2982 339.392 87.8838C339.639 87.4694 340.05 87.1614 340.538 87.0255C341.025 86.8896 341.55 86.9366 342.001 87.1565L373.086 103.298C373.464 103.493 373.761 103.801 373.931 104.171C374.101 104.541 374.134 104.954 374.025 105.343C373.916 105.733 373.671 106.078 373.328 106.324C372.986 106.569 372.565 106.702 372.133 106.701Z" fill="#263238"/>
<path d="M289.259 124.201C287.368 123.178 285.996 124.066 285.996 126.312C285.996 127.436 286.294 128.542 286.863 129.532C287.432 130.522 288.255 131.366 289.259 131.989C289.797 132.293 290.413 132.454 291.042 132.454C291.671 132.454 292.288 132.293 292.825 131.989L295.843 137.073C294.781 137.619 293.578 137.879 292.367 137.824C291.156 137.77 289.985 137.403 288.985 136.764C286.533 135.367 284.489 133.428 283.034 131.119C281.578 128.811 280.756 126.203 280.64 123.528C280.64 118.538 284.235 116.803 289.187 119.493C291.984 121.171 294.274 123.485 295.843 126.218L292.825 128.451C292.081 126.754 290.847 125.283 289.259 124.201Z" fill="#F8961F"/>
<path d="M313.211 141.055C313.211 146.085 309.558 147.78 304.549 145.09C302.027 143.686 299.917 141.724 298.406 139.377C296.894 137.03 296.029 134.372 295.886 131.639C295.886 126.608 299.539 124.913 304.549 127.604C307.076 129.001 309.191 130.962 310.703 133.31C312.215 135.658 313.077 138.319 313.211 141.055ZM301.242 134.639C301.268 135.793 301.587 136.926 302.174 137.944C302.762 138.961 303.6 139.834 304.621 140.49C306.411 141.458 307.855 140.49 307.855 138.203C307.85 137.074 307.554 135.963 306.991 134.963C306.428 133.964 305.615 133.105 304.621 132.459C302.802 131.478 301.242 132.312 301.242 134.639Z" fill="#F8961F"/>
<path d="M319.03 135.715L325.267 147.821V139.104L329.989 141.647V158.608L325.657 156.268L319.449 144.27V152.932L314.699 150.376V133.374L319.03 135.715Z" fill="#F8961F"/>
<path d="M345.422 149.906V154.344L340.918 151.923V164.46L335.706 161.648V149.112L331.23 146.704V142.279L345.422 149.906Z" fill="#F8961F"/>
<path d="M355.587 169.948L349.667 166.76L348.859 168.724L343.517 165.845L350.173 152.461L355.529 155.34L361.939 175.758L356.381 172.772L355.587 169.948ZM354.302 165.24L352.685 159.442L351.024 163.478L354.302 165.24Z" fill="#F8961F"/>
<path d="M370.213 167.742C368.321 166.733 366.95 167.607 366.95 169.867C366.952 170.99 367.251 172.095 367.82 173.085C368.389 174.075 369.211 174.919 370.213 175.543C370.754 175.844 371.373 176.003 372.003 176.003C372.633 176.003 373.252 175.844 373.793 175.543L376.811 180.628C375.745 181.167 374.54 181.424 373.328 181.369C372.116 181.315 370.944 180.951 369.938 180.318C367.485 178.92 365.44 176.979 363.984 174.668C362.528 172.357 361.707 169.747 361.593 167.069C361.593 162.079 365.203 160.344 370.141 163.034C372.934 164.72 375.227 167.032 376.811 169.759L373.793 171.979C373.033 170.291 371.795 168.827 370.213 167.742Z" fill="#F8961F"/>
<path d="M391.046 174.454V178.879L386.542 176.458V189.035L381.33 186.224V173.687L376.854 171.279V166.854L391.046 174.454Z" fill="#F8961F"/>
<path d="M406.452 195.276C407.737 195.962 408.719 195.424 408.719 193.743V183.964L413.945 186.761V196.54C413.945 201.046 411.058 202.392 406.437 199.93C404.212 198.778 402.341 197.114 401.003 195.095C399.666 193.077 398.907 190.772 398.8 188.402V178.624L404.026 181.435V191.214C404.046 192.023 404.278 192.816 404.7 193.524C405.123 194.232 405.724 194.833 406.452 195.276Z" fill="#F8961F"/>
<path d="M422.362 195.33C421.77 195.02 421.395 195.007 421.395 195.518C421.395 197.643 429.552 200.71 429.552 206.857C429.552 210.624 426.477 210.637 422.925 208.727C419.803 206.945 417.114 204.577 415.028 201.773L416.963 198.598C418.55 200.889 420.588 202.878 422.969 204.463C423.734 204.88 424.225 204.88 424.225 204.275C424.225 202.069 416.053 199.136 416.053 193.178C416.053 189.788 418.709 189.142 422.81 191.295C425.451 192.783 427.776 194.712 429.668 196.984L427.777 200.239C426.214 198.386 424.393 196.735 422.362 195.33Z" fill="#F8961F"/>
<path d="M262.996 207.785C268.854 201.082 271.803 192.577 271.261 183.948C270.719 175.319 266.725 167.192 260.067 161.172C253.409 155.151 244.572 151.674 235.297 151.426C226.023 151.178 216.985 154.177 209.968 159.832C202.951 165.487 198.463 173.387 197.391 181.973C196.318 190.559 198.739 199.208 204.175 206.213C209.611 213.218 217.667 218.071 226.755 219.814C235.843 221.556 245.301 220.063 253.265 215.627L271.341 222.945L262.996 207.785Z" fill="#F8961F"/>
<path d="M262.996 207.785C268.854 201.082 271.803 192.577 271.261 183.948C270.719 175.319 266.725 167.192 260.067 161.172C253.409 155.151 244.572 151.674 235.297 151.426C226.023 151.178 216.985 154.177 209.968 159.832C202.951 165.487 198.463 173.387 197.391 181.973C196.318 190.559 198.739 199.208 204.175 206.213C209.611 213.218 217.667 218.071 226.755 219.814C235.843 221.556 245.301 220.063 253.265 215.627L271.341 222.945L262.996 207.785Z" fill="#1B1B1B"/>
<path d="M220.491 184.112C220.491 183.587 220.087 183.291 219.35 183.291C217.642 183.5 216.047 184.2 214.788 185.295L212.738 181.583C214.896 180.07 217.503 179.215 220.202 179.135C223.667 179.135 226.295 180.83 226.295 183.358C226.295 185.161 224.851 186.896 223.003 188.631L220.419 191.012H226.526V194.967H213.402V191.725L219.249 186.089C219.879 185.57 220.314 184.877 220.491 184.112Z" fill="#F8961F"/>
<path d="M237.21 179.363L233.225 188.268H234.857V185.268H239.881V188.268H241.787V191.94H239.881V194.967H234.857V191.94H227.71V188.604L232.041 179.363H237.21Z" fill="#F8961F"/>
<path d="M257.293 187.205V194.967H251.922V188.645C251.953 188.439 251.937 188.229 251.873 188.03C251.81 187.83 251.701 187.646 251.555 187.489C251.408 187.333 251.227 187.207 251.024 187.121C250.821 187.035 250.601 186.99 250.378 186.99C249.324 186.99 248.659 187.757 248.659 188.941V194.967H243.289V178.476H248.659V184.542C249.08 183.923 249.665 183.417 250.359 183.073C251.052 182.728 251.83 182.558 252.615 182.578C253.259 182.563 253.899 182.674 254.494 182.905C255.088 183.135 255.624 183.481 256.065 183.917C256.507 184.354 256.844 184.873 257.056 185.439C257.268 186.006 257.348 186.608 257.293 187.205Z" fill="#F8961F"/>
<path d="M432.426 312.193V479.322C432.429 481.212 431.897 483.07 430.885 484.708C429.872 486.346 428.414 487.707 426.658 488.653C424.901 489.6 422.908 490.098 420.88 490.099C418.851 490.099 416.857 489.602 415.1 488.657L318.481 436.682L301.358 427.482C295.461 424.305 290.563 419.743 287.153 414.25C283.743 408.757 281.94 402.527 281.924 396.181V229.038C281.921 227.148 282.453 225.29 283.465 223.652C284.478 222.014 285.936 220.653 287.692 219.707C289.449 218.761 291.441 218.262 293.47 218.261C295.499 218.261 297.493 218.758 299.25 219.703L413.021 280.892C418.92 284.063 423.819 288.626 427.225 294.12C430.631 299.615 432.425 305.848 432.426 312.193Z" fill="#F8961F"/>
<path opacity="0.5" d="M432.426 312.193V479.322C432.429 481.212 431.897 483.07 430.885 484.708C429.872 486.346 428.414 487.707 426.658 488.653C424.901 489.6 422.908 490.098 420.88 490.099C418.851 490.099 416.857 489.602 415.1 488.657L318.481 436.682L301.358 427.482C295.461 424.305 290.563 419.743 287.153 414.25C283.743 408.757 281.94 402.527 281.924 396.181V229.038C281.921 227.148 282.453 225.29 283.465 223.652C284.478 222.014 285.936 220.653 287.692 219.707C289.449 218.761 291.441 218.262 293.47 218.261C295.499 218.261 297.493 218.758 299.25 219.703L413.021 280.892C418.92 284.063 423.819 288.626 427.225 294.12C430.631 299.615 432.425 305.848 432.426 312.193Z" fill="white"/>
<path d="M376.767 411.085C376.767 411.085 394.858 439.036 381.792 470.552L318.438 436.682L376.767 411.085Z" fill="#263238"/>
<path d="M405.618 285.502C406.987 275.143 399.084 265.711 387.964 264.435C376.845 263.16 366.721 270.523 365.352 280.883C363.983 291.242 371.887 300.674 383.006 301.949C394.125 303.225 404.249 295.861 405.618 285.502Z" fill="black"/>
<path d="M385.589 230.181C385.589 230.181 391.812 220.766 393.717 221.452C395.623 222.138 392.476 231.11 392.476 231.11C392.476 231.11 401.889 232.939 400.142 235.145C398.395 237.351 386.888 236.826 386.888 236.826L385.589 230.181Z" fill="black"/>
<path d="M389.92 254.447C385.589 284.766 358.157 284.766 358.157 284.766L300.694 261.2C300.694 261.2 296.362 257.662 295.034 249.538C294.524 246.21 294.524 242.831 295.034 239.503C295.034 239.503 295.034 239.436 295.034 239.409C296.868 226.657 307.104 212.951 329.396 208.741C334.282 207.822 339.255 207.371 344.239 207.395C346.65 207.388 349.059 207.5 351.458 207.732C368.783 209.319 380.925 216.852 386.715 228.567C388.017 231.212 388.986 233.988 389.603 236.84C390.778 242.65 390.885 248.604 389.92 254.447Z" fill="black"/>
<path d="M251.966 313.094C251.966 313.094 231.565 312.435 223.71 330.957C223.71 330.957 232.373 336.404 243.736 330.957C255.099 325.509 251.966 313.094 251.966 313.094Z" fill="#F8961F"/>
<path opacity="0.5" d="M251.966 313.094C251.966 313.094 231.565 312.435 223.71 330.957C223.71 330.957 232.373 336.404 243.736 330.957C255.099 325.509 251.966 313.094 251.966 313.094Z" fill="black"/>
<path d="M251.388 322.012C251.388 322.012 245.613 298.634 242.566 298.352C239.52 298.069 238.928 305.481 239.174 309.664L231.955 295.191C231.726 294.741 231.4 294.34 230.998 294.011C230.596 293.683 230.127 293.435 229.618 293.283C229.109 293.13 228.573 293.077 228.041 293.125C227.509 293.173 226.993 293.322 226.526 293.563C219.307 297.262 206.645 308.507 233.341 336.31L251.388 322.012Z" fill="#CFA7A7"/>
<path d="M325.31 305.844L320.979 305.319C316.614 304.78 312.173 305.333 308.113 306.922C304.054 308.51 300.521 311.077 297.878 314.358L272.106 346.318L251.893 313.094C251.893 313.094 249.468 335.692 223.638 330.957L251.373 374.444C253.129 377.197 255.572 379.515 258.495 381.199C261.418 382.883 264.735 383.885 268.162 384.119C271.59 384.353 275.028 383.812 278.183 382.542C281.338 381.272 284.118 379.311 286.284 376.825L310.021 349.64L325.31 305.844Z" fill="#8444B2"/>
<path d="M380.319 380.43C374.544 394.069 373.909 396.733 377.431 403.552C379.885 408.589 381.819 413.831 383.207 419.209C383.207 419.209 356.439 447.161 318.337 436.696L301.213 427.495C297.652 425.582 294.445 423.147 291.713 420.285L296.925 384.075C297.188 382.169 296.98 380.232 296.319 378.412L290.847 363.468C288.177 356.169 287.779 348.315 289.701 340.814C291.622 333.313 295.784 326.473 301.704 321.084L320.098 304.337L368.408 310.094L375.627 312.018C380.353 313.291 384.427 316.111 387.1 319.958C389.774 323.805 390.868 328.423 390.18 332.961C387.812 348.833 383.943 371.861 380.319 380.43Z" fill="#3E535C"/>
<path opacity="0.7" d="M380.319 380.43C374.544 394.069 373.909 396.733 377.431 403.552C379.885 408.589 381.819 413.831 383.207 419.209C383.207 419.209 356.439 447.161 318.337 436.696L301.213 427.495C297.652 425.582 294.445 423.147 291.713 420.285L296.925 384.075C297.188 382.169 296.98 380.232 296.319 378.412L290.847 363.468C288.177 356.169 287.779 348.315 289.701 340.814C291.622 333.313 295.784 326.473 301.704 321.084L320.098 304.337L368.408 310.094L375.627 312.018C380.353 313.291 384.427 316.111 387.1 319.958C389.774 323.805 390.868 328.423 390.18 332.961C387.812 348.833 383.943 371.861 380.319 380.43Z" fill="#8444B2"/>
<path d="M351.183 339.687L341.51 332.006C340.486 331.19 339.25 330.636 337.926 330.4C336.602 330.164 335.234 330.254 333.959 330.661L322.264 334.414L320.69 328.307C320.445 327.357 319.995 326.463 319.369 325.679C318.742 324.895 317.952 324.238 317.045 323.747C316.138 323.255 315.134 322.94 314.093 322.82C313.052 322.7 311.996 322.777 310.988 323.048L305.92 324.393L314.497 309.085C317.297 304.1 321.61 299.993 326.899 297.275L330.263 295.554L358.056 296.899C358.056 296.899 368.408 300.934 368.408 310.014L351.183 339.606" fill="#8444B2"/>
<path d="M358.171 308.373L330.306 328.603V264.186H358.171V308.373Z" fill="#CFA7A7"/>
<path d="M330.739 303.059L322.264 334.468L358.056 308.372L330.739 303.059Z" fill="#CFA7A7"/>
<path d="M330.306 298.392C336.502 296.248 342.166 292.954 346.954 288.709C351.741 284.463 355.553 279.356 358.157 273.696V264.186H330.292L330.306 298.392Z" fill="#703838"/>
<path d="M336.312 216.448C325.744 216.448 303.278 221.936 300.679 247.708C298.081 273.48 300.593 293.442 314.857 295.379C329.122 297.316 362.272 287.671 366.719 254.313C371.165 220.954 346.606 216.448 336.312 216.448Z" fill="#CFA7A7"/>
<path d="M319.68 258.617V273.803L310.122 271.073L319.68 258.617Z" fill="#703838"/>
<path d="M330.306 264.334C332.14 264.334 333.627 262.949 333.627 261.24C333.627 259.531 332.14 258.146 330.306 258.146C328.472 258.146 326.985 259.531 326.985 261.24C326.985 262.949 328.472 264.334 330.306 264.334Z" fill="#263238"/>
<path d="M311.767 259.088C311.765 259.699 311.567 260.296 311.201 260.803C310.834 261.31 310.315 261.704 309.707 261.937C309.1 262.169 308.433 262.228 307.79 262.107C307.147 261.986 306.556 261.691 306.094 261.257C305.631 260.824 305.316 260.273 305.189 259.673C305.062 259.073 305.128 258.452 305.38 257.887C305.632 257.323 306.058 256.841 306.603 256.501C307.149 256.162 307.791 255.981 308.447 255.981C308.884 255.981 309.317 256.061 309.721 256.217C310.125 256.374 310.491 256.603 310.8 256.892C311.108 257.18 311.353 257.523 311.519 257.9C311.685 258.277 311.769 258.68 311.767 259.088Z" fill="#263238"/>
<path d="M304.39 252.631L310.887 249.04C310.887 249.04 308.403 246.632 305.92 248.071C303.437 249.511 304.39 252.631 304.39 252.631Z" fill="#263238"/>
<path d="M315.189 279.964C318.353 280.179 321.503 279.392 324.127 277.731C324.127 277.731 324.747 282.129 320.791 282.963C316.835 283.797 315.189 279.964 315.189 279.964Z" fill="#703838"/>
<path d="M309.515 225.218C309.515 225.218 313.486 260.796 365.419 261.913C365.419 261.913 381.113 226.55 350.1 215.063C319.088 203.575 309.515 225.218 309.515 225.218Z" fill="black"/>
<path d="M380.709 256.586L374.327 253.143C371.902 251.797 368.552 251.986 364.842 253.976C357.478 257.931 351.501 267.575 351.501 275.498C351.501 279.466 352.945 282.224 355.428 283.569L361.694 286.932L362.055 287.12L362.272 287.241C364.64 288.317 367.801 288.061 371.281 286.192C378.644 282.156 384.622 272.593 384.622 264.67C384.578 260.662 383.091 257.891 380.709 256.586Z" fill="#F8961F"/>
<path d="M380.658 276.846C385.865 268.444 385.866 259.362 380.659 256.561C375.452 253.761 367.01 258.302 361.803 266.704C356.596 275.106 356.596 284.188 361.803 286.989C367.01 289.789 375.452 285.248 380.658 276.846Z" fill="#F8961F"/>
<path opacity="0.5" d="M380.658 276.846C385.865 268.444 385.866 259.362 380.659 256.561C375.452 253.761 367.01 258.302 361.803 266.704C356.596 275.106 356.596 284.188 361.803 286.989C367.01 289.789 375.452 285.248 380.658 276.846Z" fill="black"/>
<path d="M383.265 264.051L378.933 261.697C377.287 260.783 374.992 260.904 372.45 262.262C369.796 263.879 367.587 266.054 366.002 268.613C364.417 271.171 363.5 274.041 363.326 276.991C363.326 279.681 364.351 281.605 366.011 282.493L370.343 284.793C370.419 284.845 370.502 284.89 370.588 284.927L370.732 285.008C371.748 285.367 372.842 285.488 373.919 285.362C374.996 285.235 376.024 284.864 376.912 284.282C379.564 282.667 381.772 280.494 383.357 277.937C384.942 275.381 385.86 272.514 386.037 269.566C385.921 266.836 384.91 264.939 383.265 264.051Z" fill="#F8961F"/>
<path d="M385.921 269.539C385.744 272.487 384.827 275.354 383.241 277.91C381.656 280.467 379.449 282.64 376.796 284.255C371.743 286.945 367.657 284.766 367.657 279.345C367.828 276.395 368.745 273.524 370.333 270.967C371.922 268.41 374.136 266.238 376.796 264.63C381.835 261.912 385.921 264.105 385.921 269.539Z" fill="#F8961F"/>
<path opacity="0.3" d="M385.921 269.539C385.744 272.487 384.827 275.354 383.241 277.91C381.656 280.467 379.449 282.64 376.796 284.255C371.743 286.945 367.657 284.766 367.657 279.345C367.828 276.395 368.745 273.524 370.333 270.967C371.922 268.41 374.136 266.238 376.796 264.63C381.835 261.912 385.921 264.105 385.921 269.539Z" fill="black"/>
<path d="M360.885 209.507C356.746 206.529 351.677 204.89 346.448 204.84H345.163C339.867 204.787 334.579 205.237 329.382 206.185C330.335 206.185 331.288 206.185 332.269 206.185H329.382V208.687H332.067C341.322 208.98 350.093 212.614 356.524 218.822C362.955 225.03 366.544 233.324 366.531 241.951V252.537C366.53 252.956 366.624 253.369 366.807 253.752C366.989 254.134 367.256 254.477 367.589 254.757C367.923 255.037 368.316 255.249 368.743 255.379C369.17 255.509 369.621 255.553 370.068 255.51H370.4L373.288 254.676C373.095 254.732 372.897 254.768 372.696 254.783C373.557 254.675 374.344 254.274 374.909 253.659C375.473 253.044 375.775 252.257 375.757 251.448V241.628C375.728 223.859 367.484 214.309 360.885 209.507Z" fill="#F8961F"/>
<path d="M342.708 294.639C341.518 294.639 340.341 294.401 339.258 293.94L330.234 290.052C330.093 290.005 329.964 289.931 329.855 289.835C329.746 289.74 329.659 289.624 329.601 289.495C329.543 289.366 329.514 289.228 329.516 289.088C329.518 288.949 329.551 288.811 329.613 288.684C329.675 288.557 329.765 288.443 329.877 288.35C329.989 288.257 330.12 288.186 330.263 288.143C330.405 288.1 330.556 288.085 330.705 288.098C330.854 288.112 330.998 288.154 331.129 288.223L340.153 292.11C341.304 292.609 342.593 292.76 343.84 292.543C345.088 292.326 346.232 291.752 347.112 290.9L355.775 282.56C355.978 282.371 356.253 282.265 356.54 282.265C356.827 282.265 357.102 282.371 357.305 282.56C357.504 282.751 357.616 283.007 357.616 283.273C357.616 283.539 357.504 283.795 357.305 283.986L348.642 292.325C347.871 293.063 346.948 293.648 345.929 294.046C344.909 294.443 343.814 294.645 342.708 294.639Z" fill="#F8961F"/>
<path opacity="0.5" d="M342.708 294.639C341.518 294.639 340.341 294.401 339.258 293.94L330.234 290.052C330.093 290.005 329.964 289.931 329.855 289.835C329.746 289.74 329.659 289.624 329.601 289.495C329.543 289.366 329.514 289.228 329.516 289.088C329.518 288.949 329.551 288.811 329.613 288.684C329.675 288.557 329.765 288.443 329.877 288.35C329.989 288.257 330.12 288.186 330.263 288.143C330.405 288.1 330.556 288.085 330.705 288.098C330.854 288.112 330.998 288.154 331.129 288.223L340.153 292.11C341.304 292.609 342.593 292.76 343.84 292.543C345.088 292.326 346.232 291.752 347.112 290.9L355.775 282.56C355.978 282.371 356.253 282.265 356.54 282.265C356.827 282.265 357.102 282.371 357.305 282.56C357.504 282.751 357.616 283.007 357.616 283.273C357.616 283.539 357.504 283.795 357.305 283.986L348.642 292.325C347.871 293.063 346.948 293.648 345.929 294.046C344.909 294.443 343.814 294.645 342.708 294.639Z" fill="black"/>
<path d="M332.602 287.228C332.602 288.004 332.354 288.764 331.891 289.41C331.428 290.056 330.77 290.559 329.999 290.856C329.229 291.154 328.381 291.231 327.563 291.08C326.746 290.928 325.994 290.554 325.405 290.005C324.815 289.456 324.414 288.756 324.251 287.994C324.088 287.232 324.172 286.442 324.491 285.724C324.81 285.007 325.35 284.393 326.044 283.962C326.737 283.53 327.552 283.3 328.386 283.3C329.504 283.3 330.576 283.714 331.367 284.45C332.158 285.187 332.602 286.186 332.602 287.228Z" fill="#F8961F"/>
<path opacity="0.5" d="M332.602 287.228C332.602 288.004 332.354 288.764 331.891 289.41C331.428 290.056 330.77 290.559 329.999 290.856C329.229 291.154 328.381 291.231 327.563 291.08C326.746 290.928 325.994 290.554 325.405 290.005C324.815 289.456 324.414 288.756 324.251 287.994C324.088 287.232 324.172 286.442 324.491 285.724C324.81 285.007 325.35 284.393 326.044 283.962C326.737 283.53 327.552 283.3 328.386 283.3C329.504 283.3 330.576 283.714 331.367 284.45C332.158 285.187 332.602 286.186 332.602 287.228Z" fill="black"/>
<path d="M375.728 241.628V251.447C375.746 252.257 375.445 253.044 374.88 253.659C374.316 254.274 373.528 254.675 372.667 254.783C372.191 254.831 371.71 254.784 371.255 254.647C370.8 254.509 370.382 254.284 370.026 253.986C369.671 253.688 369.387 253.323 369.192 252.916C368.998 252.509 368.898 252.068 368.899 251.622V241.628C368.907 236.858 367.879 232.136 365.878 227.746C363.876 223.356 360.942 219.389 357.251 216.082C353.561 212.776 349.191 210.2 344.404 208.508C339.617 206.816 334.512 206.044 329.396 206.238C334.594 205.291 339.882 204.84 345.177 204.893H346.433C351.663 204.944 356.732 206.582 360.871 209.561C367.484 214.309 375.728 223.859 375.728 241.628Z" fill="#F8961F"/>
<path opacity="0.5" d="M375.728 241.628V251.447C375.746 252.257 375.445 253.044 374.88 253.659C374.316 254.274 373.528 254.675 372.667 254.783C372.191 254.831 371.71 254.784 371.255 254.647C370.8 254.509 370.382 254.284 370.026 253.986C369.671 253.688 369.387 253.323 369.192 252.916C368.998 252.509 368.898 252.068 368.899 251.622V241.628C368.907 236.858 367.879 232.136 365.878 227.746C363.876 223.356 360.942 219.389 357.251 216.082C353.561 212.776 349.191 210.2 344.404 208.508C339.617 206.816 334.512 206.044 329.396 206.238C334.594 205.291 339.882 204.84 345.177 204.893H346.433C351.663 204.944 356.732 206.582 360.871 209.561C367.484 214.309 375.728 223.859 375.728 241.628Z" fill="black"/>
<path d="M359.5 426.675C359.5 426.675 352.512 444.605 377.489 452.675C377.489 452.675 385.647 441.511 377.489 432.378C369.332 423.244 359.5 426.675 359.5 426.675Z" fill="#F8961F"/>
<path opacity="0.7" d="M359.5 426.675C359.5 426.675 352.512 444.605 377.489 452.675C377.489 452.675 385.647 441.511 377.489 432.378C369.332 423.244 359.5 426.675 359.5 426.675Z" fill="black"/>
<path d="M368.264 427.495C368.264 427.495 343.863 435.821 343.993 439.05C344.123 442.278 354.36 440.072 354.36 440.072L350.62 442.359C346.683 444.752 343.633 448.219 341.885 452.285C341.505 453.182 341.491 454.178 341.848 455.084C342.205 455.989 342.907 456.741 343.82 457.195L353.089 461.768C353.613 462.027 354.187 462.185 354.777 462.234C355.367 462.282 355.962 462.22 356.526 462.051C357.09 461.882 357.612 461.609 358.06 461.248C358.509 460.888 358.876 460.447 359.139 459.953C359.656 459.001 360.37 458.155 361.239 457.463C362.109 456.77 363.118 456.245 364.207 455.917C369.245 454.357 378.644 449.864 382.413 437.57L368.264 427.495Z" fill="#CFA7A7"/>
<path d="M375.583 311.991C375.583 311.991 362.589 318.716 369.491 339.135C376.392 359.554 389.343 391.231 389.343 391.231L359.5 426.674C362.688 427.033 365.759 428.013 368.513 429.552C371.267 431.091 373.642 433.154 375.482 435.606C377.245 438.099 378.347 440.947 378.696 443.915C379.045 446.883 378.631 449.886 377.489 452.675L414.537 408.287C417.963 404.185 420.238 399.352 421.155 394.225C422.073 389.098 421.605 383.839 419.792 378.923L403.911 335.718C401.969 330.441 398.743 325.653 394.485 321.731C390.227 317.808 385.052 314.856 379.366 313.107L375.583 311.991Z" fill="#8444B2"/>
<path d="M156.242 191.375L98.8223 160.438C98.1615 160.011 97.397 159.745 96.5978 159.662C95.7987 159.58 94.9902 159.685 94.2454 159.967C94.0885 160.035 93.9386 160.116 93.7979 160.209L81.309 167.029H81.3956C79.8219 167.863 78.8257 169.8 78.8257 172.571V232.078C78.8257 237.109 82.1031 242.96 86.1602 245.139L143.58 276.077C144.308 276.568 145.176 276.848 146.074 276.884C146.972 276.92 147.862 276.709 148.633 276.278C148.594 276.293 148.56 276.316 148.532 276.346L160.934 269.62C162.551 268.813 163.577 266.849 163.577 264.038V204.436C163.577 199.406 160.357 193.554 156.242 191.375Z" fill="#F8961F"/>
<path d="M161.526 197.011C160.365 194.71 158.534 192.757 156.242 191.375L98.8223 160.438C98.1615 160.011 97.397 159.745 96.5979 159.662C95.7988 159.58 94.9903 159.685 94.2455 159.967C94.0885 160.035 93.9387 160.116 93.7979 160.209L81.3091 167.029C82.073 166.665 82.9297 166.504 83.7853 166.563C84.6409 166.623 85.4625 166.9 86.1602 167.365L143.58 198.303C145.95 199.746 147.828 201.79 148.994 204.194L161.526 197.011Z" fill="#F8961F"/>
<path d="M150.914 270.844C150.914 273.534 149.99 275.404 148.532 276.225L160.934 269.499C162.551 268.692 163.577 266.728 163.577 263.917V204.436C163.516 201.847 162.814 199.306 161.526 197.011L148.994 204.194C150.197 206.422 150.853 208.871 150.914 211.364V270.844Z" fill="#F8961F"/>
<path opacity="0.3" d="M161.526 197.011C160.365 194.71 158.534 192.757 156.242 191.375L98.8223 160.438C98.1615 160.011 97.397 159.745 96.5979 159.662C95.7988 159.58 94.9903 159.685 94.2455 159.967C94.0885 160.035 93.9387 160.116 93.7979 160.209L81.3091 167.029C82.073 166.665 82.9297 166.504 83.7853 166.563C84.6409 166.623 85.4625 166.9 86.1602 167.365L143.58 198.303C145.95 199.746 147.828 201.79 148.994 204.194L161.526 197.011Z" fill="black"/>
<path opacity="0.6" d="M150.914 270.844C150.914 273.534 149.99 275.404 148.532 276.225L160.934 269.499C162.551 268.692 163.577 266.728 163.577 263.917V204.436C163.516 201.847 162.814 199.306 161.526 197.011L148.994 204.194C150.197 206.422 150.853 208.871 150.914 211.364V270.844Z" fill="black"/>
<path d="M134.08 228.406C134.08 236.113 130.803 238.736 125.894 236.087C124.539 235.368 123.355 234.402 122.412 233.246C121.47 232.091 120.787 230.769 120.407 229.361C118.963 231.016 116.725 231.123 113.578 229.428C108.409 226.644 104.338 220.013 104.338 213.569C104.338 207.126 108.366 204.907 113.578 207.705C116.223 209.157 118.359 211.292 119.729 213.852V211.31L125.172 214.242V228.177C125.091 228.911 125.227 229.651 125.565 230.317C125.904 230.983 126.432 231.551 127.092 231.957C128.926 232.952 130.052 231.271 130.052 226.281C130.052 217.551 124.046 208.297 115.166 203.522C106.287 198.746 100.295 202.069 100.295 211.054C100.411 215.822 101.822 220.485 104.394 224.608C106.967 228.731 110.618 232.18 115.007 234.634C117.391 236.002 120.097 236.805 122.891 236.974L124.175 241.615C120.923 241.37 117.78 240.407 115.007 238.804C103.457 232.576 95.8193 220.039 95.8193 208.687C95.8193 197.334 103.529 193.218 115.166 199.486C126.413 205.526 134.08 217.618 134.08 228.406ZM119.815 221.936C119.843 220.23 119.397 218.547 118.519 217.05C117.641 215.553 116.361 214.294 114.805 213.395C111.918 211.821 109.853 212.924 109.853 216.583C109.816 218.291 110.252 219.979 111.12 221.485C111.987 222.991 113.256 224.262 114.805 225.178C117.693 226.698 119.815 225.716 119.815 221.936Z" fill="#F8961F"/>
<g opacity="0.9">
<path d="M134.08 228.406C134.08 236.113 130.803 238.736 125.894 236.087C124.539 235.368 123.355 234.402 122.412 233.246C121.47 232.091 120.787 230.769 120.407 229.361C118.963 231.016 116.725 231.123 113.578 229.428C108.409 226.644 104.338 220.013 104.338 213.569C104.338 207.126 108.366 204.907 113.578 207.705C116.223 209.157 118.359 211.292 119.729 213.852V211.31L125.172 214.242V228.177C125.091 228.911 125.227 229.651 125.565 230.317C125.904 230.983 126.432 231.551 127.092 231.957C128.926 232.952 130.052 231.271 130.052 226.281C130.052 217.551 124.046 208.297 115.166 203.522C106.287 198.746 100.295 202.069 100.295 211.054C100.411 215.822 101.822 220.485 104.394 224.608C106.967 228.731 110.618 232.18 115.007 234.634C117.391 236.002 120.097 236.805 122.891 236.974L124.175 241.615C120.923 241.37 117.78 240.407 115.007 238.804C103.457 232.576 95.8193 220.039 95.8193 208.687C95.8193 197.334 103.529 193.218 115.166 199.486C126.413 205.526 134.08 217.618 134.08 228.406ZM119.815 221.936C119.843 220.23 119.397 218.547 118.519 217.05C117.641 215.553 116.361 214.294 114.805 213.395C111.918 211.821 109.853 212.924 109.853 216.583C109.816 218.291 110.252 219.979 111.12 221.485C111.987 222.991 113.256 224.262 114.805 225.178C117.693 226.698 119.815 225.716 119.815 221.936Z" fill="#2C2C2C"/>
</g>
<path d="M156.242 297.343L98.8223 266.405C98.1624 265.976 97.3969 265.709 96.5968 265.629C95.7967 265.549 94.9879 265.659 94.2454 265.948C94.0885 266.015 93.9386 266.097 93.7979 266.19L81.309 273.01H81.3956C79.8219 273.844 78.8257 275.781 78.8257 278.538V338.019C78.8257 343.063 82.1031 348.901 86.1602 351.08L143.58 382.017C144.307 382.511 145.175 382.794 146.074 382.83C146.973 382.866 147.863 382.653 148.633 382.219L148.532 382.3L160.934 375.507C162.551 374.713 163.577 372.817 163.577 369.925V310.39C163.577 305.36 160.357 299.522 156.242 297.343Z" fill="#F8961F"/>
<path d="M161.526 302.979C160.369 300.675 158.537 298.721 156.242 297.343L98.8223 266.405C98.1625 265.976 97.397 265.709 96.5969 265.629C95.7968 265.549 94.988 265.659 94.2455 265.948C94.0885 266.015 93.9387 266.097 93.7979 266.19L81.3091 273.01C82.0713 272.643 82.9275 272.478 83.7834 272.535C84.6393 272.592 85.4618 272.868 86.1602 273.333L143.58 304.27C145.954 305.715 147.833 307.765 148.994 310.175L161.526 302.979Z" fill="#F8961F"/>
<path d="M150.914 376.798C150.914 379.488 149.99 381.358 148.532 382.246L160.934 375.453C162.551 374.659 163.577 372.763 163.577 369.871V310.39C163.515 307.806 162.814 305.269 161.526 302.979L148.994 310.162C150.197 312.384 150.853 314.829 150.914 317.318V376.798Z" fill="#F8961F"/>
<path opacity="0.3" d="M161.526 302.979C160.369 300.675 158.537 298.721 156.242 297.343L98.8223 266.405C98.1625 265.976 97.397 265.709 96.5969 265.629C95.7968 265.549 94.988 265.659 94.2455 265.948C94.0885 266.015 93.9387 266.097 93.7979 266.19L81.3091 273.01C82.0713 272.643 82.9275 272.478 83.7834 272.535C84.6393 272.592 85.4618 272.868 86.1602 273.333L143.58 304.27C145.954 305.715 147.833 307.765 148.994 310.175L161.526 302.979Z" fill="black"/>
<path opacity="0.6" d="M150.914 376.798C150.914 379.488 149.99 381.358 148.532 382.246L160.934 375.453C162.551 374.659 163.577 372.763 163.577 369.871V310.39C163.515 307.806 162.814 305.269 161.526 302.979L148.994 310.162C150.197 312.384 150.853 314.829 150.914 317.318V376.798Z" fill="black"/>
<path d="M108.452 323.936L94.6064 302.979V331.374L108.452 323.936Z" fill="#F8961F"/>
<path d="M121.316 329.975L135.134 352.263V323.908L121.316 329.975Z" fill="#F8961F"/>
<path d="M96.6997 302.024L110.921 323.545C110.981 323.593 111.035 323.647 111.08 323.707C111.092 323.76 111.092 323.815 111.08 323.868L115.31 330.271L118.891 328.697C118.947 328.641 119.01 328.591 119.079 328.549C119.22 328.472 119.378 328.426 119.541 328.415L133.979 322.106L96.6997 302.024Z" fill="#F8961F"/>
<path d="M119.223 330.889L115.354 332.584C115.204 332.649 115.042 332.681 114.877 332.679C114.678 332.681 114.481 332.635 114.307 332.545C114.132 332.455 113.985 332.325 113.881 332.167L109.651 325.765L95.7612 333.243L133.141 353.339L119.223 330.889Z" fill="#F8961F"/>
<g opacity="0.9">
<path d="M108.452 323.936L94.6064 302.979V331.374L108.452 323.936Z" fill="#2C2C2C"/>
<path d="M121.317 329.975L135.134 352.263V323.908L121.317 329.975Z" fill="#2C2C2C"/>
<path d="M96.7002 302.024L110.922 323.545C110.982 323.593 111.035 323.647 111.08 323.707C111.093 323.76 111.093 323.815 111.08 323.868L115.311 330.271L118.891 328.697C118.947 328.641 119.01 328.591 119.079 328.549C119.22 328.472 119.378 328.426 119.541 328.415L133.979 322.106L96.7002 302.024Z" fill="#2C2C2C"/>
<path d="M119.223 330.89L115.354 332.585C115.205 332.649 115.042 332.681 114.878 332.679C114.678 332.681 114.482 332.635 114.307 332.545C114.133 332.456 113.986 332.326 113.881 332.168L109.651 325.765L95.7617 333.244L133.142 353.34L119.223 330.89Z" fill="#2C2C2C"/>
</g>
<path d="M156.242 85.4616L98.8223 54.5242C98.1624 54.0951 97.3969 53.8282 96.5968 53.7483C95.7967 53.6683 94.9879 53.7779 94.2454 54.0668C94.0885 54.1344 93.9386 54.2154 93.7979 54.3089L81.309 61.1286H81.3956C79.8219 61.9491 78.8257 63.8995 78.8257 66.657V126.138C78.8257 131.168 82.1031 137.02 86.1602 139.199L143.58 170.136C144.307 170.63 145.175 170.913 146.074 170.949C146.973 170.985 147.863 170.772 148.633 170.338L148.532 170.405L160.934 163.679C162.551 162.886 163.577 160.989 163.577 158.097V98.4688C163.577 93.4381 160.357 87.5869 156.242 85.4616Z" fill="#F8961F"/>
<path d="M161.526 91.0572C160.369 88.7494 158.538 86.7916 156.242 85.4078L98.8223 54.5242C98.1625 54.0951 97.397 53.8282 96.5969 53.7483C95.7968 53.6683 94.988 53.7779 94.2455 54.0668C94.0885 54.1344 93.9387 54.2154 93.7979 54.3089L81.3091 61.1286C82.0713 60.7614 82.9275 60.5973 83.7834 60.6542C84.6393 60.7112 85.4618 60.987 86.1602 61.4515L143.58 92.3889C145.954 93.8344 147.833 95.8837 148.994 98.2939L161.526 91.0572Z" fill="#F8961F"/>
<path d="M150.914 164.823C150.914 167.513 149.99 169.383 148.532 170.203L160.934 163.478C162.551 162.684 163.577 160.787 163.577 157.895V98.4687C163.515 95.884 162.814 93.3474 161.526 91.0571L148.994 98.24C150.197 100.463 150.853 102.907 150.914 105.396V164.823Z" fill="#F8961F"/>
<path opacity="0.3" d="M161.526 91.0572C160.369 88.7494 158.538 86.7916 156.242 85.4078L98.8223 54.5242C98.1625 54.0951 97.397 53.8282 96.5969 53.7483C95.7968 53.6683 94.988 53.7779 94.2455 54.0668C94.0885 54.1344 93.9387 54.2154 93.7979 54.3089L81.3091 61.1286C82.0713 60.7614 82.9275 60.5973 83.7834 60.6542C84.6393 60.7112 85.4618 60.987 86.1602 61.4515L143.58 92.3889C145.954 93.8344 147.833 95.8837 148.994 98.2939L161.526 91.0572Z" fill="black"/>
<path opacity="0.6" d="M150.914 164.823C150.914 167.513 149.99 169.383 148.532 170.203L160.934 163.478C162.551 162.684 163.577 160.787 163.577 157.895V98.4687C163.515 95.884 162.814 93.3474 161.526 91.0571L148.994 98.24C150.197 100.463 150.853 102.907 150.914 105.396V164.823Z" fill="black"/>
<path d="M132.131 139.266C129.922 135.876 127.698 132.54 125.489 129.124C125.139 128.477 124.649 127.904 124.05 127.441C123.452 126.978 122.757 126.635 122.01 126.434C120.941 126.232 119.873 126.003 118.776 125.707C118.385 125.555 118.056 125.292 117.837 124.954C114.223 119.19 111.349 113.05 109.275 106.661C109.231 106.524 109.219 106.38 109.239 106.239C109.259 106.097 109.311 105.961 109.391 105.84C110.07 105.208 110.835 104.629 111.528 104.065C112.221 103.5 112.582 102.195 112.076 100.5C111.008 96.9085 109.983 93.3171 108.915 89.7391C108.708 88.7225 108.217 87.7745 107.492 86.9906C106.768 86.2066 105.834 85.6144 104.785 85.2734C102.457 84.6703 99.9852 84.7549 97.7107 85.5155C96.83 85.8249 96.368 86.5647 96.3535 87.8425C96.7289 90.3041 96.9743 92.7387 97.4797 95.2406C101.041 113.283 109.608 129.873 123.179 145.01C123.534 145.511 124.01 145.929 124.569 146.228C125.128 146.527 125.755 146.699 126.399 146.731C128.646 146.682 130.804 145.907 132.506 144.539C133.791 143.463 133.661 141.553 132.131 139.266Z" fill="#F8961F"/>
<path d="M131.957 120.932C131.655 117.063 130.511 113.292 128.593 109.848C127.162 107.158 125.34 104.665 123.179 102.437C122.616 101.845 122.139 101.657 121.851 102.101C121.562 102.545 121.851 103.177 122.399 103.755L122.962 104.36C126.953 108.652 129.468 113.961 130.181 119.601C130.174 120.012 130.218 120.423 130.311 120.825C130.493 121.287 130.784 121.706 131.163 122.049C131.466 122.25 131.813 122.049 132.058 122.049C131.972 121.497 131.986 121.215 131.957 120.932Z" fill="#F8961F"/>
<path d="M118.876 109.889C120.69 111.747 121.791 114.112 122.01 116.614C122.105 116.995 122.255 117.361 122.457 117.704C123.338 118.376 123.771 118.148 123.771 117.3C123.462 114.091 122.038 111.064 119.714 108.678C119.165 108.154 118.718 107.992 118.458 108.436C118.364 108.69 118.354 108.963 118.429 109.222C118.503 109.481 118.659 109.713 118.876 109.889Z" fill="#F8961F"/>
<g opacity="0.9">
<path d="M132.131 139.266C129.922 135.876 127.698 132.54 125.489 129.124C125.139 128.477 124.649 127.904 124.05 127.441C123.452 126.978 122.757 126.635 122.01 126.434C120.941 126.232 119.873 126.003 118.776 125.707C118.385 125.555 118.056 125.292 117.837 124.954C114.223 119.19 111.349 113.05 109.275 106.661C109.231 106.524 109.219 106.38 109.239 106.239C109.259 106.097 109.311 105.961 109.391 105.84C110.07 105.208 110.835 104.629 111.528 104.065C112.221 103.5 112.582 102.195 112.076 100.5C111.008 96.9085 109.983 93.3171 108.915 89.7391C108.708 88.7225 108.217 87.7745 107.492 86.9906C106.768 86.2066 105.834 85.6144 104.785 85.2734C102.457 84.6703 99.9852 84.7549 97.7107 85.5155C96.83 85.8249 96.368 86.5647 96.3535 87.8425C96.7289 90.3041 96.9743 92.7387 97.4797 95.2406C101.041 113.283 109.608 129.873 123.179 145.01C123.534 145.511 124.01 145.929 124.569 146.228C125.128 146.527 125.755 146.699 126.399 146.731C128.646 146.682 130.804 145.907 132.506 144.539C133.791 143.463 133.661 141.553 132.131 139.266Z" fill="#2C2C2C"/>
<path d="M131.958 120.932C131.656 117.063 130.511 113.292 128.594 109.848C127.162 107.158 125.34 104.665 123.179 102.437C122.616 101.845 122.14 101.657 121.851 102.101C121.562 102.545 121.851 103.177 122.4 103.755L122.963 104.36C126.954 108.652 129.468 113.961 130.182 119.601C130.175 120.012 130.218 120.423 130.312 120.825C130.493 121.287 130.784 121.706 131.164 122.049C131.467 122.25 131.813 122.049 132.059 122.049C131.972 121.497 131.987 121.215 131.958 120.932Z" fill="#2C2C2C"/>
<path d="M118.877 109.889C120.69 111.747 121.792 114.112 122.01 116.614C122.105 116.995 122.256 117.361 122.458 117.704C123.338 118.376 123.771 118.148 123.771 117.3C123.463 114.091 122.038 111.064 119.714 108.678C119.166 108.154 118.718 107.992 118.458 108.436C118.365 108.69 118.355 108.963 118.429 109.222C118.504 109.481 118.66 109.713 118.877 109.889Z" fill="#2C2C2C"/>
</g>
<path d="M450.849 49.7893L464.377 56.9587V52.493C464.377 52.1836 464.377 51.8608 464.377 51.5514C464.377 51.242 464.377 50.9461 464.377 50.6502V50.4888C464.868 44.5837 469.676 42.3105 475.538 45.4715C478.191 46.9922 480.466 49.0239 482.208 51.4303C483.522 43.3597 490.553 40.5081 499.057 45.068C508.499 50.1525 516.151 62.5544 516.151 72.6696V82.2198C516.138 82.9837 516.34 83.7376 516.738 84.4057C517.136 85.0738 517.715 85.6327 518.418 86.0265L526.388 90.3712C528.108 91.3212 529.534 92.671 530.526 94.2885C531.518 95.906 532.042 97.7357 532.048 99.5986C532.048 100.371 531.83 101.131 531.415 101.8C531 102.469 530.403 103.025 529.684 103.411C528.965 103.797 528.15 103.999 527.321 103.998C526.491 103.997 525.676 103.793 524.959 103.405L451.051 63.6035C449.09 62.5427 447.462 61.0224 446.327 59.1936C445.192 57.3648 444.591 55.2913 444.583 53.179C444.582 52.4952 444.774 51.8233 445.14 51.2306C445.506 50.6379 446.032 50.1452 446.667 49.8019C447.302 49.4585 448.022 49.2767 448.756 49.2744C449.49 49.2722 450.212 49.4498 450.849 49.7893Z" fill="#E6E6E6"/>
<path d="M553.979 47.9195L563.811 53.1788V49.8968C563.811 49.6681 563.811 49.4394 563.811 49.2108C563.811 48.9821 563.811 48.7669 563.811 48.5517V48.471C564.172 44.1801 567.666 42.5256 571.925 44.8257C573.854 45.9267 575.508 47.3988 576.777 49.1435C577.744 43.3057 582.855 41.1939 589.034 44.5163C595.907 48.2154 601.466 57.2007 601.466 64.5853V71.5395C601.471 72.0847 601.628 72.6192 601.921 73.0908C602.215 73.5624 602.635 73.9548 603.14 74.2297L608.916 77.3907C610.172 78.0792 611.213 79.0624 611.935 80.2424C612.657 81.4224 613.035 82.758 613.03 84.1163C613.029 84.6726 612.873 85.219 612.576 85.7018C612.28 86.1846 611.853 86.587 611.339 86.8694C610.824 87.1518 610.24 87.3045 609.643 87.3123C609.045 87.3201 608.457 87.1829 607.934 86.9141L554.123 57.9674C552.698 57.1989 551.514 56.0948 550.69 54.7656C549.867 53.4365 549.432 51.9291 549.431 50.3945C549.43 49.8978 549.569 49.4095 549.834 48.9785C550.099 48.5474 550.481 48.1887 550.941 47.9382C551.401 47.6877 551.924 47.5541 552.457 47.5508C552.991 47.5475 553.515 47.6746 553.979 47.9195Z" fill="#E6E6E6"/>
</g>
<defs>
<filter id="filter0_d_0_8388" x="0" y="0" width="673" height="720" filterUnits="userSpaceOnUse" color-interpolation-filters="sRGB">
<feFlood flood-opacity="0" result="BackgroundImageFix"/>
<feColorMatrix in="SourceAlpha" type="matrix" values="0 0 0 0 0 0 0 0 0 0 0 0 0 0 0 0 0 0 127 0" result="hardAlpha"/>
<feMorphology radius="12" operator="erode" in="SourceAlpha" result="effect1_dropShadow_0_8388"/>
<feOffset dy="32"/>
<feGaussianBlur stdDeviation="32"/>
<feColorMatrix type="matrix" values="0 0 0 0 0.0625882 0 0 0 0 0.0926346 0 0 0 0 0.15702 0 0 0 0.14 0"/>
<feBlend mode="normal" in2="BackgroundImageFix" result="effect1_dropShadow_0_8388"/>
<feBlend mode="normal" in="SourceGraphic" in2="effect1_dropShadow_0_8388" result="shape"/>
</filter>
<linearGradient id="paint0_linear_0_8388" x1="336.5" y1="334.858" x2="336.5" y2="636" gradientUnits="userSpaceOnUse">
<stop stop-color="#303030"/>
<stop offset="1" stop-opacity="0.44"/>
</linearGradient>
</defs>
</svg>
