<svg width="358" height="396" viewBox="0 0 358 396" fill="none" xmlns="http://www.w3.org/2000/svg">
<path d="M69.355 355.265C148.168 355.265 202.289 396 240.265 396C278.242 396 358 374.217 358 199.899C358 25.5799 250.702 -3.05176e-05 208.932 -3.05176e-05C13.3306 -0.0113831 -70.2219 355.265 69.355 355.265Z" fill="#F8961F" fill-opacity="0.1"/>
<path d="M123.447 157C119.361 157 93.6594 157 89.2237 157C84.6891 157 81 160.975 81 165.86L81 237.349C81 242.234 84.6891 246.209 89.2237 246.209H123.447C127.982 246.209 131.671 242.234 131.671 237.349V165.86C131.671 160.975 127.982 157 123.447 157V157ZM114.669 162.411L113.873 166.178C113.806 166.495 113.548 166.717 113.247 166.717H99.4241C99.1223 166.717 98.8648 166.495 98.7979 166.178L98.0019 162.411H114.669ZM126.648 237.349C126.648 239.251 125.212 240.798 123.447 240.798H89.2237C87.4584 240.798 86.0222 239.251 86.0222 237.349L86.0222 165.86C86.0222 163.958 87.4584 162.411 89.2237 162.411H92.8509L93.9009 167.379C94.4916 170.175 96.7629 172.128 99.4243 172.128H113.247C115.908 172.128 118.179 170.175 118.77 167.379L119.82 162.411H123.447C125.213 162.411 126.649 163.958 126.649 165.86V237.349H126.648Z" fill="#F8961F"/>
<path d="M115.652 186.455L111.902 185.9L110.26 182.525C108.685 179.225 104.075 179.102 102.395 182.525L100.753 185.9L97.0131 186.454C93.3028 186.988 91.955 191.784 94.6151 194.396L97.2364 196.981L96.6368 200.552C95.9848 204.303 99.707 207.215 102.962 205.507L106.367 203.695L109.784 205.513C113.023 207.212 116.748 204.302 116.097 200.552L115.494 196.965L118.044 194.393C120.797 191.706 119.243 186.972 115.652 186.455ZM111.264 193.82C110.499 194.591 110.177 195.671 110.354 196.746L110.914 200.08L107.724 198.383C106.884 197.939 105.906 197.93 105.056 198.359C104.747 198.512 105.897 197.91 101.82 200.08L102.381 196.739C102.558 195.666 102.217 194.574 101.469 193.819C101.286 193.634 102.115 194.456 99.209 191.59L102.441 191.112C103.421 190.971 104.249 190.353 104.712 189.417C104.843 189.15 104.259 190.348 106.328 186.098C108.534 190.629 107.784 189.091 107.944 189.419C108.408 190.354 109.236 190.971 110.205 191.111L113.47 191.594L111.264 193.82ZM114.696 197.771C114.697 197.769 114.697 197.769 114.699 197.768C114.698 197.769 114.696 197.77 114.696 197.771Z" fill="#F8961F"/>
<path d="M108.074 209.32C107.102 208.315 105.568 208.315 104.597 209.32L94.4663 219.794C92.8376 221.477 93.9475 224.451 96.205 224.451H97.6946V229.728C97.6946 231.223 98.8189 232.434 100.206 232.434H112.465C113.852 232.434 114.976 231.222 114.976 229.728V224.451H116.466C118.723 224.451 119.833 221.478 118.204 219.794L108.074 209.32ZM109.953 221.746V227.023H102.717V221.746C102.717 220.918 102.372 220.177 101.828 219.681L106.335 215.022L110.842 219.681C110.298 220.177 109.953 220.918 109.953 221.746Z" fill="#F8961F"/>
<path d="M170.313 202.082H247.162C249.494 202.082 251.384 200.045 251.384 197.532V179.022C251.384 176.51 249.494 174.473 247.162 174.473H170.313C167.981 174.473 166.09 176.51 166.09 179.022V197.532C166.09 200.045 167.98 202.082 170.313 202.082ZM174.535 183.572H242.939V192.983H174.535V183.572Z" fill="#F8961F"/>
<path d="M170.313 254.267H199.092C201.424 254.267 203.314 252.23 203.314 249.718V214.143C203.314 211.631 201.424 209.594 199.092 209.594H170.313C167.981 209.594 166.09 211.631 166.09 214.143V249.718C166.09 252.23 167.98 254.267 170.313 254.267ZM174.535 218.693H194.869V245.168H174.535V218.693Z" fill="#F8961F"/>
<path d="M247.162 209.594H222.258C219.926 209.594 218.035 211.631 218.035 214.143C218.035 216.656 219.926 218.693 222.258 218.693H247.162C249.494 218.693 251.385 216.656 251.385 214.143C251.385 211.631 249.494 209.594 247.162 209.594Z" fill="#F8961F"/>
<path d="M247.162 227.383H222.258C219.926 227.383 218.035 229.42 218.035 231.932C218.035 234.445 219.926 236.482 222.258 236.482H247.162C249.494 236.482 251.385 234.445 251.385 231.932C251.385 229.42 249.494 227.383 247.162 227.383Z" fill="#F8961F"/>
<path d="M247.162 245.168H222.258C219.926 245.168 218.035 247.205 218.035 249.718C218.035 252.23 219.926 254.267 222.258 254.267H247.162C249.494 254.267 251.385 252.23 251.385 249.718C251.385 247.205 249.494 245.168 247.162 245.168Z" fill="#F8961F"/>
<path d="M271.777 125L145.708 125C143.376 125 141.485 127.037 141.485 129.55V265.45C141.485 267.963 143.376 270 145.708 270H271.777C274.109 270 276 267.963 276 265.45V129.55C276 127.037 274.109 125 271.777 125ZM267.555 260.901H149.931V167.464H267.555V260.901ZM267.555 158.365H149.931V134.099H267.555V158.365Z" fill="#F8961F"/>
<path d="M207.52 151.134H253.219C255.551 151.134 257.442 149.097 257.442 146.585C257.442 144.072 255.551 142.035 253.219 142.035H207.52C205.188 142.035 203.297 144.072 203.297 146.585C203.297 149.097 205.187 151.134 207.52 151.134Z" fill="#F8961F"/>
<path d="M165.035 151.093C167.346 151.093 169.219 149.075 169.219 146.586C169.219 144.096 167.346 142.078 165.035 142.078C162.725 142.078 160.852 144.096 160.852 146.586C160.852 149.075 162.725 151.093 165.035 151.093Z" fill="#F8961F"/>
<path d="M178.895 151.093C181.205 151.093 183.078 149.075 183.078 146.586C183.078 144.096 181.205 142.078 178.895 142.078C176.584 142.078 174.711 144.096 174.711 146.586C174.711 149.075 176.584 151.093 178.895 151.093Z" fill="#F8961F"/>
<path d="M192.755 151.093C195.066 151.093 196.939 149.075 196.939 146.586C196.939 144.096 195.066 142.078 192.755 142.078C190.444 142.078 188.571 144.096 188.571 146.586C188.571 149.075 190.444 151.093 192.755 151.093Z" fill="#F8961F"/>
</svg>
