<svg width="593" height="587" viewBox="0 0 593 587" fill="none" xmlns="http://www.w3.org/2000/svg">
<g clip-path="url(#clip0_502_1343)">
<path d="M296.507 587C460.263 587 593.013 511.149 593.013 417.581C593.013 324.014 460.263 248.163 296.507 248.163C132.751 248.163 0 324.014 0 417.581C0 511.149 132.751 587 296.507 587Z" fill="#E3E0E0"/>
<path d="M347.258 510.72C377.367 510.72 401.776 496.774 401.776 479.57C401.776 462.366 377.367 448.419 347.258 448.419C317.148 448.419 292.739 462.366 292.739 479.57C292.739 496.774 317.148 510.72 347.258 510.72Z" fill="#E0E0E0"/>
<path d="M489.088 492.283C519.197 492.283 543.606 478.336 543.606 461.132C543.606 443.928 519.197 429.981 489.088 429.981C458.978 429.981 434.569 443.928 434.569 461.132C434.569 478.336 458.978 492.283 489.088 492.283Z" fill="#E0E0E0"/>
<path d="M190.882 557.44C220.991 557.44 245.4 543.493 245.4 526.289C245.4 509.085 220.991 495.139 190.882 495.139C160.772 495.139 136.363 509.085 136.363 526.289C136.363 543.493 160.772 557.44 190.882 557.44Z" fill="#E0E0E0"/>
<path d="M101.501 423.84C101.501 423.84 100.065 390.903 86.1257 372.57C72.1733 354.25 55.0719 351.603 46.5871 356.753C40.408 360.509 41.238 371.67 51.9494 378.959C62.6608 386.248 83.3063 404.79 86.5342 416.903L101.514 423.827L101.501 423.84Z" fill="#37474F"/>
<path d="M92.3446 419.042C91.8703 419.016 91.5146 418.611 91.541 418.155C92.9771 388.269 66.4818 369.636 59.3014 366.285C58.8666 366.076 58.6822 365.568 58.893 365.15C59.1038 364.72 59.6176 364.551 60.0392 364.746C67.4304 368.202 94.7425 387.421 93.2669 418.246C93.2406 418.716 92.8453 419.081 92.3578 419.055C92.3578 419.055 92.3578 419.055 92.3446 419.055V419.042Z" fill="white"/>
<path d="M94.8741 413.448C92.9373 413.174 91.0533 412.835 89.7884 411.44C88.1679 409.666 88.2996 406.98 87.5487 404.698C86.3234 400.969 82.608 398.44 78.7345 397.644C74.861 396.849 70.8294 397.501 66.9823 398.44C59.2089 400.33 51.7386 395.597 43.9521 396.158C41.1722 396.353 38.3527 397.005 36.0602 398.596C33.7677 400.187 32.134 402.834 32.279 405.585C32.4107 407.88 33.7546 409.979 35.4937 411.518C37.2196 413.057 39.3277 414.126 41.3962 415.169C43.6755 416.316 45.9548 417.464 48.234 418.611C49.3671 419.185 50.5133 419.772 51.4093 420.645C53.0957 422.315 54.2683 425.535 53.794 427.843C53.267 430.425 51.1326 432.433 50.487 434.989C49.657 438.34 51.7255 441.926 54.703 443.738C57.6806 445.55 61.3433 445.889 64.8216 445.694C68.313 445.498 71.7649 444.807 75.2563 444.742C77.6146 444.703 80.0652 444.977 82.0546 446.202C84.492 447.702 85.915 450.401 86.8372 453.087C87.4301 454.821 87.8912 456.647 88.9716 458.12C90.1046 459.646 91.8174 460.663 93.6092 461.315C97.048 462.567 101.053 462.593 104.492 461.289C107.377 460.193 108.787 456.973 109.854 454.182C110.935 451.379 111.448 448.041 111.369 445.081C111.172 437.323 109.406 428.951 106.007 421.949C104.386 418.611 102.028 415.273 98.4709 414.113C97.3378 413.748 96.0862 413.591 94.8609 413.422L94.8741 413.448Z" fill="#455A64"/>
<path d="M102.424 449.254C102.107 449.254 101.804 449.058 101.699 448.745C93.5698 425.679 55.1116 405.611 41.0405 403.303C40.6189 403.238 40.3422 402.847 40.4081 402.43C40.474 402.013 40.8824 401.726 41.2909 401.804C55.6254 404.151 94.8478 424.662 103.148 448.237C103.293 448.628 103.082 449.071 102.674 449.202C102.595 449.228 102.503 449.241 102.424 449.241V449.254Z" fill="white"/>
<path d="M67.8517 436.632C67.6277 436.632 67.3906 436.527 67.2456 436.332C66.9821 435.993 67.048 435.523 67.3906 435.263C67.7463 435.002 76.0993 428.756 88.7606 428.469H88.7738C89.1954 428.469 89.538 428.795 89.538 429.212C89.538 429.63 89.2086 429.982 88.787 429.995C76.6263 430.269 68.405 436.41 68.326 436.475C68.1811 436.58 68.023 436.632 67.8517 436.632Z" fill="white"/>
<path d="M102.832 467.104C101.291 466.231 100.039 463.988 100.039 462.11V190.386C100.039 188.508 101.37 186.226 103.003 185.287L426.032 0.730161C427.678 -0.208664 430.248 -0.260821 431.789 0.625847C433.331 1.49948 434.582 3.74222 434.582 5.61987V277.357C434.582 279.235 433.252 281.517 431.618 282.456L108.59 467C106.943 467.939 104.374 467.991 102.832 467.104Z" fill="#455A64"/>
<path d="M108.023 467.261C108.023 467.261 107.944 467.3 107.905 467.3C107.812 467.352 107.707 467.378 107.615 467.404C107.549 467.43 107.483 467.456 107.391 467.469C107.272 467.508 107.127 467.548 106.982 467.561C106.903 467.587 106.798 467.613 106.706 467.613C106.574 467.639 106.403 467.665 106.258 467.678C105.032 467.808 103.754 467.626 102.845 467.091C101.291 466.205 100.065 463.975 100.065 462.11V225.227L105.639 228.421V465.305C105.639 466.635 106.31 467.404 107.285 467.404C107.417 467.404 107.549 467.391 107.681 467.352C107.707 467.352 107.72 467.352 107.747 467.339C107.839 467.326 107.944 467.3 108.036 467.261H108.023Z" fill="#F8961F"/>
<path opacity="0.81" d="M108.023 467.261C108.023 467.261 107.944 467.3 107.905 467.3C107.812 467.352 107.707 467.378 107.615 467.404C107.549 467.43 107.483 467.456 107.391 467.469C107.272 467.508 107.127 467.548 106.982 467.561C106.903 467.587 106.798 467.613 106.706 467.613C106.574 467.639 106.403 467.665 106.258 467.678C105.032 467.808 103.754 467.626 102.845 467.091C101.291 466.205 100.065 463.975 100.065 462.11V225.227L105.639 228.421V465.305C105.639 466.635 106.31 467.404 107.285 467.404C107.417 467.404 107.549 467.391 107.681 467.352C107.707 467.352 107.72 467.352 107.747 467.339C107.839 467.326 107.944 467.3 108.036 467.261H108.023Z" fill="#E0E0E0"/>
<path d="M105.626 228.422L100.04 225.227V277.84L105.626 281.061V228.422Z" fill="#F8961F"/>
<path opacity="0.15" d="M105.626 228.422L100.04 225.227V277.84L105.626 281.061V228.422Z" fill="black"/>
<path d="M106.482 190.673C105.942 191.586 105.612 192.629 105.612 193.568V228.409L100.026 225.214V190.386C100.026 190.269 100.026 190.152 100.039 190.034C100.065 189.786 100.105 189.539 100.158 189.304C100.303 188.691 100.566 188.052 100.895 187.479L106.469 190.673H106.482Z" fill="#263238"/>
<path d="M434.569 5.62003V21.3323L197.799 156.614C196.165 157.553 194.834 156.797 194.834 154.919V148.973C194.834 147.096 193.504 146.339 191.857 147.278L119.749 188.482C118.102 189.421 116.772 191.703 116.772 193.581V199.526C116.772 201.404 115.441 203.686 113.807 204.625L105.625 209.293V193.581C105.625 191.703 106.956 189.421 108.59 188.482L431.605 3.91189C433.239 2.97307 434.569 3.72934 434.569 5.60699V5.62003Z" fill="#37474F"/>
<path d="M434.582 277.345C434.582 279.222 433.252 281.504 431.605 282.443L108.59 467C106.956 467.939 105.625 467.183 105.625 465.305V209.293L113.807 204.625C115.441 203.686 118.102 189.421 119.749 188.482L190.645 147.97C192.292 147.031 196.165 157.566 197.799 156.628L434.569 21.3325V277.345H434.582Z" fill="#F8961F"/>
<path opacity="0.9" d="M434.582 277.345C434.582 279.222 433.252 281.504 431.605 282.443L108.59 467C106.956 467.939 105.625 467.183 105.625 465.305V209.293L113.807 204.625C115.441 203.686 118.102 189.421 119.749 188.482L190.645 147.97C192.292 147.031 196.165 157.566 197.799 156.628L434.569 21.3325V277.345H434.582Z" fill="white"/>
<g opacity="0.4">
<path d="M433.252 23.5883V277.345C433.265 278.753 432.185 280.605 430.946 281.309L107.931 465.879C107.575 466.088 107.351 466.101 107.272 466.101C106.956 466.101 106.943 465.436 106.943 465.305V210.036L114.466 205.733C115.639 205.068 116.376 202.786 118.036 196.919C118.787 194.285 119.907 190.321 120.513 189.539L190.829 149.365C191.435 150.043 192.463 151.816 193.095 152.937C194.992 156.249 196.06 157.971 197.588 157.971C197.891 157.971 198.207 157.892 198.471 157.736L433.252 23.5883ZM434.569 21.3325L197.799 156.615C197.733 156.654 197.654 156.68 197.575 156.68C195.915 156.68 192.542 147.904 190.869 147.904C190.79 147.904 190.711 147.917 190.645 147.97L119.749 188.482C118.102 189.421 115.441 203.686 113.807 204.625L105.625 209.293V465.305C105.625 466.635 106.297 467.405 107.272 467.405C107.668 467.405 108.116 467.274 108.59 467L431.605 282.443C433.252 281.504 434.582 279.222 434.582 277.345V40.4611L434.569 21.3325Z" fill="#F8961F"/>
</g>
<path d="M105.625 228.421V281.061L434.569 93.1264V40.4609L105.625 228.421Z" fill="#F8961F"/>
<path d="M434.569 21.3325V40.4611L105.625 228.422V209.293L111.739 205.785C113.372 204.847 113.926 203.425 114.703 200.687L116.772 193.568C117.43 191.09 118.102 189.408 119.749 188.469L190.645 147.956C192.292 147.018 193.583 146.913 194.834 148.961L197.377 153.524C198.313 155.115 198.774 156.054 200.407 155.115L434.569 21.3325Z" fill="#F0F0F0"/>
<path d="M420.63 15.4777C422.698 14.2911 424.372 15.256 424.372 17.6161C424.372 19.9762 422.698 22.8448 420.63 24.0314C418.561 25.2049 416.888 24.2531 416.888 21.893C416.888 19.5329 418.561 16.6642 420.63 15.4777Z" fill="#F8961F"/>
<path d="M407.178 23.1578C409.246 21.9713 410.92 22.9362 410.92 25.2963C410.92 27.6564 409.246 30.525 407.178 31.7116C405.109 32.8851 403.436 31.9332 403.436 29.5731C403.436 27.213 405.109 24.3444 407.178 23.1578Z" fill="#F8961F"/>
<path d="M393.713 30.838C395.781 29.6515 397.455 30.6164 397.455 32.9765C397.455 35.3366 395.781 38.2052 393.713 39.3918C391.644 40.5783 389.971 39.6134 389.971 37.2533C389.971 34.8932 391.644 32.0246 393.713 30.838Z" fill="#F8961F"/>
<path opacity="0.5" d="M119.249 210.662L114.585 213.322L116.363 209.932C116.521 209.632 116.534 209.267 116.403 209.11C116.271 208.954 116.034 209.058 115.876 209.358L113.346 214.183C113.346 214.183 113.346 214.183 113.346 214.196C113.32 214.248 113.293 214.313 113.28 214.378C113.28 214.404 113.267 214.417 113.254 214.443C113.228 214.522 113.228 214.613 113.228 214.691C113.228 214.769 113.228 214.848 113.254 214.9C113.254 214.913 113.267 214.926 113.28 214.939C113.293 214.978 113.32 215.017 113.346 215.043L115.876 216.973C115.942 217.025 116.034 217.025 116.126 216.973C116.231 216.908 116.337 216.79 116.403 216.621C116.534 216.308 116.521 215.956 116.363 215.839L114.585 214.483L119.249 211.823C119.459 211.705 119.617 211.353 119.617 211.04C119.617 210.727 119.446 210.571 119.249 210.688V210.662Z" fill="#455A64"/>
<path opacity="0.5" d="M123.148 208.445L127.812 205.785L126.034 204.429C125.875 204.312 125.862 203.96 125.994 203.647C126.126 203.334 126.363 203.177 126.521 203.295L129.051 205.225C129.077 205.251 129.103 205.29 129.117 205.329C129.117 205.329 129.13 205.355 129.143 205.368C129.169 205.433 129.169 205.498 129.169 205.577C129.169 205.655 129.169 205.746 129.143 205.824C129.143 205.851 129.13 205.864 129.117 205.877C129.103 205.942 129.077 205.994 129.051 206.059C129.051 206.059 129.051 206.059 129.051 206.072L126.521 210.897C126.455 211.027 126.363 211.131 126.271 211.184C126.165 211.249 126.06 211.236 125.994 211.144C125.862 210.988 125.875 210.61 126.034 210.323L127.812 206.933L123.148 209.593C122.937 209.71 122.779 209.554 122.779 209.241C122.779 208.928 122.951 208.576 123.148 208.458V208.445Z" fill="#455A64"/>
<path opacity="0.5" d="M138.458 195.145C138.431 194.871 138.181 194.898 138.062 195.211L137.417 196.762C136.323 196.645 135.006 197.701 134.11 199.566C132.95 201.991 132.95 204.846 134.11 205.955C134.69 206.502 135.44 206.516 136.205 206.072C136.969 205.642 137.72 204.768 138.299 203.556C138.444 203.243 138.444 202.891 138.299 202.747C138.155 202.604 137.917 202.747 137.772 203.047C136.916 204.846 135.506 205.655 134.637 204.833C133.78 204.012 133.78 201.874 134.637 200.061C135.256 198.77 136.139 198.014 136.903 197.962L136.415 199.122C136.297 199.422 136.415 199.709 136.6 199.579L138.497 198.353C138.629 198.262 138.734 198.027 138.708 197.831L138.431 195.132L138.458 195.145Z" fill="#455A64"/>
<path opacity="0.5" d="M188.602 156.693L190.302 153.133C190.499 152.716 190.499 152.22 190.302 152.024C190.104 151.829 189.775 152.024 189.577 152.442L187.878 156.001L186.178 154.385C185.98 154.189 185.651 154.385 185.453 154.802C185.256 155.219 185.256 155.715 185.453 155.91L187.153 157.527L185.453 161.087C185.256 161.504 185.256 161.999 185.453 162.195C185.559 162.286 185.691 162.286 185.822 162.221C185.954 162.143 186.086 161.999 186.191 161.778L187.891 158.218L189.59 159.835C189.696 159.926 189.828 159.926 189.959 159.861C190.091 159.783 190.223 159.639 190.328 159.418C190.526 159 190.526 158.505 190.328 158.309L188.629 156.693H188.602Z" fill="#455A64"/>
<path d="M144.65 199.526V193.581C144.65 191.703 145.981 189.421 147.627 188.482L414.872 35.845C416.519 34.9062 417.85 35.6625 417.85 37.5401V43.486C417.85 45.3636 416.519 47.6455 414.872 48.5843L147.614 201.222C145.967 202.16 144.637 201.404 144.637 199.526H144.65Z" fill="white"/>
<path d="M410.828 48.9233C410.748 48.9233 410.669 48.9103 410.604 48.8842C410.393 48.793 410.182 48.5452 410.235 48.128L410.538 45.6635C410.538 45.6635 410.538 45.6505 410.538 45.6375L409.339 44.7769C409.167 44.6595 409.075 44.4639 409.075 44.2162C409.075 43.8641 409.246 43.486 409.523 43.2904L411.262 41.9604C411.262 41.9604 411.354 41.8561 411.381 41.7648L412.158 39.2352C412.29 38.8179 412.593 38.518 412.936 38.505C413.173 38.4789 413.397 38.6224 413.502 38.844L414.2 40.3305L415.781 39.7307C416.018 39.6394 416.269 39.6916 416.427 39.8741C416.651 40.1219 416.651 40.5391 416.453 40.9303L415.188 43.2774C415.136 43.3686 415.123 43.4469 415.136 43.499L415.439 45.6244C415.492 46.0026 415.307 46.3677 415.096 46.5763C414.925 46.7458 414.714 46.8371 414.503 46.811L412.949 46.6154L411.434 48.6234C411.236 48.8712 411.025 48.9494 410.841 48.9494L410.828 48.9233ZM409.853 44.1901L411.051 45.0507C411.249 45.1941 411.341 45.4549 411.302 45.7548L411.051 47.7889L412.356 46.146C412.54 45.9113 412.777 45.7939 413.028 45.82L414.596 46.0156C414.596 46.0156 414.661 45.807 414.648 45.7027L414.345 43.5773C414.319 43.3556 414.372 43.1079 414.49 42.8862L415.755 40.5391L414.306 41.0868C414.003 41.2041 413.687 41.0868 413.555 40.7869L412.909 39.4177C412.909 39.4177 412.909 39.4308 412.909 39.4438L412.132 41.9734C412.053 42.2081 411.921 42.4298 411.737 42.5602L409.997 43.8902C409.918 43.9554 409.866 44.0988 409.866 44.1771L409.853 44.1901Z" fill="#E0E0E0"/>
<g opacity="0.5">
<path d="M421.354 35.128C420.999 35.128 420.656 34.9455 420.458 34.6195C420.169 34.137 420.34 33.5112 420.841 33.2243L429.207 28.4389C429.707 28.152 430.327 28.3215 430.616 28.817C430.906 29.2995 430.735 29.9254 430.234 30.2122L421.868 34.9976C421.71 35.0889 421.526 35.128 421.354 35.128Z" fill="#455A64"/>
<path d="M421.354 39.9005C420.999 39.9005 420.656 39.7179 420.458 39.392C420.169 38.9095 420.34 38.2836 420.841 37.9968L429.207 33.2114C429.707 32.9245 430.327 33.094 430.616 33.5895C430.906 34.072 430.735 34.6978 430.234 34.9847L421.868 39.7701C421.71 39.8614 421.526 39.9005 421.354 39.9005Z" fill="#455A64"/>
<path d="M421.354 44.6856C420.999 44.6856 420.656 44.5031 420.458 44.1771C420.169 43.6947 420.34 43.0688 420.841 42.7819L429.207 37.9965C429.707 37.7097 430.327 37.8792 430.616 38.3747C430.906 38.8571 430.735 39.483 430.234 39.7699L421.868 44.5552C421.71 44.6465 421.526 44.6856 421.354 44.6856Z" fill="#455A64"/>
</g>
<path d="M105.626 209.293V228.422L100.04 225.227V206.112L105.626 209.293Z" fill="#E0E0E0"/>
<path d="M330.726 136.512L329.949 136.956L328.644 129.583L329.409 129.145L335.209 133.95L334.432 134.394L329.613 130.314L329.565 130.341L330.726 136.512ZM329.625 133.97L332.757 132.18L333.139 132.834L330.007 134.624L329.625 133.97ZM336.339 133.305L331.941 125.767L332.814 125.268L334.438 128.05L334.512 128.008C334.519 127.873 334.534 127.697 334.559 127.48C334.585 127.26 334.67 127.028 334.814 126.785C334.96 126.538 335.218 126.309 335.588 126.098C336.066 125.824 336.557 125.702 337.061 125.732C337.565 125.761 338.047 125.936 338.507 126.256C338.966 126.575 339.369 127.032 339.715 127.626C340.065 128.225 340.265 128.802 340.317 129.358C340.367 129.912 340.281 130.413 340.058 130.861C339.835 131.306 339.486 131.664 339.012 131.934C338.647 132.143 338.32 132.25 338.03 132.255C337.739 132.258 337.489 132.216 337.281 132.129C337.071 132.039 336.904 131.961 336.779 131.895L336.676 131.954L337.182 132.823L336.339 133.305ZM335.548 129.988C335.797 130.415 336.08 130.755 336.396 131.01C336.711 131.262 337.043 131.411 337.392 131.457C337.74 131.5 338.088 131.422 338.439 131.222C338.804 131.013 339.053 130.743 339.185 130.412C339.319 130.078 339.352 129.712 339.285 129.315C339.219 128.914 339.068 128.513 338.834 128.11C338.602 127.713 338.331 127.39 338.022 127.141C337.713 126.889 337.381 126.74 337.026 126.694C336.672 126.645 336.309 126.726 335.939 126.937C335.584 127.14 335.338 127.4 335.201 127.718C335.062 128.032 335.024 128.384 335.087 128.774C335.148 129.161 335.302 129.566 335.548 129.988ZM345.069 128.474C344.556 128.767 344.035 128.902 343.506 128.881C342.98 128.858 342.48 128.69 342.009 128.377C341.539 128.063 341.134 127.614 340.793 127.03C340.45 126.441 340.257 125.865 340.216 125.304C340.176 124.74 340.278 124.227 340.521 123.764C340.767 123.3 341.146 122.922 341.659 122.628C342.172 122.335 342.692 122.2 343.219 122.223C343.748 122.245 344.248 122.414 344.718 122.731C345.192 123.046 345.6 123.498 345.944 124.087C346.284 124.671 346.474 125.243 346.511 125.804C346.552 126.364 346.449 126.875 346.203 127.34C345.96 127.802 345.582 128.18 345.069 128.474ZM344.614 127.693C345.004 127.47 345.266 127.188 345.402 126.845C345.538 126.503 345.571 126.135 345.503 125.742C345.435 125.349 345.291 124.964 345.071 124.586C344.85 124.208 344.584 123.89 344.273 123.633C343.962 123.376 343.622 123.218 343.253 123.161C342.884 123.103 342.504 123.186 342.115 123.409C341.725 123.631 341.463 123.915 341.329 124.26C341.194 124.605 341.162 124.975 341.232 125.371C341.301 125.766 341.446 126.153 341.667 126.531C341.887 126.909 342.152 127.225 342.462 127.48C342.772 127.735 343.11 127.89 343.478 127.945C343.846 128 344.224 127.916 344.614 127.693ZM351.142 121.765L349.192 118.422L350.065 117.924L353.363 123.577L352.49 124.076L351.932 123.119L351.873 123.153C351.907 123.516 351.842 123.879 351.678 124.241C351.513 124.6 351.216 124.902 350.787 125.148C350.431 125.351 350.071 125.454 349.704 125.457C349.336 125.458 348.982 125.346 348.641 125.122C348.298 124.896 347.987 124.542 347.706 124.061L345.61 120.469L346.484 119.97L348.545 123.504C348.785 123.916 349.093 124.178 349.468 124.291C349.846 124.403 350.216 124.355 350.578 124.148C350.795 124.024 350.984 123.842 351.144 123.604C351.306 123.364 351.398 123.086 351.417 122.77C351.44 122.453 351.348 122.118 351.142 121.765ZM354.136 115.597L354.565 116.334L351.62 118.016L351.191 117.28L354.136 115.597ZM351.259 115.435L352.132 114.936L355.276 120.325C355.419 120.57 355.562 120.734 355.705 120.816C355.849 120.894 355.99 120.921 356.128 120.898C356.267 120.871 356.4 120.821 356.529 120.748C356.625 120.693 356.701 120.643 356.757 120.598C356.811 120.55 356.855 120.512 356.888 120.484L357.521 121.163C357.474 121.218 357.405 121.288 357.311 121.37C357.22 121.456 357.092 121.545 356.93 121.638C356.683 121.779 356.41 121.864 356.112 121.894C355.816 121.922 355.527 121.873 355.246 121.746C354.967 121.617 354.732 121.388 354.54 121.06L351.259 115.435ZM363.911 114.468L361.961 111.126L362.835 110.627L366.133 116.281L365.26 116.78L364.701 115.823L364.642 115.857C364.676 116.22 364.612 116.582 364.448 116.944C364.283 117.304 363.985 117.606 363.556 117.851C363.201 118.054 362.84 118.157 362.474 118.161C362.106 118.161 361.751 118.05 361.41 117.826C361.068 117.6 360.756 117.246 360.476 116.765L358.38 113.173L359.253 112.674L361.314 116.207C361.555 116.619 361.863 116.882 362.238 116.995C362.615 117.106 362.985 117.059 363.348 116.851C363.565 116.727 363.753 116.546 363.913 116.307C364.076 116.067 364.167 115.789 364.187 115.474C364.209 115.157 364.117 114.822 363.911 114.468ZM369.198 108.679L368.543 109.348C368.417 109.246 368.271 109.162 368.103 109.094C367.936 109.022 367.748 108.993 367.538 109.005C367.328 109.017 367.096 109.095 366.842 109.24C366.494 109.439 366.251 109.685 366.112 109.977C365.974 110.265 365.976 110.53 366.118 110.773C366.244 110.989 366.422 111.115 366.653 111.149C366.884 111.184 367.191 111.148 367.575 111.04L368.539 110.764C369.119 110.596 369.607 110.567 370.004 110.678C370.399 110.786 370.712 111.037 370.942 111.432C371.131 111.756 371.206 112.099 371.168 112.462C371.132 112.823 370.99 113.172 370.743 113.509C370.496 113.847 370.151 114.142 369.71 114.394C369.13 114.725 368.578 114.874 368.052 114.841C367.526 114.808 367.072 114.579 366.69 114.156L367.399 113.477C367.655 113.736 367.938 113.879 368.246 113.905C368.557 113.931 368.891 113.841 369.249 113.637C369.656 113.404 369.929 113.134 370.068 112.825C370.208 112.513 370.207 112.235 370.065 111.992C369.951 111.796 369.786 111.671 369.57 111.617C369.353 111.561 369.083 111.582 368.758 111.679L367.682 112C367.09 112.174 366.596 112.203 366.202 112.084C365.808 111.962 365.498 111.706 365.27 111.316C365.084 110.997 365.01 110.664 365.047 110.315C365.086 109.966 365.221 109.631 365.453 109.312C365.687 108.992 366.004 108.718 366.404 108.49C366.966 108.168 367.479 108.039 367.943 108.101C368.409 108.162 368.828 108.354 369.198 108.679Z" fill="#455A64"/>
<path opacity="0.1" d="M119.894 293.474L210.868 241.487V388.269L119.63 440.1L119.894 293.474Z" fill="#F8961F"/>
<path opacity="0.15" d="M230.921 232.724L340.67 170.019C342.87 168.754 344.662 169.719 344.662 172.157C344.662 174.595 342.883 177.607 340.683 178.872L230.908 242.295C228.707 243.56 226.929 242.556 226.929 240.026V239.57C226.929 237.053 228.721 233.989 230.921 232.724Z" fill="#F8961F"/>
<path opacity="0.1" d="M229.775 251.736L411.381 147.97C412.962 147.07 414.24 147.709 414.227 149.404C414.227 151.099 412.949 153.198 411.368 154.098L229.761 257.864C228.18 258.764 226.902 258.125 226.902 256.43C226.902 254.735 228.18 252.648 229.761 251.736H229.775Z" fill="#F8961F"/>
<path opacity="0.1" d="M229.775 264.006L411.381 160.24C412.962 159.34 414.24 159.979 414.227 161.674C414.227 163.369 412.949 165.468 411.368 166.368L229.761 270.134C228.18 271.034 226.902 270.395 226.902 268.7C226.902 267.005 228.18 264.919 229.761 264.006H229.775Z" fill="#F8961F"/>
<path opacity="0.1" d="M229.775 276.288L411.381 172.522C412.962 171.623 414.24 172.262 414.227 173.957C414.227 175.652 412.949 177.738 411.368 178.651L229.761 282.417C228.18 283.317 226.902 282.678 226.902 280.983C226.902 279.288 228.18 277.201 229.761 276.288H229.775Z" fill="#F8961F"/>
<path opacity="0.1" d="M229.775 288.572L411.381 184.805C412.962 183.906 414.24 184.545 414.227 186.24C414.227 187.935 412.949 190.034 411.368 190.934L229.761 294.7C228.18 295.6 226.902 294.961 226.902 293.266C226.902 291.571 228.18 289.484 229.761 288.572H229.775Z" fill="#F8961F"/>
<path opacity="0.1" d="M229.775 300.842L356.48 227.861C358.061 226.961 359.326 227.6 359.326 229.295C359.326 230.991 358.048 233.077 356.467 233.99L229.761 306.97C228.18 307.87 226.902 307.231 226.902 305.536C226.902 303.841 228.18 301.754 229.761 300.842H229.775Z" fill="#F8961F"/>
<path opacity="0.1" d="M229.775 325.408L411.381 221.641C412.962 220.742 414.24 221.381 414.227 223.076C414.227 224.771 412.949 226.87 411.368 227.77L229.761 331.536C228.18 332.436 226.902 331.797 226.902 330.102C226.902 328.407 228.18 326.32 229.761 325.408H229.775Z" fill="#F8961F"/>
<path opacity="0.1" d="M229.775 337.677L411.381 233.911C412.962 233.011 414.24 233.65 414.227 235.345C414.227 237.04 412.949 239.14 411.368 240.039L229.761 343.806C228.18 344.705 226.902 344.066 226.902 342.371C226.902 340.676 228.18 338.59 229.761 337.677H229.775Z" fill="#F8961F"/>
<path opacity="0.1" d="M229.775 349.96L411.381 246.194C412.962 245.294 414.24 245.933 414.227 247.628C414.227 249.324 412.949 251.41 411.368 252.323L229.761 356.089C228.18 356.988 226.902 356.35 226.902 354.654C226.902 352.959 228.18 350.873 229.761 349.96H229.775Z" fill="#F8961F"/>
<path opacity="0.1" d="M229.775 362.243L296.493 323.699C298.074 322.799 299.339 323.438 299.339 325.133C299.339 326.828 298.061 328.915 296.48 329.827L229.761 368.371C228.18 369.271 226.902 368.632 226.902 366.937C226.902 365.242 228.18 363.156 229.761 362.243H229.775Z" fill="#F8961F"/>
<path d="M472.461 291.766C482.118 260.759 491.512 240.326 481.933 234.002C473.014 235.632 469.022 240 467.125 251.631C465.135 263.836 461.011 280.826 458.6 290.645C456.677 298.481 452.922 308.326 449.707 314.324C449.141 315.38 448.179 316.189 447.072 316.619C444.094 317.766 442.672 319.279 440.247 320.987C438.35 322.33 436.954 322.487 437.033 323.047C437.138 323.778 438.008 325.081 440.01 324.86C441.025 324.755 442.421 324.234 444.16 323.543C444.16 323.543 442.408 328.211 438.956 331.053C434.292 334.913 434.99 338.786 442.5 339.229C445.188 339.385 451.433 336.96 457.204 327.22C458.864 324.416 460.801 319.814 462.355 315.993C466.4 306.018 470.524 297.96 472.447 291.753L472.461 291.766Z" fill="#FFA8A7"/>
<path d="M483.646 233.637C483.646 233.637 476.215 233.259 471.723 238.162C467.23 243.064 461.96 272.442 461.96 272.442C461.96 272.442 466.887 279.144 479.891 276.406L483.646 233.637Z" fill="#F8961F"/>
<path opacity="0.3" d="M483.646 233.637C483.646 233.637 476.215 233.259 471.723 238.162C467.23 243.064 461.96 272.442 461.96 272.442C461.96 272.442 466.887 279.144 479.891 276.406L483.646 233.637Z" fill="#E78B1B"/>
<path d="M518.402 441.952H508.429V459.555H518.402V441.952Z" fill="#FFA8A7"/>
<path d="M483.818 441.013L473.844 441.365L473.343 422.732L483.818 422.38V441.013Z" fill="#FFA8A7"/>
<path d="M519.812 289.536C519.812 299.355 518.349 378.373 518.349 378.373C518.586 381.202 521.156 386.405 520.589 397.253C519.838 412.001 518.824 450.74 518.824 450.74C518.824 450.74 513.975 453.661 507.717 450.962C507.717 450.962 498.283 397.306 496.492 382.702C494.937 369.949 492.289 327.024 492.289 327.024L486.887 376.938C486.887 376.938 488.732 384.54 488.125 393.276C487.664 400.031 484.45 435.224 484.45 435.224C484.45 435.224 479.759 438.509 472.935 436.136C472.935 436.136 467.256 383.132 467.151 376.938C467.019 369.871 470.471 289.419 470.471 289.419L519.825 289.523L519.812 289.536Z" fill="#37474F"/>
<path d="M508.428 454.482V453.009C507.48 453.439 505.253 462.163 501.301 465.879C498.152 468.839 493.857 472.255 492.776 475.554C491.643 478.983 498.758 480.874 501.696 480.339C505.108 479.713 511.037 477.236 512.513 474.941C514.002 472.646 514.7 469.256 515.899 467.574C517.111 465.892 519.891 464.014 520.55 462.058C520.905 460.989 520.484 458.642 519.983 456.66C519.522 454.848 519.021 452.84 518.415 453.009C518.415 453.231 518.415 454.13 518.415 454.13C517.691 454.952 515.688 455.773 513.422 455.865C511.959 455.917 508.415 455.63 508.428 454.482Z" fill="#263238"/>
<path d="M473.738 438.197C473.225 438.21 472.803 438.966 471.657 440.244C470.273 441.782 468.02 443.451 465.794 444.599C462.052 446.529 454.793 449.489 451.512 451.014C449.457 451.966 449.549 454.522 451.683 455.982C453.804 457.442 458.93 458.486 465.082 457.064C468.429 456.295 472.803 453.1 475.557 453.27C478.323 453.439 483.488 453.4 485.53 451.953C487.572 450.506 486.755 447.415 486.176 444.755C485.543 441.848 484.766 437.336 483.831 437.532V438.536C482.632 440.413 476.439 441.17 473.804 439.787L473.752 438.197H473.738Z" fill="#263238"/>
<path d="M492.289 327.037C492.289 327.037 484.318 324.716 478.402 318.822C478.402 318.822 481.077 323.999 489.048 328.81L487.348 373.378L492.289 327.024V327.037Z" fill="#263238"/>
<path d="M514.621 235.984C514.621 235.984 522.434 236.688 521.868 251.41L520.142 274.854L520.194 310.034C512.856 318.262 480.34 317.662 469.207 309.369C469.207 309.369 470.471 267.735 471.222 251.71C471.763 240.313 474.411 234.589 485.715 233.324L499.628 233.924L514.621 235.958V235.984Z" fill="#F8961F"/>
<path opacity="0.3" d="M492.447 243.704L490.656 256.065L486.492 255.987L491.196 256.717L492.447 243.704Z" fill="black"/>
<path d="M502.855 202.812C502.855 211.262 496.202 218.12 488.007 218.12C479.812 218.12 473.527 211.262 473.159 202.812C472.5 187.856 479.812 187.504 488.007 187.504C496.202 187.504 502.855 194.363 502.855 202.812Z" fill="#263238"/>
<path d="M511.314 210.401C511.314 210.401 509.035 221.433 508.126 223.245C507.217 225.057 505.319 225.579 505.319 225.579L505.477 217.821L511.314 210.414V210.401Z" fill="#263238"/>
<path d="M508.455 194.598C508.455 194.598 510.089 194.194 511.828 196.88C513.317 199.175 513.659 204.351 511.314 210.401L507.019 210.91L508.455 194.598Z" fill="#263238"/>
<path d="M505.741 210.923C506.597 211.458 507.822 209.75 508.89 208.602C509.957 207.455 513.409 205.89 515.148 209.645C516.913 213.466 513.619 218.525 510.892 219.412C506.189 220.937 505.49 217.821 505.49 217.821L505.135 235.293C498.89 244.838 484.766 244.499 489.852 234.837V229.517C489.852 229.517 485.609 230.182 483.527 229.856C480.076 229.308 477.902 226.492 476.848 222.632C475.161 216.439 474.529 211.432 475.952 199.253C477.52 185.901 492.579 185.757 500.721 191.038C508.85 196.319 505.754 210.91 505.754 210.91L505.741 210.923Z" fill="#FFA8A7"/>
<path d="M505.201 231.368C505.201 231.368 503.001 236.062 499.088 238.944C495.491 241.591 491.696 242.047 491.696 242.047C491.696 242.047 495.359 244.447 496.914 247.837C498.468 251.24 509.443 241.878 509.351 235.254C509.351 235.254 507.625 228.591 505.267 228.161L505.201 231.355V231.368Z" fill="#E78B1B"/>
<path d="M491.709 242.061C491.709 242.061 488.323 240.392 489.838 234.824V229.504L488.363 229.7C487.203 230.73 485.385 233.155 484.792 235.815C484.45 237.34 483.62 245.047 485.109 246.585C486.466 247.981 488.666 242.465 491.696 242.048L491.709 242.061Z" fill="#E78B1B"/>
<path d="M499.97 196.358C500.365 196.306 500.774 196.28 501.13 196.436C502.408 197.01 502.684 200.935 502.908 202.069C503.659 205.89 504.292 212.37 505.741 212.409C506.176 212.409 507.823 209.606 508.89 208.602C510.379 207.207 508.455 194.611 508.455 194.611C508.455 194.611 509.878 191.481 507.019 188.235C504.344 185.21 500.155 184.532 496.321 184.323C491.802 184.075 487.217 184.414 482.763 183.436C481.354 183.123 479.957 182.68 478.521 182.537C478.389 182.524 478.244 182.51 478.139 182.602C477.994 182.719 478.02 182.941 478.047 183.123C478.323 184.44 478.798 185.718 479.456 186.905C476.808 186.696 474.186 186.188 471.644 185.379C471.499 185.327 471.341 185.288 471.196 185.327C470.893 185.418 470.84 185.809 470.866 186.122C471.051 189.291 472.566 194.05 475.161 195.915C477.19 197.375 480.366 198.262 482.869 198.327C489.852 198.51 494.186 197.049 499.97 196.371V196.358Z" fill="#263238"/>
<path d="M508.455 195.263L513.659 192.381C512.921 190.842 511.156 190.243 509.72 191.038C508.284 191.833 507.717 193.724 508.455 195.263Z" fill="#263238"/>
<path d="M489.852 229.504C489.852 229.504 497.572 227.9 500.26 226.427C502.065 225.436 503.554 223.727 503.989 222.619C503.989 222.619 503.488 224.979 501.867 227.105C499.891 229.699 489.852 231.616 489.852 231.616V229.504Z" fill="#F28F8F"/>
<path d="M491.709 208.928C491.709 209.841 492.408 210.584 493.251 210.584C494.107 210.584 494.792 209.841 494.792 208.928C494.792 208.015 494.094 207.272 493.251 207.272C492.395 207.272 491.709 208.015 491.709 208.928Z" fill="#263238"/>
<path d="M494.187 202.33L497.493 204.208C497.981 203.23 497.638 202.017 496.729 201.495C495.82 200.974 494.674 201.352 494.187 202.33Z" fill="#263238"/>
<path d="M490.55 219.933L487.019 221.302C487.375 222.345 488.442 222.88 489.417 222.502C490.392 222.124 490.893 220.976 490.55 219.933Z" fill="#F28F8F"/>
<path d="M477.52 203.738L480.537 201.339C479.918 200.452 478.745 200.27 477.915 200.922C477.085 201.587 476.901 202.839 477.52 203.725V203.738Z" fill="#263238"/>
<path d="M478.851 208.471C478.851 209.384 479.549 210.127 480.392 210.127C481.248 210.127 481.934 209.384 481.934 208.471C481.934 207.559 481.235 206.815 480.392 206.815C479.536 206.815 478.851 207.559 478.851 208.471Z" fill="#263238"/>
<path d="M487.124 207.194L486.94 216.856L481.393 215.604L487.124 207.194Z" fill="#F28F8F"/>
<path d="M529.798 216.908C532.025 213.987 536.531 220.467 538.613 224.94C540.694 229.412 540.721 231.942 539.021 233.715C537.321 235.489 534.08 234.419 530.853 230.182C527.625 225.944 528.52 219.059 529.798 216.908Z" fill="#F8961F"/>
<path opacity="0.5" d="M529.798 216.908C532.025 213.987 536.531 220.467 538.613 224.94C540.694 229.412 540.721 231.942 539.021 233.715C537.321 235.489 534.08 234.419 530.853 230.182C527.625 225.944 528.52 219.059 529.798 216.908Z" fill="black"/>
<path d="M545.464 217.781C537.611 236.088 526.557 246.324 521.617 258.073C515.135 257.642 510.102 242.165 514.924 235.554C514.924 235.554 533.87 215.252 535.595 207.272C537.124 200.191 539.166 188.508 538.982 182.523C538.955 181.519 538.507 180.607 537.822 179.863C535.833 177.751 535.833 176.043 534.555 173.709C533.553 171.883 532.473 171.205 532.776 170.788C533.171 170.266 534.436 169.575 536.004 170.553C536.794 171.049 537.308 171.623 538.455 172.874C538.455 172.874 538.968 169.654 537.335 166.016C535.134 161.087 535.661 158.583 542.381 160.331C546.584 161.426 549.232 164.894 549.864 174.908C550.049 177.79 550.286 183.762 549.943 187.413C549.219 195.119 548.744 203.151 547.782 209.528C547.361 212.357 546.61 215.134 545.477 217.768L545.464 217.781Z" fill="#FFA8A7"/>
<path d="M513 235.762L529.72 216.855C529.72 216.855 527.73 221.471 532.078 228.174C536.426 234.876 539.008 233.728 539.008 233.728C539.008 233.728 529.14 247.98 526.492 252.752C523.843 257.525 521.103 261.541 521.103 261.541C521.103 261.541 520.444 263.223 517.98 263.223C515.517 263.223 509.021 252.453 512.987 235.762H513Z" fill="#F8961F"/>
<path opacity="0.3" d="M513 235.762L529.72 216.855C529.72 216.855 527.73 221.471 532.078 228.174C536.426 234.876 539.008 233.728 539.008 233.728C539.008 233.728 529.14 247.98 526.492 252.752C523.843 257.525 521.103 261.541 521.103 261.541C521.103 261.541 520.444 263.223 517.98 263.223C515.517 263.223 509.021 252.453 512.987 235.762H513Z" fill="#C07112"/>
<path d="M377.428 278.257L385.307 288.623L376.848 298.22L365.953 285.611L377.428 278.257Z" fill="#F28F8F"/>
<path d="M351.684 254.682C358.548 254.995 361.816 256.051 365.413 260.237C368.917 264.331 386.98 290.149 386.98 290.149C386.98 290.149 383.805 298.963 376.849 298.207L364.214 285.311L351.684 254.669V254.682Z" fill="#455A64"/>
<path d="M318.009 469.999C317.785 471.641 317.31 473.545 317.218 478.174C317.126 483.142 316.204 484.902 316.085 488.971C315.94 493.626 316.757 495.373 318.667 497.981C320.578 500.589 325.584 502.975 327.706 498.554C329.853 494.082 329.55 491.239 328.878 486.663C328.18 481.942 328.088 479.335 327.679 475.736C327.324 472.567 326.889 470.155 326.889 470.155L318.009 469.999Z" fill="#263238"/>
<path d="M332.251 430.959L315.729 430.659C315.98 441.573 317.732 459.75 318.009 469.999C318.061 471.928 317.956 484.981 318.694 488.945C319.801 494.903 326.942 494.095 327.324 490.535C327.706 486.963 326.862 471.72 326.889 470.155C326.823 463.583 329.932 446.437 331.566 434.649C331.645 434.075 332.172 431.52 332.251 430.959Z" fill="#FFBDA7"/>
<path d="M356.532 461.497C356.532 461.497 355.676 461.549 355.544 462.24C355.386 463.062 355.347 464.353 355.004 465.696C354.53 467.56 354.135 470.651 354.411 472.176C354.701 473.702 358.219 475.971 360.617 476.375C363.028 476.779 366.414 479.126 368.298 480.886C370.604 483.038 375.584 485.072 378.983 485.046C383.001 485.02 385.794 483.729 387.125 481.591C388.509 479.374 385.926 479.204 381.328 476.257C380.287 475.592 379.102 474.836 377.771 473.976C370.498 469.281 367.837 466.752 365.781 462.058L356.532 461.51V461.497Z" fill="#263238"/>
<path d="M365.847 458.941C365.729 455.564 367.481 430.659 367.481 430.659L353.265 432.237C356.625 452.096 356.901 458.85 356.519 461.745C356.493 461.823 356.427 462.097 356.427 462.579C356.44 466.439 360.841 468.512 364.266 471.094C365.623 472.111 369.102 475.24 373.186 476.609C375.821 477.496 380.709 477.835 381.341 476.244C377.165 473.089 371.486 468.968 368.166 465.357C366.585 463.635 365.979 462.318 365.861 458.928L365.847 458.941Z" fill="#FFBDA7"/>
<path d="M319.55 318.04C311.79 334.808 319.827 393.85 319.827 393.85C319.59 396.575 316.454 401.921 315.281 413.891C313.898 428.039 317.837 465.904 317.837 465.904C317.837 465.904 321.619 468.695 327.086 466.1C327.086 466.1 337.086 410.449 338.891 396.392C340.459 384.122 343.463 357.131 343.463 357.131L352 396.327C352 396.327 349.813 403.199 349.3 408.441C348.496 416.72 356.625 458.237 356.625 458.237C356.625 458.237 360.433 460.232 365.848 458.055C365.848 458.055 369.458 404.411 370.208 394.449C371.473 377.707 366.981 325.485 363.884 315.575L319.563 318.027L319.55 318.04Z" fill="#4F4A45"/>
<path opacity="0.5" d="M319.55 318.04C311.79 334.808 319.827 393.85 319.827 393.85C319.59 396.575 316.454 401.921 315.281 413.891C313.898 428.039 317.837 465.904 317.837 465.904C317.837 465.904 321.619 468.695 327.086 466.1C327.086 466.1 337.086 410.449 338.891 396.392C340.459 384.122 343.463 357.131 343.463 357.131L352 396.327C352 396.327 349.813 403.199 349.3 408.441C348.496 416.72 356.625 458.237 356.625 458.237C356.625 458.237 360.433 460.232 365.848 458.055C365.848 458.055 369.458 404.411 370.208 394.449C371.473 377.707 366.981 325.485 363.884 315.575L319.563 318.027L319.55 318.04Z" fill="black"/>
<path opacity="0.2" d="M343.463 357.144L345.979 341.575C345.979 341.575 356.625 339.398 361.46 334.899C361.46 334.899 356.388 341.132 348.865 343.179L346.032 355.162L350.973 391.464L343.45 357.144H343.463Z" fill="black"/>
<path d="M323.529 265.974L334.082 268.699V246.624C328.259 245.124 323.529 248.449 323.529 254.056V265.974Z" fill="black"/>
<path opacity="0.6" d="M323.529 265.974L334.082 268.699V246.624C328.259 245.124 323.529 248.449 323.529 254.056V265.974Z" fill="black"/>
<path d="M344.398 249.766L340.617 249.675C329.075 249.414 319.932 239.557 320.182 227.665C320.116 214.704 330.314 204.142 342.896 204.077C355.465 204.012 365.716 214.456 365.781 227.417L365.755 228.76C365.465 240.626 355.926 250.014 344.411 249.753L344.398 249.766Z" fill="black"/>
<path opacity="0.6" d="M344.398 249.766L340.617 249.675C329.075 249.414 319.932 239.557 320.182 227.665C320.116 214.704 330.314 204.142 342.896 204.077C355.465 204.012 365.716 214.456 365.781 227.417L365.755 228.76C365.465 240.626 355.926 250.014 344.411 249.753L344.398 249.766Z" fill="black"/>
<path d="M326.73 209.514C326.309 207.897 324.675 206.985 323.081 207.48L324.095 211.34C323.884 211.079 323.634 210.857 323.331 210.688C321.908 209.866 320.143 210.427 319.365 211.939L324.504 214.939C324.767 214.404 324.872 213.83 324.846 213.27C326.295 212.683 327.139 211.066 326.73 209.514Z" fill="black"/>
<path opacity="0.6" d="M326.73 209.514C326.309 207.897 324.675 206.985 323.081 207.48L324.095 211.34C323.884 211.079 323.634 210.857 323.331 210.688C321.908 209.866 320.143 210.427 319.365 211.939L324.504 214.939C324.767 214.404 324.872 213.83 324.846 213.27C326.295 212.683 327.139 211.066 326.73 209.514Z" fill="black"/>
<path d="M332.962 255.582C332.962 255.582 325.334 256.651 322.409 257.59C326.493 267.5 320.09 282.821 320.09 282.821L326.137 301.245C321.974 309.708 318.522 313.906 317.112 320.791C320.959 328.223 348.113 335.317 365.794 321.769C365.794 321.769 365.228 302.953 362.975 291.987C368.759 280.813 367.823 277.527 366.638 273.628C363.884 264.566 358.324 261.071 351.697 254.695L347.705 254.278L332.975 255.595L332.962 255.582Z" fill="#37474F"/>
<path d="M326.836 308.625C330.117 305.3 337.073 304.349 337.073 304.349L330.696 300.75L323.542 283.668C328.509 274.228 327.837 264.879 327.837 264.879L323.74 263.901C324.241 272.937 320.104 282.834 320.104 282.834L326.151 301.258C321.988 309.721 318.536 313.919 317.126 320.804C319.761 325.889 333.318 330.818 347.271 329.084C328.562 327.845 323.7 311.859 326.849 308.652L326.836 308.625Z" fill="#263238"/>
<path d="M345.729 329.215C345.979 329.189 346.242 329.163 346.493 329.136C346.282 329.136 346.032 329.163 345.729 329.215Z" fill="#E6E6E6"/>
<path d="M357.296 215.656C359.563 217.716 362.395 222.188 362.171 235.267C361.974 246.35 358.509 249.101 356.769 249.897C355.03 250.692 351.644 250.236 348.364 249.688L348.324 254.278C348.324 254.278 352.646 259.024 352.382 262.075C352.119 265.127 346.229 266.391 341.974 263.431C337.718 260.472 334.095 255.543 334.095 255.543L334.056 241.604C334.056 241.604 332.132 243.547 328.851 240.613C326.137 238.188 325.202 234.093 327.297 231.877C329.391 229.66 333.291 230.247 334.793 233.376C334.793 233.376 342.277 232.763 349.181 229.19C355.294 226.022 357.744 220.298 357.31 215.656H357.296Z" fill="#FFBDA7"/>
<path d="M348.35 232.724C348.39 233.519 347.823 234.197 347.086 234.236C346.335 234.276 345.702 233.663 345.663 232.867C345.623 232.072 346.19 231.394 346.941 231.355C347.692 231.316 348.324 231.929 348.364 232.724H348.35Z" fill="#263238"/>
<path d="M348.864 242.008L352.382 243.143C352.092 244.186 351.078 244.773 350.103 244.46C349.128 244.147 348.574 243.051 348.864 242.008Z" fill="#F79776"/>
<path d="M361.025 227.717L357.836 226.635C358.074 225.722 358.983 225.227 359.865 225.513C360.748 225.813 361.262 226.791 361.025 227.704V227.717Z" fill="#263238"/>
<path d="M334.793 232.059L334.754 236.74C336.019 236.805 337.046 235.801 337.06 234.497C337.06 233.206 336.058 232.111 334.793 232.046V232.059Z" fill="black"/>
<path opacity="0.6" d="M334.793 232.059L334.754 236.74C336.019 236.805 337.046 235.801 337.06 234.497C337.06 233.206 336.058 232.111 334.793 232.046V232.059Z" fill="black"/>
<path d="M359.918 232.268C359.958 233.063 359.391 233.741 358.64 233.78C357.889 233.82 357.257 233.207 357.217 232.411C357.178 231.616 357.744 230.938 358.482 230.899C359.233 230.86 359.865 231.472 359.905 232.268H359.918Z" fill="#263238"/>
<path d="M352.409 230.364L352.382 239.439L356.651 238.057L352.409 230.364Z" fill="#F79776"/>
<path d="M348.364 249.675C344.912 249.232 337.784 247.158 336.664 244.264C336.664 244.264 337.046 246.089 339.181 247.954C341.315 249.818 348.35 251.918 348.35 251.918V249.688L348.364 249.675Z" fill="#F79776"/>
<path d="M306.203 301.962C306.203 301.962 314.662 313.854 316.111 315.406C317.56 316.958 318.549 316.449 320.13 315.758C321.697 315.067 324.688 314.18 326.006 313.854C328.588 313.215 329.141 315.575 326.585 317.27C324.741 318.483 322.62 319.018 323.502 320.022C324.385 321.026 327.126 322.773 329.668 323.764C335.913 326.202 335.426 327.428 334.28 329.423C333.278 331.17 330.367 334.926 319.207 330.479C314.596 328.654 308.114 323.451 305.057 320.1C300.644 315.262 293.766 306.591 293.766 306.591L306.217 301.975L306.203 301.962Z" fill="#FFBDA7"/>
<path d="M324.043 257.16C320.986 257.368 315.229 258.085 308.009 269.951C301.671 280.356 291.869 294.478 290.038 299.524C289.3 301.558 292.172 305.809 295.874 310.151C300.933 309.929 305.532 306.474 307.916 303.71C306.81 301.18 305.584 299.524 305.584 299.524L320.393 282.808C320.393 282.808 326.019 277.709 327.192 271.033C328.456 263.888 328.061 258.216 324.043 257.16Z" fill="#455A64"/>
<path d="M406.954 279.666L370.446 289.184L360.393 330.075L395.11 320.1L406.954 279.666Z" fill="#F8961F"/>
<path opacity="0.25" d="M406.954 279.666L370.446 289.184L360.393 330.075L395.11 320.1L406.954 279.666Z" fill="#F8961F"/>
<g opacity="0.1">
<path d="M390.458 308.625C390.801 309.538 393.041 312.863 397.283 312.668L397.547 311.768L390.458 308.639V308.625Z" fill="black"/>
</g>
<g opacity="0.1">
<path d="M395.953 286.159C395.953 286.159 396.085 285.546 396.256 284.777C396.427 284.02 394.28 283.981 391.473 284.698L386.098 286.081C383.292 286.798 380.881 287.997 380.709 288.767L380.406 290.149L395.966 286.159H395.953Z" fill="black"/>
</g>
<path d="M398.759 280.982C398.865 280.513 397.995 280.383 396.823 280.709L394.688 281.295C394.688 281.295 395.321 278.309 390.591 279.352C385.861 280.396 384.833 283.773 384.833 283.773C384.833 283.773 383.819 284.06 382.554 284.412C381.289 284.764 380.156 285.429 380.011 285.911L379.748 286.772L398.562 281.869C398.562 281.869 398.654 281.465 398.759 280.982Z" fill="#37474F"/>
<path d="M396.163 282.456C394.437 282.873 393.726 283.095 393.462 284.269C393.173 285.612 393.054 286.589 393.054 286.589L384.727 288.767C384.727 288.767 385.136 287.072 385.254 286.407C385.386 285.742 385.096 285.351 383.779 285.69L383.66 285.168L396.704 281.882L396.15 282.456H396.163Z" fill="#37474F"/>
<path d="M396.453 286.289C396.453 286.289 396.585 285.676 396.756 284.907C396.928 284.151 394.78 284.112 391.974 284.829L386.598 286.211C383.792 286.928 381.381 288.128 381.21 288.897L380.907 290.279L396.467 286.289H396.453Z" fill="#37474F"/>
<path d="M403.107 292.796C403.107 292.796 401.737 297.425 401.434 298.52C401.118 299.615 397.033 301.597 394.346 302.328C391.658 303.058 388.72 303.918 389.998 307.635C391.17 311.064 395.584 311.846 397.837 311.742C400.09 311.651 403.16 309.512 404.372 306.096C405.913 301.728 405.083 297.047 405.703 294.491C406.322 291.935 404.464 291.27 403.107 292.783V292.796Z" fill="#FFBDA7"/>
<path d="M264.807 293.878C259.801 288.884 258.009 290.827 257.376 296.303C256.915 300.345 255.703 302.992 255.703 302.992C255.347 301.297 255.202 300.528 254.768 299.694C253.898 298.024 252.422 297.985 251.79 298.246C251.303 298.455 251.909 299.615 251.83 301.728C251.737 304.44 250.841 305.952 251.487 308.834C251.724 309.916 251.527 311.038 251 312.016C248.299 316.957 239.682 326.124 233.608 332.709C228.233 327.91 216.23 317.166 210.473 312.042C202.581 305 200.012 301.832 192.383 302.354C192.383 302.354 195.335 303.24 198.879 306.2C202.41 309.16 201.566 326.098 201.566 326.098C201.566 326.098 227.811 344.731 230.512 346.504C230.907 346.765 231.316 347 231.711 347.208C234.346 348.591 237.614 347.939 239.577 345.709C245.176 339.372 253.345 326.893 258.061 320.413C260.275 317.375 262.422 313.215 263.766 310.581C268.457 301.428 267.943 297.007 264.807 293.878Z" fill="#914F4E"/>
<path d="M193.147 301.884C193.147 301.884 198.47 300.502 203.701 304.44C208.207 307.817 227.363 325.263 227.363 325.263C227.363 325.263 227.89 334.495 218.141 340.011L194.584 323.568L193.134 301.871L193.147 301.884Z" fill="#6F4898"/>
<path opacity="0.3" d="M193.147 301.884C193.147 301.884 198.47 300.502 203.701 304.44C208.207 307.817 227.363 325.263 227.363 325.263C227.363 325.263 227.89 334.495 218.141 340.011L194.584 323.568L193.134 301.871L193.147 301.884Z" fill="#8458B3"/>
<path d="M170.434 510.499H160.46V528.102H170.434V510.499Z" fill="#914F4E"/>
<path d="M195.044 509.56L205.018 509.912L205.519 491.292L195.044 490.927V509.56Z" fill="#914F4E"/>
<path d="M159.05 358.096C159.05 367.915 160.513 446.933 160.513 446.933C160.275 449.762 157.706 454.965 158.273 465.813C159.024 480.561 160.038 519.3 160.038 519.3C160.038 519.3 164.887 522.221 171.145 519.522C171.145 519.522 180.578 465.866 182.37 451.262C183.925 438.509 186.573 395.584 186.573 395.584L191.975 445.498C191.975 445.498 190.13 453.1 190.736 461.836C191.197 468.591 194.412 503.784 194.412 503.784C194.412 503.784 199.103 507.07 205.927 504.696C205.927 504.696 211.606 451.692 211.711 445.498C211.843 438.431 208.391 357.979 208.391 357.979L159.037 358.083L159.05 358.096Z" fill="#37474F"/>
<path d="M170.433 523.029V521.556C171.382 521.986 173.609 530.709 177.561 534.426C180.71 537.386 185.005 540.802 186.085 544.101C187.219 547.53 180.104 549.421 177.166 548.886C173.754 548.26 167.825 545.783 166.349 543.488C164.86 541.193 164.162 537.803 162.963 536.121C161.751 534.439 158.971 532.561 158.312 530.605C157.957 529.536 158.378 527.189 158.879 525.207C159.34 523.394 159.841 521.386 160.447 521.556C160.447 521.778 160.447 522.677 160.447 522.677C161.171 523.499 163.174 524.32 165.44 524.412C166.902 524.464 170.447 524.177 170.433 523.029Z" fill="#263238"/>
<path d="M205.124 506.743C205.638 506.756 206.059 507.513 207.205 508.791C208.589 510.329 210.842 511.998 213.068 513.146C216.81 515.076 224.07 518.035 227.35 519.561C229.405 520.513 229.313 523.069 227.179 524.529C225.058 525.989 219.933 527.032 213.78 525.611C210.433 524.842 206.059 521.647 203.306 521.817C200.539 521.986 195.374 521.947 193.332 520.5C191.29 519.052 192.107 515.962 192.686 513.302C193.319 510.394 194.096 505.883 195.032 506.078V507.082C196.23 508.96 202.423 509.716 205.058 508.334L205.11 506.743H205.124Z" fill="#263238"/>
<path d="M186.573 395.584C186.573 395.584 194.544 393.263 200.459 387.37C200.459 387.37 197.785 392.546 189.814 397.358L191.513 441.926L186.573 395.571V395.584Z" fill="#263238"/>
<path d="M164.241 304.531C164.241 304.531 156.428 305.235 156.995 319.957L158.721 343.401L158.563 378.581C165.901 386.809 198.417 386.209 209.55 377.916C209.55 377.916 208.404 336.282 207.653 320.256C207.113 308.86 204.465 303.136 193.16 301.871L179.248 302.471L164.254 304.505L164.241 304.531Z" fill="#6F4898"/>
<path opacity="0.3" d="M186.415 312.25L188.207 324.612L192.37 324.533L187.667 325.277L186.415 312.25Z" fill="black"/>
<path d="M139.485 355.071C143.53 322.864 152.845 306.865 164.188 304.974L163.385 325.576C163.385 325.576 155.756 342.775 152.581 359.674C151.092 367.602 149.366 381.384 149.814 388.164C149.893 389.364 150.434 390.485 151.264 391.32C153.503 393.576 154.175 395.532 155.677 398.087C156.85 400.082 158.062 400.786 157.759 401.269C157.351 401.882 156.033 402.729 154.281 401.712C153.398 401.204 152.344 400.16 151.04 398.817C151.04 398.817 150.71 403.785 152.673 407.788C155.335 413.2 154.887 416.068 147.535 414.465C142.924 413.46 139.604 408.649 138.365 397.422C138.009 394.189 137.97 388.96 138.141 384.839C138.589 374.108 138.681 361.525 139.485 355.084V355.071Z" fill="#914F4E"/>
<path d="M164.834 304.453C158.945 304.427 153.569 305.457 149.287 313.606C145.19 321.417 142.028 337.976 140.447 343.388C140.447 343.388 149.05 348.421 156.968 348.304L162.541 329.162C162.541 329.162 166.31 320.23 164.834 304.466V304.453Z" fill="#6F4898"/>
<path opacity="0.3" d="M164.834 304.453C158.945 304.427 153.569 305.457 149.287 313.606C145.19 321.417 142.028 337.976 140.447 343.388C140.447 343.388 149.05 348.421 156.968 348.304L162.541 329.162C162.541 329.162 166.31 320.23 164.834 304.466V304.453Z" fill="#B67CF3"/>
<path d="M176.995 271.294C176.995 279.743 183.648 286.602 191.843 286.602C200.038 286.602 206.691 279.743 206.691 271.294C206.691 262.844 200.038 255.986 191.843 255.986C183.648 255.986 176.995 262.844 176.995 271.294Z" fill="#263238"/>
<path d="M167.548 278.961C167.548 278.961 169.828 289.992 170.737 291.805C171.646 293.617 173.543 294.139 173.543 294.139L173.385 286.38L167.548 278.974V278.961Z" fill="#263238"/>
<path d="M170.407 263.158C170.407 263.158 168.773 262.754 167.034 265.44C165.545 267.735 165.203 272.911 167.548 278.961L171.843 279.47L170.407 263.158Z" fill="#263238"/>
<path d="M173.121 279.469C172.265 280.004 171.04 278.296 169.972 277.149C168.905 276.001 165.453 274.436 163.714 278.192C161.949 282.012 165.242 287.071 167.97 287.958C172.673 289.484 173.372 286.367 173.372 286.367L173.727 303.84C179.972 313.385 194.096 313.046 189.01 303.383V298.063C189.01 298.063 193.253 298.728 195.335 298.402C198.786 297.855 200.96 295.038 202.014 291.179C203.701 284.985 204.333 279.978 202.91 267.799C201.342 254.447 186.283 254.304 178.141 259.585C170.012 264.866 173.108 279.456 173.108 279.456L173.121 279.469Z" fill="#914F4E"/>
<path d="M173.661 299.928C173.661 299.928 175.862 304.623 179.775 307.504C183.372 310.151 187.166 310.608 187.166 310.608C187.166 310.608 183.503 313.007 181.949 316.41C180.394 319.813 169.419 310.451 169.511 303.827C169.511 303.827 171.237 297.164 173.596 296.734L173.661 299.928Z" fill="#263238"/>
<path d="M187.153 310.608C187.153 310.608 190.539 308.939 189.024 303.371V298.051L190.499 298.246C191.659 299.276 193.477 301.702 194.07 304.362C194.412 305.887 195.242 313.594 193.754 315.132C192.397 316.527 190.196 311.012 187.166 310.595L187.153 310.608Z" fill="#263238"/>
<path d="M173.121 280.956C172.686 280.956 171.04 278.153 169.972 277.149C168.484 275.754 170.407 263.158 170.407 263.158C170.407 263.158 168.984 260.028 171.843 256.781C173.872 254.474 177.271 254.213 183.068 253.274C185.335 252.909 187.746 252.661 189.946 252.048C192.304 251.383 194.623 249.845 196.823 248.736C197.548 248.371 198.365 247.993 199.155 248.202C199.906 248.397 200.433 249.114 200.631 249.871C200.829 250.627 200.75 251.409 200.67 252.179C202.014 250.705 204.636 250.927 206.006 252.361C207.377 253.809 207.574 256.09 206.836 257.929C206.099 259.767 204.61 261.228 202.95 262.336C195.664 267.213 187.061 265.857 178.892 264.892C178.497 264.84 178.088 264.814 177.733 264.97C176.455 265.544 176.178 269.469 175.954 270.603C175.203 274.424 174.57 280.904 173.121 280.943V280.956Z" fill="#263238"/>
<path d="M170.407 263.823L165.203 260.941C165.941 259.402 167.706 258.803 169.143 259.598C170.579 260.393 171.145 262.284 170.407 263.823Z" fill="#263238"/>
<path d="M189.01 298.063C189.01 298.063 181.29 296.46 178.602 294.986C176.797 293.995 175.308 292.287 174.874 291.179C174.874 291.179 175.374 293.539 176.995 295.664C178.971 298.259 189.01 300.176 189.01 300.176V298.063Z" fill="#783736"/>
<path d="M186.217 277.018C186.217 277.931 185.519 278.674 184.676 278.674C183.819 278.674 183.134 277.931 183.134 277.018C183.134 276.106 183.833 275.362 184.676 275.362C185.532 275.362 186.217 276.106 186.217 277.018Z" fill="#263238"/>
<path d="M183.569 270.408L180.262 272.285C179.775 271.307 180.117 270.095 181.039 269.573C181.948 269.051 183.095 269.43 183.582 270.408H183.569Z" fill="#263238"/>
<path d="M188.312 288.493L191.843 289.862C191.487 290.905 190.42 291.44 189.445 291.062C188.47 290.684 187.969 289.536 188.312 288.493Z" fill="#783736"/>
<path d="M201.672 272.233L198.193 270.551C198.589 269.547 199.695 269.117 200.657 269.573C201.619 270.029 202.067 271.229 201.672 272.22V272.233Z" fill="#263238"/>
<path d="M199.379 277.031C199.379 277.944 198.681 278.687 197.838 278.687C196.981 278.687 196.296 277.944 196.296 277.031C196.296 276.119 196.995 275.375 197.838 275.375C198.694 275.375 199.379 276.119 199.379 277.031Z" fill="#263238"/>
<path d="M190.618 275.845L190.789 285.507L196.336 284.242L190.618 275.845Z" fill="#783736"/>
<path d="M183.833 273.028C181.738 273.028 180.038 274.737 180.038 276.849C180.038 278.961 181.738 280.669 183.833 280.669H184.531C186.626 280.669 188.325 278.961 188.325 276.849C188.325 274.737 186.626 273.028 184.531 273.028H183.833ZM179.274 276.849C179.274 274.319 181.316 272.246 183.833 272.246H184.531C187.047 272.246 189.089 274.306 189.089 276.849C189.089 279.392 187.047 281.452 184.531 281.452H183.833C181.316 281.452 179.274 279.392 179.274 276.849Z" fill="#263238"/>
<path d="M197.732 273.028C195.638 273.028 193.938 274.737 193.938 276.849C193.938 278.961 195.638 280.669 197.732 280.669H198.431C200.526 280.669 202.225 278.961 202.225 276.849C202.225 274.737 200.526 273.028 198.431 273.028H197.732ZM193.174 276.849C193.174 274.319 195.216 272.246 197.732 272.246H198.431C200.947 272.246 202.989 274.306 202.989 276.849C202.989 279.392 200.947 281.452 198.431 281.452H197.732C195.216 281.452 193.174 279.392 193.174 276.849Z" fill="#263238"/>
<path d="M189.037 275.949C189.458 275.245 190.407 274.762 191.448 274.71C192.344 274.658 193.134 274.958 193.543 275.506L194.162 275.036C193.582 274.267 192.581 273.876 191.408 273.928C190.104 273.993 188.944 274.606 188.378 275.532L189.037 275.936V275.949Z" fill="#263238"/>
<path d="M179.682 275.91H171.83V276.679H179.682V275.91Z" fill="#263238"/>
</g>
<defs>
<clipPath id="clip0_502_1343">
<rect width="593" height="587" fill="white"/>
</clipPath>
</defs>
</svg>
