<svg width="396" height="358" viewBox="0 0 396 358" fill="none" xmlns="http://www.w3.org/2000/svg">
<path d="M40.7346 69.355C40.7346 148.168 0 202.289 0 240.265C0 278.242 21.7827 358 196.101 358C370.42 358 396 250.702 396 208.932C396.011 13.3306 40.7346 -70.2219 40.7346 69.355Z" fill="#F8961F" fill-opacity="0.1"/>
<path d="M279.75 114.5C270.788 114.5 263.5 107.212 263.5 98.25C263.5 89.2881 270.788 82 279.75 82C288.712 82 296 89.2881 296 98.25C296 107.212 288.712 114.5 279.75 114.5ZM279.75 94.1875C277.516 94.1875 275.688 96.0075 275.688 98.25C275.688 100.493 277.516 102.312 279.75 102.312C281.984 102.312 283.812 100.493 283.812 98.25C283.812 96.0075 281.984 94.1875 279.75 94.1875Z" fill="#F8961F"/>
<path d="M279.75 179.5C270.788 179.5 263.5 172.212 263.5 163.25C263.5 154.288 270.788 147 279.75 147C288.712 147 296 154.288 296 163.25C296 172.212 288.712 179.5 279.75 179.5ZM279.75 159.188C277.516 159.188 275.688 161.007 275.688 163.25C275.688 165.493 277.516 167.312 279.75 167.312C281.984 167.312 283.812 165.493 283.812 163.25C283.812 161.007 281.984 159.188 279.75 159.188Z" fill="#F8961F"/>
<path d="M222.875 147C213.913 147 206.625 139.712 206.625 130.75C206.625 121.788 213.913 114.5 222.875 114.5C231.837 114.5 239.125 121.788 239.125 130.75C239.125 139.712 231.837 147 222.875 147ZM222.875 126.688C220.641 126.688 218.812 128.507 218.812 130.75C218.812 132.993 220.641 134.812 222.875 134.812C225.109 134.812 226.938 132.993 226.938 130.75C226.938 128.507 225.109 126.688 222.875 126.688Z" fill="#F8961F"/>
<path d="M269.26 163.333C268.236 163.333 267.205 163.073 266.254 162.528L230.341 142.053C227.416 140.388 226.401 136.666 228.066 133.741C229.724 130.808 233.453 129.793 236.37 131.466L272.283 151.941C275.208 153.607 276.223 157.328 274.558 160.253C273.445 162.228 271.381 163.333 269.26 163.333Z" fill="#F8961F"/>
<path d="M233.364 130.832C231.243 130.832 229.18 129.727 228.066 127.761C226.401 124.836 227.416 121.115 230.341 119.449L266.254 98.9742C269.163 97.3004 272.892 98.3161 274.558 101.249C276.223 104.174 275.208 107.895 272.283 109.561L236.37 130.036C235.42 130.572 234.388 130.832 233.364 130.832Z" fill="#F8961F"/>
<path d="M273.656 277H123.344C111.018 277 101 266.982 101 254.656V120.594C101 108.268 111.018 98.25 123.344 98.25H200.775C204.139 98.25 206.869 100.98 206.869 104.344C206.869 107.707 204.139 110.437 200.775 110.437H123.344C117.746 110.437 113.188 114.996 113.188 120.594V254.656C113.188 260.254 117.746 264.812 123.344 264.812H273.656C279.254 264.812 283.812 260.254 283.812 254.656V196.237C283.812 192.874 286.542 190.144 289.906 190.144C293.27 190.144 296 192.874 296 196.237V254.656C296 266.982 285.982 277 273.656 277Z" fill="#F8961F"/>
<path d="M188.425 138.875H107.094C103.73 138.875 101 136.145 101 132.781C101 129.418 103.73 126.688 107.094 126.688H188.425C191.789 126.688 194.519 129.418 194.519 132.781C194.519 136.145 191.789 138.875 188.425 138.875Z" fill="#F8961F"/>
<path d="M212.719 240.436C211.313 240.436 209.899 239.949 208.754 238.966C206.202 236.772 205.902 232.929 208.095 230.369L216.879 220.124L208.095 209.87C205.902 207.319 206.202 203.467 208.754 201.274C211.305 199.088 215.156 199.381 217.35 201.932L229.537 216.151C231.495 218.434 231.495 221.797 229.537 224.089L217.35 238.307C216.139 239.713 214.433 240.436 212.719 240.436Z" fill="#F8961F"/>
<path d="M159.906 240.436C158.192 240.436 156.486 239.713 155.283 238.307L143.096 224.089C141.137 221.806 141.137 218.442 143.096 216.151L155.283 201.932C157.477 199.381 161.32 199.088 163.879 201.274C166.431 203.467 166.731 207.311 164.537 209.87L155.746 220.124L164.529 230.377C166.723 232.929 166.422 236.78 163.871 238.974C162.726 239.949 161.312 240.436 159.906 240.436Z" fill="#F8961F"/>
<path d="M180.227 252.625C179.764 252.625 179.309 252.576 178.846 252.463C175.572 251.707 173.524 248.441 174.28 245.158L186.467 192.346C187.231 189.063 190.546 187.008 193.772 187.78C197.046 188.535 199.094 191.801 198.338 195.084L186.151 247.896C185.501 250.724 182.998 252.625 180.227 252.625Z" fill="#F8961F"/>
</svg>
