<svg width="25" height="40" viewBox="0 0 25 40" fill="none" xmlns="http://www.w3.org/2000/svg">
<path d="M2.14648 4C2.14648 5.1046 3.04256 6 4.148 6C5.25344 6 6.14952 5.1046 6.14952 4C6.14952 2.8954 5.25344 2 4.148 2C3.04256 2 2.14648 2.8954 2.14648 4Z" stroke="white" stroke-width="4"/>
<path d="M18.1587 4C18.1587 5.1046 19.0548 6 20.1602 6C21.2656 6 22.1617 5.1046 22.1617 4C22.1617 2.8954 21.2656 2 20.1602 2C19.0548 2 18.1587 2.8954 18.1587 4Z" stroke="white" stroke-width="4"/>
<path d="M2.14648 20C2.14648 21.1046 3.04256 22 4.148 22C5.25344 22 6.14952 21.1046 6.14952 20C6.14952 18.8954 5.25344 18 4.148 18C3.04256 18 2.14648 18.8954 2.14648 20Z" stroke="white" stroke-width="4"/>
<path d="M18.1587 20C18.1587 21.1046 19.0548 22 20.1602 22C21.2656 22 22.1617 21.1046 22.1617 20C22.1617 18.8954 21.2656 18 20.1602 18C19.0548 18 18.1587 18.8954 18.1587 20Z" stroke="white" stroke-width="4"/>
<path d="M2.14648 36C2.14648 37.1046 3.04256 38 4.148 38C5.25344 38 6.14952 37.1046 6.14952 36C6.14952 34.8954 5.25344 34 4.148 34C3.04256 34 2.14648 34.8954 2.14648 36Z" stroke="white" stroke-width="4"/>
<path d="M18.1587 36C18.1587 37.1046 19.0548 38 20.1602 38C21.2656 38 22.1617 37.1046 22.1617 36C22.1617 34.8954 21.2656 34 20.1602 34C19.0548 34 18.1587 34.8954 18.1587 36Z" stroke="white" stroke-width="4"/>
</svg>
