<svg width="773" height="669" viewBox="0 0 773 669" fill="none" xmlns="http://www.w3.org/2000/svg">
<g clip-path="url(#clip0_0_8134)">
<path d="M123.795 434.433C122.5 434.663 121.713 434.394 121.434 433.627C121.3 433.263 121.079 432.956 120.772 432.706C119.477 431.613 118.335 430.284 117.346 428.721C117.125 428.376 116.809 428.232 116.396 428.289C115.408 428.433 114.664 427.968 114.165 426.894C114.107 426.769 114.016 426.731 113.891 426.779L108.666 428.951C108.206 429.143 107.865 429.469 107.644 429.93C106.397 432.548 104.592 434.711 102.232 436.418C101.79 436.735 101.531 437.166 101.454 437.713C100.562 444.619 96.992 446.417 94.0699 451.453C93.6668 452.134 93.8587 452.474 94.6456 452.474H95.2934C95.6005 452.474 95.6629 452.599 95.4805 452.848L91.2485 458.416C90.8742 458.905 90.6871 458.843 90.6871 458.229V457.51C90.6871 456.781 90.5095 456.733 90.1545 457.366C88.6958 459.936 86.5078 461.495 83.5905 462.042C82.9763 462.166 82.578 462.526 82.3957 463.121L80.2077 470.372C80.0925 470.755 79.9006 471.101 79.6319 471.408L61.9839 491.549C61.6384 491.943 61.4465 492.403 61.4081 492.931C61.2929 494.456 60.4964 495.257 59.0186 495.333" stroke="#0198F4" stroke-width="2"/>
<path d="M315.965 618.703C315.937 620.429 314.857 620.372 313.936 621.12C295.981 635.583 279.311 651.544 263.928 669" stroke="#0198F4" stroke-width="2"/>
<path d="M727.21 669C728.429 668.281 729.743 668.05 731.154 668.309C731.615 668.405 731.811 668.218 731.744 667.748C731.466 665.84 730.353 665.207 728.405 665.849C727.666 666.089 727.296 665.82 727.296 665.044V662.252C727.296 661.782 727.167 661.351 726.908 660.958L722.805 654.728C722.575 654.373 722.253 654.153 721.841 654.066C719.278 653.529 717.119 652.292 715.363 650.354C715.037 649.99 714.816 649.563 714.701 649.074C714.192 646.964 712.647 645.444 710.066 644.513C706.035 643.074 705.934 638.356 703.588 635.651C702.235 634.087 700.786 632.61 699.241 631.219C698.886 630.903 698.468 630.711 697.988 630.644C695.09 630.222 693.022 628.452 691.784 625.335C690.359 621.724 686.055 619.796 683.838 617.509C679.362 612.89 676.022 607.711 671.142 602.114C662.381 592.072 654.742 583.958 648.226 577.771C645.779 575.45 643.528 572.813 641.475 569.859C639.239 566.655 637.07 563.917 634.968 561.644C627.608 553.635 620.261 545.611 612.93 537.574C605.156 529.042 596.419 516.598 587.105 507.692C585.263 505.927 583.91 504.311 583.046 502.843C582.806 502.431 582.48 502.105 582.067 501.865C579.399 500.321 576.981 498.465 574.812 496.297C571.746 493.233 569.04 492.514 565.139 491.463C564.976 491.425 564.832 491.348 564.707 491.233C564.151 490.715 564.247 490.509 564.995 490.614C565.696 490.71 566.041 490.403 566.031 489.694C566.022 489.272 565.916 488.874 565.715 488.5" stroke="#0176EE" stroke-width="2"/>
<path d="M314.771 669C341.526 625.474 375.392 588.47 416.369 557.989C417.377 557.241 417.794 555.989 417.089 554.925" stroke="#0176EE" stroke-width="2"/>
<path d="M79.2575 0H102.39C36.2459 140.634 44.0911 301.179 123.795 434.433C122.499 434.663 121.713 434.394 121.434 433.627C121.3 433.263 121.079 432.956 120.772 432.706C119.477 431.613 118.335 430.284 117.346 428.721C117.125 428.376 116.809 428.232 116.396 428.289C115.408 428.433 114.664 427.968 114.165 426.894C114.107 426.769 114.016 426.731 113.891 426.779L108.666 428.951C108.205 429.143 107.865 429.469 107.644 429.93C106.396 432.548 104.592 434.711 102.232 436.418C101.79 436.735 101.531 437.166 101.454 437.713C100.562 444.619 96.9919 446.417 94.0697 451.453C93.6667 452.134 93.8586 452.474 94.6455 452.474H95.2933C95.6004 452.474 95.6628 452.599 95.4804 452.848L91.2484 458.416C90.8741 458.905 90.687 458.843 90.687 458.229V457.51C90.687 456.781 90.5094 456.733 90.1544 457.366C88.6957 459.936 86.5077 461.495 83.5903 462.042C82.9762 462.166 82.5779 462.526 82.3956 463.121L80.2076 470.372C80.0924 470.755 79.9005 471.101 79.6318 471.408L61.9838 491.55C61.6383 491.943 61.4464 492.403 61.408 492.931C61.2928 494.456 60.4963 495.257 59.0184 495.333C-25.1191 340.686 -17.6338 156.287 74.5504 7.16477C75.8459 5.06426 77.1991 2.23 79.2575 0Z" fill="#F9A238"/>
<rect x="-44" y="495" width="132" height="56" fill="#FFF4E7"/>
<path d="M123.795 434.433C171.845 512.507 235.902 573.93 315.965 618.703C315.937 620.429 314.857 620.372 313.936 621.12C295.981 635.583 279.312 651.544 263.928 669H208.638C148.065 623.163 94.185 562.981 59.0186 495.333C60.4964 495.257 61.2929 494.456 61.4081 492.931C61.4465 492.403 61.6384 491.943 61.9839 491.549L79.6319 471.408C79.9006 471.101 80.0925 470.755 80.2077 470.372L82.3957 463.121C82.578 462.526 82.9763 462.166 83.5905 462.042C86.5078 461.495 88.6958 459.936 90.1545 457.366C90.5096 456.733 90.6871 456.781 90.6871 457.51V458.229C90.6871 458.843 90.8742 458.905 91.2485 458.416L95.4806 452.848C95.6629 452.599 95.6005 452.474 95.2934 452.474H94.6457C93.8587 452.474 93.6668 452.134 94.0699 451.453C96.992 446.417 100.562 444.619 101.454 437.713C101.531 437.166 101.79 436.735 102.232 436.418C104.592 434.711 106.397 432.548 107.644 429.93C107.865 429.469 108.206 429.143 108.666 428.951L113.891 426.779C114.016 426.731 114.107 426.769 114.165 426.894C114.664 427.968 115.408 428.433 116.396 428.289C116.809 428.232 117.126 428.376 117.346 428.721C118.335 430.284 119.477 431.613 120.772 432.706C121.079 432.956 121.3 433.263 121.434 433.627C121.713 434.394 122.5 434.663 123.795 434.433Z" fill="#F9A238"/>
<path d="M773 486.993V669H724.5C725.79 668.279 727.183 668.048 728.677 668.308C729.165 668.404 729.373 668.216 729.302 667.745C729.008 665.832 727.828 665.198 725.765 665.842C724.982 666.082 724.591 665.813 724.591 665.034V662.237C724.591 661.765 724.454 661.333 724.179 660.939L719.834 654.694C719.59 654.339 719.25 654.118 718.812 654.031C716.098 653.493 713.811 652.252 711.951 650.31C711.606 649.945 711.372 649.517 711.25 649.027C710.711 646.912 709.075 645.388 706.34 644.456C702.071 643.013 701.965 638.283 699.479 635.572C698.046 634.005 696.511 632.525 694.875 631.131C694.499 630.813 694.057 630.621 693.548 630.554C690.479 630.131 688.288 628.357 686.977 625.232C685.467 621.613 680.909 619.68 678.561 617.387C673.819 612.758 670.282 607.567 665.113 601.957C655.833 591.891 647.742 583.758 640.84 577.557C638.248 575.23 635.864 572.586 633.689 569.625C631.321 566.414 629.023 563.669 626.797 561.391C619.001 553.363 611.22 545.321 603.454 537.264C595.221 528.713 585.966 516.239 576.101 507.312C574.15 505.543 572.717 503.923 571.802 502.452C571.548 502.039 571.202 501.712 570.765 501.472C567.939 499.924 565.378 498.063 563.08 495.891C559.833 492.819 556.966 492.098 552.835 491.045C552.662 491.007 552.509 490.93 552.377 490.814C551.788 490.295 551.889 490.089 552.682 490.194C553.424 490.29 553.79 489.983 553.78 489.271C553.77 488.848 553.658 488.449 553.444 488.074C626.477 470.856 700.287 470.798 773 486.993Z" fill="#F8961F"/>
<path d="M565.715 488.5C565.916 488.874 566.022 489.272 566.032 489.694C566.041 490.403 565.696 490.71 564.995 490.614C564.247 490.509 564.151 490.715 564.707 491.233C564.832 491.348 564.976 491.425 565.139 491.463C569.04 492.514 571.746 493.233 574.812 496.297C576.981 498.465 579.399 500.321 582.067 501.865C582.48 502.105 582.806 502.431 583.046 502.843C583.91 504.311 585.263 505.927 587.105 507.692C596.419 516.598 605.157 529.042 612.93 537.574C620.261 545.611 627.608 553.635 634.968 561.644C637.07 563.917 639.239 566.655 641.475 569.859C643.528 572.813 645.779 575.45 648.226 577.771C654.742 583.958 662.381 592.072 671.142 602.114C676.022 607.711 679.362 612.89 683.838 617.509C686.055 619.796 690.359 621.724 691.784 625.335C693.022 628.452 695.09 630.222 697.989 630.644C698.468 630.711 698.886 630.903 699.241 631.219C700.786 632.61 702.235 634.087 703.588 635.651C705.934 638.355 706.035 643.074 710.066 644.513C712.647 645.444 714.192 646.964 714.701 649.074C714.816 649.563 715.037 649.99 715.363 650.354C717.119 652.292 719.278 653.529 721.841 654.066C722.253 654.153 722.575 654.373 722.805 654.728L726.908 660.958C727.167 661.351 727.296 661.782 727.296 662.252V665.044C727.296 665.82 727.666 666.089 728.405 665.849C730.353 665.207 731.466 665.84 731.744 667.748C731.811 668.218 731.615 668.405 731.154 668.309C729.743 668.05 728.429 668.281 727.21 669H314.771C341.526 625.474 375.392 588.471 416.369 557.989C417.377 557.241 417.794 555.989 417.089 554.925C423.058 551.75 434.334 545.175 450.916 535.2C485.761 514.233 524.028 498.666 565.715 488.5Z" fill="#F8961F"/>
<path d="M417.089 554.925C417.794 555.989 417.377 557.241 416.369 557.989C375.392 588.471 341.526 625.474 314.771 669H263.928C279.311 651.544 295.981 635.584 313.936 621.12C314.857 620.372 315.937 620.429 315.965 618.703L316.642 618.645C317.083 618.597 317.472 618.439 317.808 618.171C348.709 593.655 381.802 572.573 417.089 554.925Z" fill="#ECBB81"/>
<path d="M790.854 -14.9932L108.526 -15.9129C-84.0665 382.9 164.835 573.11 313.36 618.364C534.533 457.556 723.389 467.111 790.17 491.989L790.854 -14.9932Z" fill="#F4F2E9"/>
<g clip-path="url(#clip1_0_8134)">
<path d="M426.637 527.955C475.783 527.955 515.624 505.668 515.624 478.176C515.624 450.684 475.783 428.397 426.637 428.397C377.49 428.397 337.649 450.684 337.649 478.176C337.649 505.668 377.49 527.955 426.637 527.955Z" fill="#E0E0E0"/>
<path d="M586.666 473.22C611.391 473.22 631.434 462.008 631.434 448.177C631.434 434.347 611.391 423.135 586.666 423.135C561.942 423.135 541.899 434.347 541.899 448.177C541.899 462.008 561.942 473.22 586.666 473.22Z" fill="#E0E0E0"/>
<path d="M238.175 504.408C284.979 504.408 322.921 483.18 322.921 456.995C322.921 430.81 284.979 409.583 238.175 409.583C191.372 409.583 153.43 430.81 153.43 456.995C153.43 483.18 191.372 504.408 238.175 504.408Z" fill="#E0E0E0"/>
<path d="M564.12 453.84C552.13 441.478 545.092 391.181 556.779 381.374H616.274C627.961 391.169 620.935 441.454 608.945 453.828C608.84 453.946 608.724 454.052 608.619 454.17C608.479 454.311 608.339 454.441 608.211 454.582C607.873 454.912 607.512 455.241 607.128 455.559C607.034 455.641 606.941 455.712 606.836 455.783C606.545 456.018 606.254 456.254 605.927 456.477C605.415 456.842 604.902 457.184 604.378 457.478C594.52 463.235 578.533 463.235 568.664 457.478C568.14 457.184 567.615 456.842 567.103 456.466C566.8 456.254 566.532 456.042 566.264 455.818C566.147 455.724 566.031 455.641 565.914 455.536C565.541 455.229 565.192 454.912 564.865 454.594C564.702 454.441 564.551 454.276 564.388 454.123C564.294 454.028 564.201 453.934 564.108 453.84H564.12Z" fill="#37474F"/>
<path d="M611.113 377.43C624.687 385.353 624.687 398.186 611.113 406.11C597.538 414.034 575.527 414.034 561.953 406.11C548.378 398.186 548.378 385.353 561.953 377.43C575.527 369.506 597.538 369.506 611.113 377.43Z" fill="#455A64"/>
<path d="M604.587 381.232C614.561 387.049 614.561 396.479 604.587 402.295C594.613 408.112 578.451 408.112 568.489 402.295C558.515 396.479 558.515 387.049 568.489 381.232C578.463 375.416 594.625 375.416 604.587 381.232Z" fill="#263238"/>
<path d="M568.478 391.228C578.452 385.412 594.613 385.412 604.576 391.228C607.349 392.841 609.318 394.737 610.542 396.762C609.307 398.775 607.337 400.682 604.576 402.295C594.602 408.111 578.44 408.111 568.478 402.295C565.704 400.682 563.735 398.775 562.512 396.762C563.747 394.748 565.716 392.841 568.478 391.228Z" fill="#F5F5F5"/>
<path d="M592.329 375.346L583.788 369.212C583.788 369.212 576.797 332.172 582.833 316.195C588.869 300.219 599.985 300.313 605.298 304.587C610.6 308.86 607.698 322.235 605.52 329.97C602.909 339.283 594.578 381.009 600.451 395.808L592.329 375.346Z" fill="#F8961F"/>
<g opacity="0.2">
<path d="M592.329 375.346L583.788 369.212C583.788 369.212 576.797 332.172 582.833 316.195C588.869 300.219 599.985 300.313 605.298 304.587C610.6 308.86 607.698 322.235 605.52 329.97C602.909 339.283 594.578 381.009 600.451 395.808L592.329 375.346Z" fill="black"/>
</g>
<path d="M590.628 371.036C590.943 370.907 591.129 370.566 591.059 370.212C584.138 338.53 598.423 309.072 598.575 308.778C598.75 308.425 598.61 307.989 598.26 307.812C597.911 307.636 597.479 307.777 597.305 308.13C597.153 308.425 582.646 338.318 589.673 370.518C589.754 370.907 590.139 371.154 590.523 371.072C590.558 371.072 590.605 371.048 590.64 371.036H590.628Z" fill="white"/>
<path d="M588.67 365.703C588.67 365.703 587.715 362.783 591.956 362.053C596.198 361.312 597.829 357.744 598.225 351.763C598.621 345.782 600.404 341.497 605.729 340.614C611.054 339.731 615.33 342.439 618.791 339.742C622.252 337.046 631.177 330.547 638.623 333.502C646.069 336.469 643.622 342.886 639.753 347.054C635.885 351.222 634.766 352.623 637.726 359.393C640.685 366.162 638.53 372.485 631.69 374.074C624.838 375.652 621.017 374.851 620.912 382.433C620.818 389.215 619.455 395.561 612.441 398.128C606.929 400.141 600.917 400.741 595.114 399.858C593.273 399.576 591.152 398.999 589.801 397.621C588.379 396.173 588.682 394.572 588.682 392.676V365.703H588.67Z" fill="#F8961F"/>
<g opacity="0.1">
<path d="M588.67 365.703C588.67 365.703 587.715 362.783 591.956 362.053C596.198 361.312 597.829 357.744 598.225 351.763C598.621 345.782 600.404 341.497 605.729 340.614C611.054 339.731 615.33 342.439 618.791 339.742C622.252 337.046 631.177 330.547 638.623 333.502C646.069 336.469 643.622 342.886 639.753 347.054C635.885 351.222 634.766 352.623 637.726 359.393C640.685 366.162 638.53 372.485 631.69 374.074C624.838 375.652 621.017 374.851 620.912 382.433C620.818 389.215 619.455 395.561 612.441 398.128C606.929 400.141 600.917 400.741 595.114 399.858C593.273 399.576 591.152 398.999 589.801 397.621C588.379 396.173 588.682 394.572 588.682 392.676V365.703H588.67Z" fill="black"/>
</g>
<path d="M588.67 396.974C588.915 396.974 589.148 396.821 589.229 396.574C601.697 359.181 629.895 344.087 630.175 343.934C630.466 343.781 630.571 343.428 630.431 343.133C630.28 342.839 629.93 342.721 629.639 342.874C629.348 343.027 600.73 358.321 588.111 396.185C588.006 396.491 588.169 396.833 588.484 396.939C588.542 396.962 588.612 396.974 588.67 396.974Z" fill="white"/>
<path d="M606.544 364.384C606.544 364.384 606.638 364.385 606.673 364.373C614.806 362.489 627.833 363.513 627.961 363.513C628.287 363.537 628.567 363.301 628.59 362.972C628.613 362.642 628.369 362.359 628.054 362.336C627.518 362.289 614.724 361.3 606.405 363.219C606.09 363.29 605.892 363.607 605.962 363.925C606.02 364.196 606.265 364.384 606.533 364.384H606.544Z" fill="white"/>
<path d="M599.915 382.351C603.632 382.351 607.582 382.104 607.826 382.092C608.153 382.068 608.397 381.786 608.374 381.456C608.351 381.126 608.083 380.867 607.745 380.903C607.652 380.903 598.563 381.468 595.021 380.903C594.694 380.856 594.403 381.068 594.345 381.397C594.298 381.727 594.508 382.021 594.834 382.08C596.093 382.28 597.969 382.351 599.903 382.351H599.915Z" fill="white"/>
<path d="M610.366 359.993C610.366 359.993 610.389 359.993 610.401 359.993C610.727 359.981 610.972 359.699 610.96 359.369C610.599 352.776 608.432 347.089 608.339 346.854C608.222 346.548 607.884 346.395 607.581 346.512C607.278 346.63 607.127 346.972 607.243 347.278C607.267 347.337 609.434 353.035 609.784 359.428C609.795 359.746 610.063 359.993 610.366 359.993Z" fill="white"/>
<path d="M588.449 401.024C588.449 401.024 580.747 403.932 570.377 401.695C560.006 399.446 557.489 393.042 557.489 393.042C557.489 393.042 564.877 385.283 571.414 384.847C571.414 384.847 561.265 383.116 551.768 385.271C551.768 385.271 545.767 383.034 546.898 372.909C546.898 372.909 552.549 368.753 565.553 370.377C565.553 370.377 559.039 365.727 547.608 364.361C546.711 364.361 547.923 351.175 549.018 345.288C550.114 339.401 552.269 340.319 556.942 340.826C561.614 341.332 576.319 346.242 578.067 349.621C579.815 353.011 578.09 361.583 578.09 361.583C578.09 361.583 582.367 358.015 583.31 353.718C583.31 353.718 588.123 353.918 592.236 357.45C596.349 360.982 595.161 363.207 593.821 366.704C592.387 370.448 591.082 372.791 588.414 376.57C588.414 376.57 592.795 374.981 596.955 364.432C596.955 364.432 601.266 372.497 602.024 378.289C602.781 384.082 597.351 396.326 588.426 401.048L588.449 401.024Z" fill="#F8961F"/>
<path d="M588.227 401.577C588.029 401.495 587.866 401.306 587.855 401.071C586.282 381.444 564.306 350.774 554.588 344.617C554.308 344.44 554.227 344.075 554.401 343.793C554.576 343.51 554.937 343.439 555.217 343.604C565.098 349.868 587.435 381.032 589.031 400.977C589.055 401.306 588.822 401.589 588.495 401.613C588.402 401.613 588.321 401.613 588.239 401.577H588.227Z" fill="white"/>
<path d="M238.92 498.956C237.93 498.956 237.138 498.156 237.138 497.155V381.421C237.138 380.42 237.93 379.619 238.92 379.619C239.911 379.619 240.703 380.42 240.703 381.421V497.155C240.703 498.156 239.911 498.956 238.92 498.956Z" fill="#455A64"/>
<path d="M309.788 456.831C309.078 456.831 308.413 456.395 308.134 455.688L273.014 365.856C272.653 364.926 273.096 363.89 274.016 363.525C274.925 363.16 275.962 363.607 276.324 364.537L311.443 454.37C311.804 455.3 311.361 456.336 310.441 456.701C310.231 456.783 310.01 456.831 309.788 456.831Z" fill="#455A64"/>
<path d="M305.571 446.034C305.093 446.034 304.627 445.846 304.277 445.469L238.921 375.581L173.68 445.163C173.005 445.893 171.874 445.917 171.164 445.234C170.453 444.551 170.418 443.409 171.094 442.691L237.627 371.719C237.965 371.366 238.431 371.154 238.921 371.154C239.41 371.154 239.876 371.354 240.214 371.719L306.864 442.985C307.54 443.703 307.505 444.845 306.794 445.528C306.444 445.858 306.013 446.022 305.571 446.022V446.034Z" fill="#455A64"/>
<path d="M168.052 456.831C167.831 456.831 167.609 456.795 167.4 456.701C166.479 456.336 166.036 455.288 166.398 454.37L201.517 364.537C201.878 363.607 202.915 363.16 203.824 363.525C204.745 363.89 205.188 364.938 204.826 365.856L169.707 455.688C169.427 456.395 168.763 456.831 168.052 456.831Z" fill="#455A64"/>
<path d="M307.365 443.256L312.014 455.641C312.037 455.747 312.061 455.853 312.061 455.959C312.061 456.03 312.061 456.112 312.061 456.183C312.014 456.442 311.7 456.76 311.362 456.96C310.581 457.419 309.311 457.419 308.53 456.96C308.251 456.795 308.064 456.583 307.983 456.371C307.983 456.371 307.983 456.36 307.983 456.348L307.948 456.183L303.648 444.574L307.388 443.256H307.365Z" fill="#F8961F"/>
<path d="M170.476 443.256L165.827 455.641C165.804 455.747 165.78 455.853 165.78 455.959C165.78 456.03 165.78 456.112 165.78 456.183C165.827 456.442 166.141 456.76 166.479 456.96C167.26 457.419 168.53 457.419 169.311 456.96C169.591 456.795 169.777 456.583 169.859 456.371C169.859 456.371 169.859 456.36 169.859 456.348L169.893 456.183L174.205 444.574L170.464 443.256H170.476Z" fill="#F8961F"/>
<path d="M240.971 488.195V498.438C240.971 498.744 240.773 499.051 240.365 499.286C239.561 499.757 238.268 499.757 237.464 499.286C237.068 499.051 236.858 498.744 236.858 498.438V488.195C238.233 487.501 239.596 487.501 240.971 488.195Z" fill="#F8961F"/>
<path d="M311.956 364.537C311.956 361.582 309.393 358.439 303.974 354.883C293.965 348.314 271.593 335.139 257.576 327.298C257.552 327.192 257.459 327.18 257.459 327.18C246.681 320.563 236.625 289.081 229.156 265.157C226.616 256.998 223.493 252.382 219.811 250.216C218.937 249.698 215.71 247.908 214.987 247.461C207.67 243.022 198.057 248.356 186.09 254.973C175.067 261.071 166.445 268.877 164.72 289.587C163.66 302.196 164.674 326.297 167.202 344.57V344.558C170.872 375.075 175.382 375.122 181.919 380.232C193.175 389.015 218.53 401.377 229.215 405.616C248.592 413.315 264.427 401.436 276.231 395.549C288.034 389.662 302.541 380.467 307.517 376.829C310.476 374.663 312.003 372.473 311.968 370.154C311.956 369.235 311.968 365.479 311.968 364.526L311.956 364.537Z" fill="#263238"/>
<path d="M276.219 389.886C288.022 383.999 302.529 374.804 307.505 371.166C314.216 366.233 313.599 361.194 303.974 354.883C296.797 350.185 297.169 349.762 243.104 319.739C243.104 319.739 174.193 360.829 177.153 368.423C180.112 376.005 215.756 394.607 229.191 399.952C248.568 407.652 264.404 395.773 276.207 389.886H276.219Z" fill="#37474F"/>
<path d="M219.38 249.969C212.121 246.119 202.695 251.346 191.042 257.81C183.573 261.943 177.211 266.852 173.343 276.024L168.414 273.151C172.283 264.015 178.633 259.117 186.079 254.984C198.057 248.356 207.658 243.046 214.988 247.473C215.628 247.85 218.169 249.286 219.38 249.969Z" fill="#455A64"/>
<path d="M191.042 257.822C208.963 247.909 221.594 240.88 229.168 265.169C236.625 289.093 246.681 320.575 257.471 327.192C257.471 327.192 253.975 324.201 227.164 344.676C218.634 351.186 208.276 356.532 201.483 360.617C188.153 368.647 180.078 371.861 178.796 370.789C171.746 364.891 167.936 313.158 169.672 292.448C171.408 271.738 180.019 263.932 191.042 257.834V257.822Z" fill="#37474F"/>
<g opacity="0.5">
<path d="M191.042 257.822C208.963 247.909 221.594 240.88 229.168 265.169C236.625 289.093 246.681 320.575 257.471 327.192C257.471 327.192 238.979 327.18 212.191 341.803C184.331 357.003 180.078 371.873 178.796 370.801C171.746 364.903 167.936 313.17 169.672 292.46C171.408 271.75 180.019 263.944 191.042 257.845V257.822Z" fill="#455A64"/>
</g>
<path d="M534.034 199.778C538.776 198.707 542.971 197.706 546.187 196.87C563.292 192.455 568.431 186.733 568.967 179.092C569.817 166.895 565.296 166.8 557.501 172.252C551.745 176.278 546.968 177.75 546.968 177.75C548.762 175.36 549.589 174.277 550.184 172.746C551.372 169.708 549.764 167.754 548.727 167.248C547.911 166.847 547.096 168.955 544.264 171.286C540.64 174.265 537.704 174.842 534.686 178.974C533.556 180.528 531.878 181.553 530.014 181.976C528.313 182.353 500.382 190.088 487.297 192.349C479.607 182.471 472.476 171.934 464.366 161.443C451.863 145.278 445.921 143.006 438.894 144.301L432.8 164.599C432.8 164.599 473.979 213.6 474.468 214.213C477.638 218.227 482.077 219.675 486.948 218.227C504.694 212.965 523.465 204.711 534.022 199.778H534.034Z" fill="#FFA8A7"/>
<path d="M437.275 140.216C451.898 140.863 456.233 149.152 463.725 158.335C471.217 167.518 487.577 191.089 487.577 191.089L527.462 182.648C527.462 182.648 525.808 194.233 530.981 201.203C530.981 201.203 509.821 211.987 497.004 216.944C480.807 223.219 479.747 221.795 476.81 219.075C474.026 216.497 438.335 175.736 438.335 175.736L437.275 140.216Z" fill="#37474F"/>
<path d="M272.409 167.519C276.208 155.91 280.379 155.427 285.553 163.457C289.363 169.379 293.243 172.581 293.243 172.581C292.486 169.673 292.113 168.366 292.136 166.718C292.183 163.457 294.397 162.267 295.55 162.185C296.448 162.126 296.424 164.399 298.16 167.636C300.398 171.792 302.903 173.441 304.138 178.421C304.604 180.281 305.816 184.013 307.377 185.12C315.289 190.736 329.703 197.682 344.011 203.263C349.092 192.431 355.792 178.904 360.907 169.426C370.625 151.4 377.045 149.352 384.13 150.247L391.331 170.168C391.331 170.168 352.925 221.418 352.471 222.054C349.523 226.233 343.499 229.118 338.791 227.175C325.38 221.618 315.417 211.822 304.045 204.017C297.275 199.378 290.901 195.763 286.823 192.702C272.654 182.059 270.044 174.795 272.421 167.519H272.409Z" fill="#FFA8A7"/>
<path d="M374.808 391.558C375.122 376.252 379.69 364.891 380.04 360.64C380.04 360.64 378.921 269.583 378.921 254.819L455.767 251.652C455.767 251.652 454.695 342.933 454.695 355.589C454.695 368.246 452.819 422.039 450.838 446.799L450.616 454.947L433.464 460.339C433.464 460.339 433.779 457.961 433.464 446.399C433.15 434.837 425.436 394.807 424.714 384.647C423.793 371.507 425.856 366.197 425.611 357.403C425.366 348.619 420.216 291.141 420.216 291.141C420.216 291.141 410.591 347.607 408.203 366.786C405.464 388.756 396.655 446.34 396.632 459.727C396.632 462.129 396.632 464.907 396.655 467.909C396.69 475.15 396.457 477.069 397.599 479.871C399.615 484.769 382.428 487.854 381.636 484.369L379.795 469.981V469.569V460.445C379.795 446.799 374.353 413.763 374.808 391.57V391.558Z" fill="#FFA8A7"/>
<path d="M484.163 477.67C484.664 478.729 484.512 480.707 483.93 481.955C483.335 483.215 476.857 486.9 468.106 486.311C459.355 485.711 453.355 482.155 450.022 479.918C446.69 477.681 443.217 477.269 438.883 477.022C434.548 476.775 428.862 474.585 427.918 472.548C426.963 470.5 428.058 466.979 428.058 466.979L484.163 477.681V477.67Z" fill="#37474F"/>
<path d="M448.869 450.084C449.102 450.037 449.323 449.99 449.556 449.943C449.941 449.861 450.337 449.79 450.71 449.884C451.141 449.99 451.491 450.296 451.794 450.626C452.737 451.662 453.297 452.969 454.031 454.17C455.86 457.196 459.717 459.692 463.912 461.976C466.766 463.53 469.563 464.731 472.523 466.073C475.529 467.439 479.526 468.275 481.879 469.876C485.317 472.219 485.759 478.082 481.844 480.401C478.477 482.403 469.598 484.569 460.288 481.908C455.219 480.46 449.591 474.985 442.926 474.456C438.697 474.126 430.692 472.925 427.965 469.676C426.963 468.239 428.303 463.671 429.41 459.727C430.61 455.43 432.055 448.683 433.465 449.06C433.523 449.908 433.36 450.12 433.908 450.697C434.432 451.238 435.131 451.591 435.702 452.074C436.751 452.981 437.392 454.252 438.044 455.477C438.324 456.006 438.662 456.572 439.244 456.795C439.955 457.066 440.491 456.607 441.12 456.324C441.901 455.959 442.821 455.889 443.649 456.136C443.567 455.288 443.416 454.441 443.206 453.616C443.136 453.346 443.054 453.063 443.148 452.804C443.229 452.533 443.462 452.345 443.695 452.192C445.327 451.038 447.016 450.508 448.881 450.096L448.869 450.084Z" fill="#455A64"/>
<path d="M414.262 502.712C414.775 503.207 414.623 506.562 414.052 507.469C413.435 508.446 409.927 511.472 403.565 511.931C397.483 512.366 392.065 511.542 388.487 509.258C384.922 506.974 383.197 504.443 382.859 500.946C382.522 497.449 382.906 494.07 381.263 491.386C379.737 488.902 377.313 486.1 376.777 484.746C375.623 481.814 376.73 477.623 376.73 477.623L414.262 502.712Z" fill="#37474F"/>
<path d="M397.634 472.172C397.681 473.526 397.914 474.774 398.334 476.069C399.219 478.777 400.559 481.331 402.051 483.769C402.82 485.017 403.647 486.253 404.579 487.383C406.42 489.596 408.704 491.41 410.65 493.529C412.596 495.648 414.25 498.215 414.402 501.064C414.658 505.879 409.485 507.516 405.5 508.234C401.247 508.999 396.702 508.764 392.554 507.575C387.94 506.244 384.607 502.63 383.838 497.979C383.617 496.637 383.699 495.271 383.547 493.929C383.186 490.856 381.613 488.054 379.842 485.499C378.816 484.016 377.686 482.568 376.999 480.908C375.752 477.929 376.754 474.573 377.546 471.606C378.234 469.04 379.014 466.143 379.9 466.379C379.9 467.709 379.9 467.851 380.844 468.745C382.032 469.887 382.091 471.595 383.349 472.607C382.755 471.041 382.72 470.382 382.463 469.181C382.382 468.816 382.487 468.098 382.731 467.815C383.069 467.45 383.64 467.215 384.2 467.027C386.076 466.391 388.021 465.943 389.991 465.696C391.785 465.472 393.859 465.249 395.642 465.649C396.19 465.779 396.726 466.038 397.064 466.485C397.425 466.944 397.483 467.356 397.576 468.133C397.658 468.899 397.6 470.888 397.646 472.172H397.634Z" fill="#455A64"/>
<path d="M402.703 484.769C400.932 483.427 396.947 483.404 394.78 483.639C392.053 483.933 389.851 484.899 388.604 485.829C388.045 486.241 387.276 486.17 386.786 485.688C386.204 485.099 386.25 484.133 386.926 483.639C388.255 482.65 390.655 481.261 393.883 481.037C399.231 480.66 400.804 481.579 400.804 481.579C400.804 481.579 403.239 483.168 402.715 484.757L402.703 484.769Z" fill="#F5F5F5"/>
<path d="M406.781 489.702C404.544 488.372 400.174 488.56 397.996 488.796C395.269 489.09 393.241 490.173 391.983 491.103C391.424 491.515 390.655 491.445 390.165 490.962C389.583 490.373 389.629 489.408 390.305 488.914C391.633 487.925 394.185 486.335 397.413 486.1C402.761 485.723 404.159 486.818 404.159 486.818C404.159 486.818 406.42 487.701 406.781 489.691V489.702Z" fill="#F5F5F5"/>
<path d="M391.727 475.868C395.42 475.48 396.993 475.904 398.45 476.433C399.394 476.963 400.011 478.47 399.405 478.859C398.217 478.188 396.073 477.917 393.44 478.035C391.68 478.117 389.455 478.835 387.648 479.636C387.194 479.836 386.646 480.13 386.18 480.389C385.539 480.742 384.724 480.495 384.421 479.836C384.164 479.283 384.351 478.611 384.887 478.294C386.18 477.505 388.732 476.174 391.727 475.868Z" fill="#F5F5F5"/>
<path d="M459.962 459.644C459.962 459.644 459.356 458.008 456.839 457.525C454.916 457.16 451.514 458.597 449.393 460.363C448.531 461.081 448.636 462.446 449.626 463C450.209 463.329 450.931 463.235 451.432 462.8C452.819 461.575 455.93 459.362 459.973 459.644H459.962Z" fill="#F5F5F5"/>
<path d="M465.928 463.023C465.928 463.023 464.681 461.057 462.222 461.093C462.222 461.093 457.189 461.234 454.077 464.165C453.285 464.919 453.343 466.19 454.287 466.708C454.858 467.026 455.546 466.944 456.023 466.508C457.422 465.249 460.241 462.588 465.916 463.012L465.928 463.023Z" fill="#F5F5F5"/>
<path d="M472.523 466.061C472.523 466.061 471.136 464.283 468.677 464.318C468.677 464.318 463.993 464.495 460.882 467.427C460.09 468.18 460.148 469.452 461.092 469.97C461.663 470.288 462.35 470.205 462.828 469.77C464.226 468.51 466.836 465.625 472.523 466.061Z" fill="#F5F5F5"/>
<path d="M455.767 251.652C455.767 251.652 456.792 315.96 456.897 327.262C457.002 338.565 456.897 360.228 456.897 371.284C456.897 371.284 454.065 376.111 437.916 376.099C421.766 376.087 419.435 371.578 419.435 371.578L417.047 319.586L412.596 373.591C412.596 373.591 403.321 380.856 390.026 377.959C376.73 375.063 374.773 371.06 374.773 371.06L377.383 251.9L455.755 251.652H455.767Z" fill="#37474F"/>
<path d="M417.059 319.586L419.436 297.758C419.436 297.758 430.517 295.026 437.928 289.398C437.928 289.398 434.001 294.308 429.503 296.851C425.005 299.394 422.85 300.454 422.85 300.454L419.61 321.576L419.039 362.748L417.059 319.586Z" fill="#263238"/>
<path d="M376.416 262.802C386.961 270.561 434.758 279.167 456.944 262.802C456.944 262.802 456.431 200.178 454.695 167.048C454.613 165.541 454.508 164.081 454.369 162.668C454.322 162.197 454.252 161.726 454.205 161.267C453.937 159.206 453.576 157.252 453.075 155.392C452.994 155.074 452.889 154.756 452.796 154.438C452.586 153.72 452.353 153.013 452.061 152.331C451.91 151.966 451.758 151.589 451.595 151.247C451.444 150.918 451.292 150.576 451.118 150.258C451.106 150.188 451.071 150.141 451.036 150.07C450.873 149.752 450.687 149.434 450.512 149.128C450.314 148.799 450.116 148.457 449.882 148.127C449.673 147.821 449.451 147.503 449.242 147.221C448.997 146.903 448.729 146.585 448.449 146.279C448.205 145.973 447.925 145.69 447.634 145.431C447.447 145.243 447.249 145.066 447.051 144.878C446.865 144.713 446.667 144.548 446.468 144.395C446.224 144.183 445.944 143.971 445.676 143.771C444.814 143.147 443.893 142.606 442.88 142.099C442.612 141.97 442.332 141.829 442.052 141.711C441.982 141.676 441.901 141.664 441.854 141.628C441.528 141.499 441.19 141.358 440.864 141.24C440.316 141.028 439.734 140.84 439.139 140.675C438.545 140.51 437.927 140.357 437.287 140.204C436.576 140.169 435.783 140.157 434.921 140.157C434.374 140.157 433.779 140.169 433.162 140.192C432.544 140.204 431.915 140.227 431.274 140.263C422.978 140.628 411.069 141.982 401.526 143.23C400.897 143.312 400.268 143.394 399.65 143.477C399.091 143.548 398.543 143.606 398.007 143.677C391.447 144.548 386.588 145.266 385.843 145.384C385.773 145.396 385.738 145.396 385.738 145.396C383.582 145.949 381.601 146.467 379.993 146.95C375.6 148.257 378.863 147.138 377.907 151.412C375.076 163.998 378.374 209.727 378.374 209.727L376.416 262.79V262.802Z" fill="#455A64"/>
<path d="M395.514 105.813C395.514 105.813 398.928 122.002 400.291 124.651C401.654 127.312 404.486 128.065 404.486 128.065L404.253 116.68L395.525 105.813H395.514Z" fill="#263238"/>
<path d="M399.79 82.631C399.79 82.631 396.119 81.9953 393.253 84.9504C390.445 87.8467 392.018 96.9241 395.513 105.813L401.934 106.555L399.79 82.631Z" fill="#263238"/>
<path d="M403.856 106.567C402.563 107.344 400.734 104.848 399.149 103.164C397.564 101.48 392.379 99.1963 389.792 104.695C387.159 110.311 392.076 117.716 396.154 119.011C403.192 121.236 404.241 116.68 404.241 116.68L404.707 142.817C412.083 156.286 436.995 149.387 427.65 140.463L427.627 133.822C427.627 133.822 435.131 134.305 438.23 133.822C443.403 133.01 445.524 129.396 447.097 123.744C449.614 114.655 450.57 107.32 448.437 89.4478C446.095 69.8566 423.548 69.6564 411.372 77.4034C399.195 85.1505 403.845 106.567 403.845 106.567H403.856Z" fill="#FFA8A7"/>
<path d="M400.85 71.917C405.022 69.9391 409.624 68.8677 414.145 67.8787C423.98 65.7241 433.989 63.7344 442.973 59.1545C444.079 58.5893 445.268 57.9653 446.491 58.1302C448.857 58.448 449.894 61.3443 449.987 63.7579C450.069 65.9949 449.789 68.2319 449.136 70.3747C450.407 68.8441 453.017 69.056 454.427 70.4571C455.836 71.8581 456.221 74.048 455.953 76.0378C455.37 80.4882 452.003 84.1851 448.018 86.163C444.033 88.141 439.489 88.6355 435.061 88.765C428.862 88.9416 422.64 88.4707 416.546 87.3522C415.066 87.0814 413.551 86.7753 412.059 87.0225C410.58 87.2815 409.1 88.2352 408.715 89.7069C408.063 92.1793 407.387 109.004 403.961 109.074C403.32 109.086 400.897 104.848 399.324 103.341C397.343 101.445 395.339 87.0343 394.989 84.3617C394.966 84.1498 394.838 83.9732 394.721 83.7966C392.484 80.6295 395.106 75.296 397.867 73.5535C398.834 72.9413 399.836 72.3997 400.862 71.917H400.85Z" fill="#263238"/>
<path d="M395.945 84.0203C394.267 86.0101 391.307 86.2455 389.338 84.5501C387.369 82.8547 387.136 79.8642 388.814 77.8745L395.956 84.0203H395.945Z" fill="#263238"/>
<path d="M427.638 133.823C427.638 133.823 416.091 132.704 412.059 130.538C409.356 129.09 407.131 126.57 406.478 124.957C406.478 124.957 407.235 128.418 409.647 131.538C412.595 135.353 427.638 138.155 427.638 138.155V133.823Z" fill="#F28F8F"/>
<path d="M424.865 103.647C424.865 104.989 423.828 106.072 422.546 106.072C421.265 106.072 420.228 104.977 420.228 103.635C420.228 102.293 421.265 101.21 422.546 101.21C423.828 101.21 424.865 102.305 424.865 103.647Z" fill="#263238"/>
<path d="M422.407 94.8166L417.454 97.5716C416.72 96.1352 417.245 94.3574 418.608 93.5922C419.971 92.8269 421.673 93.3802 422.407 94.8166Z" fill="#263238"/>
<path d="M426.601 119.8L431.88 121.802C431.355 123.332 429.747 124.121 428.291 123.568C426.834 123.014 426.077 121.331 426.601 119.8Z" fill="#F28F8F"/>
<path d="M445.501 96.771L440.992 93.2625C441.912 91.9556 443.672 91.6848 444.918 92.6503C446.165 93.6157 446.433 95.4641 445.513 96.771H445.501Z" fill="#263238"/>
<path d="M444.115 102.987C444.115 104.33 443.078 105.413 441.796 105.413C440.514 105.413 439.477 104.318 439.477 102.976C439.477 101.633 440.514 100.55 441.796 100.55C443.078 100.55 444.115 101.645 444.115 102.987Z" fill="#263238"/>
<path d="M434.233 101.316L434.991 115.373L442.262 112.866L434.233 101.316Z" fill="#F28F8F"/>
<path d="M386.635 145.384C369.564 145.655 365.137 155.815 360.115 166.588C355.162 177.208 342.31 201.685 342.31 201.685L310.174 187.004C310.174 187.004 307.855 195.787 299.384 200.932C299.384 200.932 314.566 213.8 327.605 223.219C338.663 231.213 345.095 235.346 349.336 232.485C352.482 230.366 383.862 188.935 383.862 188.935C391.843 176.301 393.556 154.921 386.658 145.372L386.635 145.384Z" fill="#37474F"/>
<path d="M440.98 109.333L439.15 108.392L437.368 105.801C437.368 105.801 438.358 105.354 439.174 105.931C439.989 106.508 440.98 109.322 440.98 109.322V109.333Z" fill="#F8961F"/>
<path opacity="0.65" d="M440.98 109.333L439.15 108.392L437.368 105.801C437.368 105.801 438.358 105.354 439.174 105.931C439.989 106.508 440.98 109.322 440.98 109.322V109.333Z" fill="black"/>
<path d="M458.027 101.257C457.934 105.06 454.811 108.698 451.164 109.345L448.286 109.851C446.934 110.087 445.618 110.193 444.464 110.158C444.336 110.158 444.219 110.158 444.079 110.146C443.87 110.146 443.66 110.122 443.45 110.111C443.066 110.075 442.716 110.005 442.39 109.934C442.203 109.899 442.017 109.851 441.854 109.781C441.679 109.734 441.528 109.663 441.388 109.592C441.33 109.569 441.248 109.534 441.201 109.487C441.108 109.439 441.038 109.381 440.98 109.333C440.852 109.216 440.759 109.11 440.689 108.98L439.698 106.943C439.314 106.155 438.265 105.648 437.356 105.813L435.294 106.178C434.385 106.343 433.336 107.226 432.952 108.144C432.952 108.144 432.521 109.227 431.961 110.546C431.402 111.865 428.023 113.466 424.376 114.114L421.498 114.632C420.892 114.738 420.298 114.761 419.738 114.69C419.4 114.667 419.086 114.608 418.783 114.514C418.631 114.479 418.48 114.431 418.328 114.373C418.247 114.337 418.142 114.302 418.049 114.255C417.804 114.149 417.548 114.031 417.326 113.89C416.546 113.572 403.996 108.415 402.272 104.259C399.522 97.5717 410.813 90.6841 414.879 89.3772C415.357 89.2006 415.823 89.0476 416.324 88.9652L445.979 83.6788C447.575 83.3845 449.067 83.7142 450.255 84.4912C451.012 84.9857 453.809 86.6458 454.974 87.3522C455.079 87.3993 455.184 87.4699 455.277 87.5288C455.44 87.6348 455.603 87.7407 455.767 87.8585C455.813 87.8938 455.883 87.9291 455.918 87.988C456.081 88.1175 456.233 88.247 456.384 88.4C456.571 88.5884 456.734 88.7768 456.885 88.9887C457.013 89.1418 457.107 89.3066 457.2 89.4714C457.351 89.6951 457.468 89.9542 457.573 90.2014C457.654 90.4133 457.736 90.637 457.794 90.8725V90.896C457.852 91.0962 457.911 91.3081 457.934 91.5436C457.945 91.5907 457.957 91.6495 457.957 91.6966C457.992 91.9321 458.015 92.1911 458.015 92.4384C458.085 95.37 458.085 98.3134 458.015 101.257H458.027Z" fill="#F8961F"/>
<g opacity="0.2">
<path d="M458.027 101.257C457.934 105.06 454.811 108.698 451.164 109.345L448.286 109.851C446.934 110.087 445.618 110.193 444.464 110.158C444.336 110.158 444.219 110.158 444.079 110.146C443.87 110.146 443.66 110.122 443.45 110.111C443.066 110.075 442.716 110.005 442.39 109.934C442.203 109.899 442.017 109.851 441.854 109.781C441.679 109.734 441.528 109.663 441.388 109.592C441.33 109.569 441.248 109.534 441.201 109.487C441.108 109.439 441.038 109.381 440.98 109.333C440.852 109.216 440.759 109.11 440.689 108.98L439.698 106.943C439.314 106.155 438.265 105.648 437.356 105.813L435.294 106.178C434.385 106.343 433.336 107.226 432.952 108.144C432.952 108.144 432.521 109.227 431.961 110.546C431.402 111.865 428.023 113.466 424.376 114.114L421.498 114.632C420.892 114.738 420.298 114.761 419.738 114.69C419.4 114.667 419.086 114.608 418.783 114.514C418.631 114.479 418.48 114.431 418.328 114.373C418.247 114.337 418.142 114.302 418.049 114.255C417.804 114.149 417.548 114.031 417.326 113.89C416.546 113.572 403.996 108.415 402.272 104.259C399.522 97.5717 410.813 90.6841 414.879 89.3772C415.357 89.2006 415.823 89.0476 416.324 88.9652L445.979 83.6788C447.575 83.3845 449.067 83.7142 450.255 84.4912C451.012 84.9857 453.809 86.6458 454.974 87.3522C455.079 87.3993 455.184 87.4699 455.277 87.5288C455.44 87.6348 455.603 87.7407 455.767 87.8585C455.813 87.8938 455.883 87.9291 455.918 87.988C456.081 88.1175 456.233 88.247 456.384 88.4C456.571 88.5884 456.734 88.7768 456.885 88.9887C457.013 89.1418 457.107 89.3066 457.2 89.4714C457.351 89.6951 457.468 89.9542 457.573 90.2014C457.654 90.4133 457.736 90.637 457.794 90.8725V90.896C457.852 91.0962 457.911 91.3081 457.934 91.5436C457.945 91.5907 457.957 91.6495 457.957 91.6966C457.992 91.9321 458.015 92.1911 458.015 92.4384C458.085 95.37 458.085 98.3134 458.015 101.257H458.027Z" fill="black"/>
</g>
<path d="M454.998 87.3522C453.891 86.7753 452.562 86.5398 451.164 86.7988L421.509 92.0852C418.025 92.7209 415.008 96.0529 414.67 99.6674L406.164 94.6989C409.135 92.0381 412.887 90.0366 414.891 89.3772C415.369 89.2006 415.835 89.0476 416.336 88.9652L445.99 83.6788C447.587 83.3845 449.078 83.7142 450.267 84.4912C451.024 84.9857 453.821 86.6458 454.986 87.3522H454.998Z" fill="#F8961F"/>
<path opacity="0.35" d="M454.998 87.3522C453.891 86.7753 452.562 86.5398 451.164 86.7988L421.509 92.0852C418.025 92.7209 415.008 96.0529 414.67 99.6674L406.164 94.6989C409.135 92.0381 412.887 90.0366 414.891 89.3772C415.369 89.2006 415.835 89.0476 416.336 88.9652L445.99 83.6788C447.587 83.3845 449.078 83.7142 450.267 84.4912C451.024 84.9857 453.821 86.6458 454.986 87.3522H454.998Z" fill="white"/>
<path d="M458.027 92.4383C458.097 95.3699 458.097 98.3133 458.027 101.257C457.945 105.06 454.799 108.686 451.164 109.333L448.286 109.851C444.65 110.499 441.248 110.11 440.7 108.98L439.71 106.943C439.325 106.155 438.277 105.648 437.368 105.801L435.305 106.166C434.397 106.331 433.348 107.214 432.963 108.144C432.963 108.144 432.521 109.216 431.973 110.546C431.425 111.865 428.034 113.466 424.387 114.113L421.509 114.632C417.874 115.279 414.728 112.771 414.646 108.992C414.576 106.06 414.576 103.117 414.646 100.174C414.728 96.3707 417.874 92.7444 421.509 92.0969L451.152 86.8105C454.788 86.163 457.934 88.6708 458.015 92.4501L458.027 92.4383Z" fill="#F8961F"/>
<path opacity="0.5" d="M458.027 101.257C457.934 105.06 454.811 108.698 451.164 109.345L448.286 109.851C446.934 110.087 445.617 110.193 444.464 110.158C444.336 110.158 444.219 110.158 444.079 110.146C443.87 110.146 443.66 110.122 443.45 110.11C443.066 110.075 442.716 110.005 442.39 109.934C442.203 109.899 442.017 109.851 441.854 109.781C441.679 109.734 441.528 109.663 441.388 109.592C441.329 109.569 441.248 109.534 441.201 109.486C441.108 109.439 441.038 109.381 440.98 109.333C440.852 109.216 440.758 109.11 440.689 108.98L439.698 106.943C439.314 106.155 438.265 105.648 437.356 105.813L435.294 106.178C434.385 106.343 433.336 107.226 432.952 108.144C432.952 108.144 432.52 109.227 431.961 110.546C431.402 111.865 428.023 113.466 424.376 114.114L421.498 114.632C420.892 114.738 420.297 114.761 419.738 114.69C419.4 114.667 419.086 114.608 418.783 114.514C418.631 114.478 418.48 114.431 418.328 114.373C418.247 114.337 418.142 114.302 418.049 114.255C417.804 114.149 417.547 114.031 417.326 113.89C415.73 112.913 414.669 111.158 414.623 108.992C414.565 106.06 414.565 103.117 414.623 100.174C414.704 96.3707 417.85 92.7327 421.498 92.0851L451.152 86.7988C452.55 86.5516 453.867 86.7753 454.986 87.3522C455.091 87.3993 455.195 87.4699 455.289 87.5288C455.452 87.6347 455.615 87.7407 455.778 87.8584C455.825 87.8938 455.895 87.9291 455.929 87.9879C456.093 88.1175 456.244 88.247 456.396 88.4C456.582 88.5884 456.745 88.7768 456.897 88.9887C457.025 89.1418 457.118 89.3066 457.211 89.4714C457.363 89.6951 457.479 89.9541 457.584 90.2014C457.666 90.4133 457.747 90.637 457.805 90.8725V90.896C457.864 91.0962 457.922 91.3081 457.945 91.5436C457.957 91.5907 457.969 91.6495 457.969 91.6966C458.004 91.9321 458.027 92.1911 458.027 92.4384C458.097 95.37 458.097 98.3134 458.027 101.257Z" fill="white"/>
<g opacity="0.7">
<path d="M458.027 92.4383C458.027 92.191 458.004 91.932 457.969 91.6965C457.969 91.6494 457.957 91.5906 457.945 91.5435C457.922 91.3198 457.875 91.1079 457.805 90.8959V90.8724C457.747 90.6487 457.666 90.4132 457.584 90.2013C457.468 89.954 457.363 89.695 457.211 89.4713C457.13 89.3065 457.025 89.1417 456.897 88.9886C456.745 88.7767 456.582 88.5883 456.396 88.3999C456.244 88.2469 456.093 88.1056 455.929 87.9879C455.894 87.9408 455.836 87.9054 455.79 87.8701L438.043 105.801C438.754 105.907 439.418 106.343 439.71 106.943L440.7 108.98C440.758 109.11 440.863 109.216 440.991 109.333C441.05 109.38 441.131 109.439 441.213 109.486C441.259 109.522 441.341 109.557 441.399 109.592C441.539 109.663 441.691 109.734 441.865 109.781C442.029 109.84 442.215 109.898 442.401 109.934C442.728 110.004 443.077 110.075 443.462 110.11C443.66 110.122 443.87 110.146 444.091 110.146C444.231 110.157 444.347 110.157 444.475 110.157C445.186 110.181 445.967 110.134 446.771 110.052L458.062 98.6429C458.085 96.5708 458.085 94.5104 458.027 92.4383Z" fill="#F8961F"/>
<path d="M443.951 88.0821L418.048 114.255C418.048 114.255 418.06 114.255 418.072 114.255C418.153 114.29 418.258 114.325 418.351 114.372C418.503 114.42 418.654 114.478 418.806 114.514C419.12 114.596 419.435 114.667 419.761 114.69C420.321 114.749 420.903 114.726 421.521 114.631L423.408 114.29L450.499 86.9165L443.963 88.0821H443.951Z" fill="#F8961F"/>
<path d="M425.517 91.3669L414.623 102.375C414.599 104.589 414.599 106.79 414.646 108.992C414.669 110.075 414.949 111.052 415.415 111.888L437.904 89.1653L425.517 91.3669Z" fill="#F8961F"/>
</g>
<path d="M407.772 102.929C407.772 103.67 407.236 104.188 406.583 104.082C405.931 103.976 405.395 103.294 405.395 102.552C405.395 101.81 405.931 101.292 406.583 101.398C407.236 101.504 407.772 102.187 407.772 102.929Z" fill="#263238"/>
<g opacity="0.5">
<path d="M452.283 87.3287C453.145 87.3287 453.96 87.5289 454.706 87.9174C454.776 87.9527 454.858 87.9998 454.963 88.0704C455.114 88.1646 455.265 88.2706 455.405 88.3648L455.464 88.4001L455.487 88.4236L455.557 88.4707C455.685 88.5649 455.813 88.6827 455.953 88.8357C456.128 89.0123 456.256 89.1654 456.419 89.3891C456.501 89.4833 456.582 89.6128 456.664 89.7658V89.7894L456.699 89.8129C456.815 90.0013 456.92 90.2132 457.013 90.4369C457.083 90.59 457.141 90.7666 457.188 90.955V90.9903L457.211 91.0845C457.27 91.2728 457.305 91.4495 457.328 91.6143V91.6496L457.351 91.6849V91.7791C457.398 92.0146 457.409 92.2265 457.409 92.4384C457.479 95.3465 457.479 98.3017 457.409 101.233C457.328 104.683 454.427 108.109 451.071 108.721L448.193 109.228C447.086 109.428 445.967 109.534 444.965 109.534C444.814 109.534 444.65 109.534 444.487 109.534H444.452C444.359 109.534 444.254 109.534 444.103 109.522C443.975 109.522 443.846 109.522 443.718 109.498H443.532C443.206 109.451 442.891 109.404 442.53 109.322C442.367 109.286 442.215 109.251 442.04 109.18C441.912 109.145 441.807 109.098 441.702 109.039L441.633 109.004H441.598L441.563 108.969L441.528 108.945C441.528 108.945 441.423 108.886 441.411 108.874C441.306 108.78 441.271 108.733 441.271 108.71L440.281 106.661C439.85 105.766 438.801 105.142 437.729 105.142C437.578 105.142 437.414 105.154 437.263 105.177L435.201 105.542C434.094 105.743 432.858 106.767 432.392 107.897C432.392 107.897 431.961 108.98 431.414 110.299C431.006 111.288 427.976 112.842 424.294 113.49L421.416 114.008C421.055 114.066 420.717 114.102 420.391 114.102C420.204 114.102 420.018 114.102 419.808 114.066C419.54 114.043 419.272 113.996 418.958 113.902C418.818 113.866 418.69 113.819 418.608 113.796L418.456 113.737L418.317 113.678C418.095 113.596 417.886 113.478 417.687 113.36C416.196 112.442 415.322 110.852 415.275 108.98C415.217 106.072 415.217 103.105 415.275 100.185C415.357 96.7358 418.27 93.3097 421.637 92.6974L451.292 87.4111C451.63 87.3522 451.968 87.3169 452.306 87.3169M452.306 86.6812C451.933 86.6812 451.56 86.7165 451.176 86.7871L421.521 92.0735C417.874 92.7328 414.739 96.359 414.646 100.162C414.588 103.105 414.588 106.049 414.646 108.98C414.693 111.147 415.753 112.901 417.35 113.878C417.571 114.019 417.827 114.137 418.072 114.243C418.154 114.278 418.258 114.314 418.352 114.361C418.503 114.408 418.655 114.467 418.806 114.502C419.121 114.585 419.435 114.655 419.762 114.679C419.971 114.702 420.181 114.714 420.391 114.714C420.752 114.714 421.136 114.679 421.521 114.62L424.399 114.102C428.046 113.454 431.437 111.853 431.985 110.534C432.532 109.216 432.975 108.133 432.975 108.133C433.36 107.214 434.408 106.331 435.317 106.166L437.379 105.801C437.496 105.778 437.613 105.766 437.729 105.766C438.545 105.766 439.384 106.237 439.722 106.932L440.712 108.969C440.77 109.098 440.875 109.204 441.003 109.322C441.062 109.369 441.143 109.428 441.225 109.475C441.271 109.51 441.353 109.545 441.411 109.581C441.551 109.651 441.702 109.722 441.877 109.769C442.04 109.828 442.227 109.887 442.413 109.922C442.739 109.993 443.089 110.063 443.474 110.099C443.672 110.111 443.881 110.134 444.103 110.134C444.243 110.146 444.359 110.146 444.487 110.146C444.639 110.146 444.802 110.146 444.965 110.146C445.99 110.146 447.144 110.04 448.298 109.84L451.176 109.334C454.823 108.674 457.945 105.048 458.039 101.245C458.109 98.2899 458.109 95.3583 458.039 92.4267C458.039 92.1794 458.015 91.9204 457.98 91.6849C457.98 91.6378 457.969 91.579 457.957 91.5319C457.934 91.3082 457.887 91.0962 457.817 90.8843V90.8608C457.759 90.6371 457.677 90.4016 457.596 90.1897C457.479 89.9424 457.374 89.6834 457.223 89.4597C457.141 89.2949 457.037 89.1301 456.908 88.977C456.757 88.7651 456.594 88.5767 456.407 88.3883C456.256 88.2353 456.104 88.094 455.941 87.9762C455.906 87.9292 455.836 87.8938 455.79 87.8467C455.627 87.729 455.464 87.623 455.3 87.5171C455.219 87.4582 455.102 87.3876 454.997 87.3405C454.193 86.9166 453.273 86.6812 452.294 86.6812H452.306Z" fill="black"/>
</g>
<path d="M414.646 108.992L414.495 102.646C414.495 101.587 414.413 100.55 414.495 99.4555C414.611 98.3724 414.961 97.3245 415.462 96.3709C416.476 94.4635 418.165 92.8976 420.204 92.1324C421.241 91.7438 422.29 91.6496 423.315 91.4377L426.403 90.8726L438.766 88.7416C442.891 88.0469 447.027 87.3994 451.164 86.7754C447.062 87.6231 442.961 88.4355 438.848 89.2125L426.508 91.4848L423.42 92.0264C422.395 92.2266 421.335 92.3207 420.402 92.6622C418.491 93.345 416.907 94.8285 415.881 96.5946C415.38 97.4893 415.019 98.4665 414.879 99.4909C414.763 100.503 414.821 101.587 414.786 102.634L414.635 108.969L414.646 108.992Z" fill="white"/>
<g opacity="0.3">
<path d="M624.734 58.1186V210.539C622.147 226.492 614.026 242.163 600.218 256.55C595.499 261.46 590.185 266.24 584.196 270.796C578.883 274.752 573.127 278.626 566.858 282.276C544.043 295.627 517.022 305.022 488.311 310.544C483.743 311.427 479.129 312.204 474.48 312.887V159.783C506.745 154.521 537.157 144.796 562.628 130.632C594.252 113.042 613.536 91.1788 620.516 68.3969C620.516 68.3852 620.516 68.3734 620.527 68.3734C621.867 64.9473 622.951 61.4858 623.755 58.0126C623.895 57.4475 624.711 57.5535 624.711 58.1304L624.734 58.1186Z" fill="#F8961F"/>
</g>
<path d="M473.874 313.617V159.242L474.398 159.159C507.42 153.767 537.832 143.712 562.348 130.079C592.784 113.148 612.685 91.7792 619.91 68.3027V67.7729H620.108C621.378 64.4527 622.403 61.1326 623.161 57.8713C623.3 57.3062 623.801 56.953 624.372 57.0236C624.943 57.0942 625.351 57.5534 625.351 58.1303V210.539C622.671 227.105 614.375 242.705 600.66 256.998C595.778 262.096 590.36 266.911 584.569 271.303C578.813 275.588 573.115 279.356 567.172 282.829C544.87 295.874 518.373 305.411 488.427 311.168C483.871 312.051 479.211 312.84 474.561 313.511L473.851 313.617H473.874ZM475.121 160.313V312.157C479.502 311.509 483.906 310.756 488.218 309.92C518.024 304.186 544.381 294.697 566.566 281.722C572.474 278.273 578.125 274.54 583.846 270.278C589.579 265.922 594.939 261.154 599.787 256.103C613.315 241.998 621.506 226.634 624.128 210.422V59.2606C623.347 62.3335 622.345 65.477 621.133 68.597V68.6324C613.804 92.4503 593.681 114.078 562.954 131.185C538.438 144.819 508.084 154.886 475.121 160.325V160.313Z" fill="#F8961F"/>
<path d="M509.518 274.882C509.25 274.882 508.982 274.788 508.76 274.623C508.457 274.387 508.271 274.01 508.271 273.622V183.601C508.271 183.036 508.656 182.53 509.192 182.389C516.567 180.387 523.372 178.256 529.979 175.854C530.363 175.713 530.783 175.772 531.121 176.007C531.459 176.243 531.645 176.631 531.645 177.043V267.064C531.645 267.594 531.319 268.077 530.818 268.253C524.118 270.679 517.255 272.833 509.832 274.846C509.728 274.87 509.623 274.894 509.506 274.894L509.518 274.882ZM510.765 184.567V271.974C517.22 270.184 523.267 268.277 529.163 266.169V178.821C523.291 180.905 517.243 182.789 510.765 184.567Z" fill="white"/>
<path d="M549.601 260.412C549.368 260.412 549.123 260.341 548.925 260.212C548.575 259.976 548.354 259.576 548.354 259.152V169.132C548.354 168.637 548.645 168.178 549.1 167.978C554.518 165.552 560.123 162.633 566.263 159.089C567.533 158.406 568.71 157.664 569.84 156.946C570.225 156.699 570.714 156.687 571.111 156.911C571.507 157.134 571.751 157.558 571.751 158.017V248.038C571.751 248.474 571.53 248.874 571.169 249.109C569.992 249.851 568.78 250.628 567.475 251.323C561.311 254.902 555.625 257.845 550.125 260.306C549.962 260.377 549.787 260.412 549.624 260.412H549.601ZM550.848 169.944V257.198C555.718 254.937 560.775 252.277 566.252 249.109C567.3 248.544 568.279 247.944 569.246 247.343V160.278C568.664 160.631 568.081 160.972 567.463 161.302C561.567 164.716 556.114 167.554 550.859 169.956L550.848 169.944Z" fill="white"/>
<path d="M589.603 235.652C589.416 235.652 589.242 235.617 589.067 235.534C588.624 235.323 588.356 234.887 588.356 234.392V144.372C588.356 143.995 588.519 143.642 588.81 143.394C592.597 140.227 596.151 136.943 599.344 133.634C603.038 129.831 606.452 125.687 609.481 121.331C609.796 120.883 610.355 120.683 610.879 120.848C611.404 121.013 611.753 121.496 611.753 122.049V212.07C611.753 212.329 611.672 212.576 611.532 212.8C608.433 217.274 604.937 221.512 601.138 225.409C597.887 228.776 594.275 232.12 590.418 235.346C590.185 235.534 589.906 235.64 589.626 235.64L589.603 235.652ZM590.85 144.96V231.684C593.879 229.059 596.722 226.375 599.344 223.667C602.944 219.958 606.277 215.931 609.248 211.693V125.934C606.743 129.254 604.016 132.433 601.127 135.412C598.004 138.65 594.543 141.864 590.861 144.972L590.85 144.96Z" fill="white"/>
<g opacity="0.3">
<path d="M489.593 290.494L540.268 195.905L580.805 249.11C580.805 249.11 563.723 273.811 489.604 290.494H489.593Z" fill="#F8961F"/>
</g>
<g opacity="0.3">
<path d="M395.455 296.18C349.196 293.684 304.149 282.581 268.715 262.872C228.842 240.679 208.556 211.716 207.88 182.635V179.751L207.519 81.7948C207.495 74.8013 219.707 94.6279 245.236 114.961C245.831 115.455 246.448 115.915 247.054 116.397C248.476 117.504 249.932 118.587 251.447 119.67C256.749 123.473 262.551 127.147 268.832 130.632C304.138 150.282 348.975 161.372 395.071 163.904L395.455 296.18Z" fill="#F8961F"/>
</g>
<path d="M208.765 81.9248C210.152 82.902 213.018 85.9396 216.025 89.1303C222.27 95.7588 231.72 105.79 244.456 115.927C244.899 116.292 245.353 116.645 245.819 116.998L246.309 117.375C247.672 118.435 249.117 119.518 250.736 120.683C256.108 124.545 262.004 128.254 268.249 131.727C301.982 150.506 346.552 162.338 393.836 165.093L394.22 294.85C347.146 292.142 302.845 280.404 269.333 261.766C231.207 240.55 209.837 212.435 209.15 182.636V179.74L208.789 81.9248M208.253 80.3472C207.775 80.3472 207.542 80.8063 207.542 81.7835L207.903 179.74V182.624C208.579 211.705 228.854 240.668 268.739 262.861C304.173 282.57 349.22 293.673 395.479 296.169L395.094 163.892C348.998 161.361 304.161 150.27 268.855 130.62C262.575 127.124 256.772 123.462 251.47 119.659C249.956 118.576 248.499 117.493 247.078 116.386C246.472 115.903 245.854 115.444 245.26 114.95C223.296 97.4659 211.189 80.3472 208.253 80.3472Z" fill="#F8961F"/>
<path d="M350.723 277.39C350.723 277.39 350.606 277.39 350.548 277.39C350.175 277.343 312.679 271.903 276.219 253.195C234.435 231.767 218.017 198.542 217.865 198.212C217.784 198.036 217.737 197.847 217.737 197.659V172.263C217.737 172.004 217.819 171.745 217.97 171.533L245.376 132.41C245.632 132.033 246.087 131.833 246.53 131.88C246.984 131.927 247.369 132.222 247.543 132.634L281.533 212.729L278.585 197.895C278.491 197.4 278.689 196.906 279.086 196.611L306.48 177.126C306.759 176.926 307.121 176.855 307.458 176.926C307.796 176.996 308.088 177.208 308.274 177.514L351.806 251.417C351.923 251.617 351.981 251.841 351.981 252.065V276.13C351.981 276.495 351.83 276.836 351.562 277.084C351.329 277.284 351.037 277.39 350.746 277.39H350.723ZM220.231 197.353C221.816 200.426 238.257 230.896 277.349 250.946C309.451 267.406 342.333 273.481 349.476 274.658V252.406L306.794 179.975L281.16 198.201L286.322 224.15C286.45 224.785 286.077 225.409 285.471 225.598C284.865 225.786 284.201 225.48 283.956 224.891L246.11 135.683L220.231 172.64V197.329V197.353Z" fill="white"/>
<path d="M350.245 202.828C349.476 202.828 348.684 202.745 347.891 202.592C340.387 201.109 334.27 192.797 334.27 184.084C334.27 179.457 335.995 175.36 339.012 172.852C341.611 170.698 344.92 169.885 348.369 170.568C355.873 172.051 361.99 180.364 361.99 189.076C361.99 193.703 360.266 197.8 357.248 200.308C355.255 201.968 352.832 202.828 350.245 202.828ZM346.039 172.852C344.034 172.852 342.147 173.523 340.609 174.795C338.173 176.82 336.775 180.211 336.775 184.084C336.775 191.666 341.984 198.86 348.381 200.12C351.072 200.65 353.659 200.026 355.663 198.354C358.099 196.329 359.497 192.938 359.497 189.064C359.497 181.482 354.288 174.288 347.891 173.029C347.262 172.899 346.645 172.84 346.039 172.84V172.852Z" fill="white"/>
<g opacity="0.3">
<path d="M216.596 111.724C216.596 111.724 227.957 131.892 251.447 140.663V129.266C228.924 118.505 216.596 98.3606 216.596 98.3606V111.724Z" fill="#F8961F"/>
</g>
<g opacity="0.3">
<path d="M216.596 132.374C216.596 132.374 227.957 152.543 251.447 161.314V149.917C228.924 139.156 216.596 119.011 216.596 119.011V132.374Z" fill="#F8961F"/>
</g>
<g opacity="0.3">
<path d="M216.596 153.025C216.596 153.025 227.957 173.193 251.447 181.965V170.568C228.924 159.807 216.596 139.662 216.596 139.662V153.025Z" fill="#F8961F"/>
</g>
</g>
</g>
<defs>
<clipPath id="clip0_0_8134">
<rect width="773" height="669" fill="white"/>
</clipPath>
<clipPath id="clip1_0_8134">
<rect width="532" height="531" fill="white" transform="translate(137 57)"/>
</clipPath>
</defs>
</svg>
