<svg width="212" height="29" viewBox="0 0 212 29" fill="none" xmlns="http://www.w3.org/2000/svg">
<path d="M16.6124 0H5.02358C5.02358 0 2.8125 0.108379 2.8125 1.75429V12.317L4.29336 11.201C4.9784 10.6853 5.66198 11.201 5.66198 11.201L7.16033 12.3301V3.56932H16.6635C16.6635 3.56932 21.622 3.85634 21.673 6.69203V13.1756H26.085V6.60747C26.085 6.60747 26.3211 0.693142 16.611 0H16.6124Z" fill="white"/>
<path d="M16.6644 25.4319H7.16131V15.2444H2.81348V27.2457C2.81348 28.8917 5.02456 29 5.02456 29H16.6134C26.3221 28.3069 26.0874 22.3926 26.0874 22.3926V16.0876L24.5439 17.25C23.8588 17.7657 23.1752 17.25 23.1752 17.25L21.6754 16.1197V22.308C21.6244 25.1437 16.6659 25.4307 16.6659 25.4307L16.6644 25.4319Z" fill="white"/>
<path d="M4.21009 12.0526C4.58759 11.768 5.20122 11.768 5.57872 12.0526L9.56507 15.0562C9.94258 15.3408 9.83326 15.5719 9.31875 15.5719H0.471509C-0.0430015 15.5719 -0.153774 15.3408 0.225185 15.0562L4.21155 12.0526H4.21009Z" fill="white"/>
<path d="M23.174 16.4234C23.5515 16.708 24.1651 16.708 24.5426 16.4234L28.5289 13.4197C28.9064 13.1351 28.7971 12.9041 28.2826 12.9041H19.4354C18.9209 12.9041 18.8101 13.1351 19.1891 13.4197L23.1754 16.4234H23.174Z" fill="white"/>
<path d="M72.8272 9.73703V12.4687C72.0271 11.4275 71.0946 10.6494 70.0355 10.1288C68.9764 9.60822 67.7906 9.35061 66.4782 9.35061C64.2103 9.35061 62.2705 10.1127 60.6588 11.6315C59.0471 13.1556 58.2412 14.9857 58.2412 17.127C58.2412 19.2683 59.0413 21.1735 60.6415 22.6977C62.2417 24.2218 64.17 24.9893 66.4264 24.9893C67.6985 24.9893 68.867 24.7424 69.9376 24.2486C71.0083 23.7549 71.9753 23.025 72.8329 22.0483V24.6029H74.8591V9.73166H72.8329L72.8272 9.73703ZM71.1349 12.9356C72.3495 14.0894 72.9596 15.5277 72.9596 17.2504C72.9596 18.3775 72.689 19.3918 72.148 20.2934C71.6069 21.195 70.8298 21.9088 69.8283 22.4347C68.8209 22.9606 67.7561 23.229 66.6336 23.229C65.5112 23.229 64.4808 22.9606 63.5081 22.4293C62.5353 21.898 61.7639 21.1521 61.1883 20.1968C60.6127 19.2415 60.3249 18.2379 60.3249 17.1914C60.3249 16.1449 60.6127 15.1359 61.1826 14.186C61.7524 13.2415 62.5238 12.5063 63.4908 11.9803C64.4578 11.4597 65.5112 11.1968 66.6566 11.1968C68.4353 11.1968 69.9319 11.7764 71.1464 12.9302L71.1349 12.9356ZM79.4697 24.6136H81.5247V19.161C81.5247 17.2021 81.6225 15.8551 81.8183 15.1145C82.1291 13.9821 82.7795 13.0376 83.7638 12.2701C84.7481 11.5027 85.859 11.1216 87.1023 11.1216C88.1902 11.1216 89.0652 11.3685 89.7444 11.8676C90.4179 12.3667 90.8726 13.102 91.1144 14.0894C91.264 14.6637 91.3446 15.8068 91.3446 17.5188V24.6136H93.3995V16.9606C93.3995 14.9374 93.1808 13.4454 92.7376 12.4902C92.3001 11.5349 91.6151 10.7728 90.6941 10.2093C89.7674 9.6458 88.7141 9.36135 87.5226 9.36135C86.3311 9.36135 85.2662 9.61358 84.2704 10.118C83.2746 10.6225 82.3651 11.39 81.5419 12.4097V9.7424H79.487V24.6136H79.4697ZM109.465 21.7907C108.924 22.2254 108.273 22.5742 107.502 22.8372C106.736 23.1002 105.942 23.2343 105.13 23.2343C103.444 23.2343 102.034 22.6816 100.888 21.576C99.7428 20.4705 99.1499 19.0536 99.1096 17.3256H113.465C113.448 15.2916 112.861 13.5957 111.704 12.2379C110.081 10.3166 107.905 9.35061 105.188 9.35061C102.471 9.35061 100.439 10.2898 98.8621 12.1681C97.6188 13.644 96.9971 15.3238 96.9971 17.2129C96.9971 19.22 97.7281 21.0179 99.2017 22.6064C100.669 24.195 102.701 24.9946 105.309 24.9946C106.483 24.9946 107.537 24.8283 108.463 24.4955C109.39 24.1628 110.23 23.6798 110.973 23.0411C111.715 22.4025 112.372 21.5653 112.942 20.5241L111.209 19.6762C110.581 20.6476 110 21.3506 109.465 21.7853V21.7907ZM99.3226 15.6726C99.7428 14.3041 100.364 13.279 101.188 12.5975C102.316 11.6583 103.657 11.1914 105.223 11.1914C106.172 11.1914 107.076 11.3792 107.939 11.7496C108.803 12.1252 109.494 12.6136 110.017 13.2254C110.541 13.8372 110.938 14.653 111.215 15.6726H99.3226ZM120.885 9.35598C119.624 9.35598 118.577 9.73167 117.748 10.4776C116.919 11.2236 116.505 12.1628 116.505 13.2952C116.505 14.1592 116.764 14.932 117.282 15.6082C117.8 16.2844 118.778 16.966 120.223 17.6583C121.564 18.297 122.428 18.8229 122.807 19.2469C123.187 19.6762 123.383 20.1646 123.383 20.7066C123.383 21.3721 123.095 21.9517 122.514 22.4401C121.938 22.9338 121.236 23.1807 120.413 23.1807C119.239 23.1807 118.128 22.6279 117.074 21.5277L115.785 22.8962C116.332 23.551 117.028 24.0662 117.863 24.4418C118.698 24.8175 119.578 25 120.499 25C121.881 25 123.032 24.576 123.947 23.7281C124.868 22.8801 125.329 21.8444 125.329 20.6261C125.329 19.7621 125.058 18.9785 124.523 18.2862C123.976 17.6046 122.934 16.8909 121.409 16.1556C120.154 15.5545 119.331 15.0286 118.939 14.5832C118.548 14.1485 118.352 13.6869 118.352 13.2039C118.352 12.6565 118.588 12.1789 119.066 11.771C119.544 11.3631 120.114 11.1538 120.781 11.1538C121.829 11.1538 122.9 11.6529 123.999 12.6458L125.317 11.3739C123.832 10.0322 122.353 9.36135 120.879 9.36135L120.885 9.35598ZM128.955 24.6136H131.01V19.161C131.01 17.1914 131.108 15.8443 131.304 15.1145C131.614 13.9821 132.265 13.0376 133.249 12.2701C134.233 11.5027 135.344 11.1216 136.588 11.1216C137.676 11.1216 138.55 11.3685 139.218 11.8676C139.886 12.3667 140.346 13.102 140.605 14.0894C140.755 14.6637 140.824 15.8068 140.824 17.5188V24.6136H142.879V16.9606C142.879 14.9266 142.66 13.4347 142.217 12.4848C141.78 11.5349 141.095 10.7728 140.174 10.2093C139.253 9.6458 138.194 9.36135 137.002 9.36135C135.811 9.36135 134.757 9.61358 133.761 10.118C132.766 10.6225 131.85 11.39 131.021 12.4097V4H128.967V24.6136H128.955ZM157.022 24.6136L159.14 10.1234L166.859 24.6136H167.412L175.038 10.2308L177.168 24.6136H179.281L176.178 4.50447H175.833L167.147 21.0072L158.38 4.50447H158.029L154.938 24.6136H157.022ZM197.05 9.7424V12.474C196.25 11.4329 195.317 10.6547 194.258 10.1342C193.199 9.61359 192.013 9.35598 190.701 9.35598C188.433 9.35598 186.493 10.1181 184.881 11.6368C183.27 13.161 182.464 14.991 182.464 17.1324C182.464 19.2737 183.264 21.1789 184.858 22.703C186.459 24.2272 188.387 24.9946 190.643 24.9946C191.915 24.9946 193.084 24.7478 194.155 24.254C195.225 23.7603 196.192 23.0304 197.05 22.0537V24.6082H199.076V9.73703H197.05V9.7424ZM195.358 12.941C196.572 14.0948 197.182 15.5331 197.182 17.2558C197.182 18.3828 196.912 19.3971 196.371 20.2987C195.83 21.2004 195.052 21.9141 194.051 22.4401C193.044 22.966 191.979 23.2343 190.856 23.2343C189.734 23.2343 188.703 22.966 187.731 22.4347C186.758 21.9034 185.987 21.1574 185.411 20.2021C184.835 19.2469 184.548 18.2433 184.548 17.1968C184.548 16.1502 184.835 15.1413 185.405 14.1914C185.975 13.2469 186.746 12.5116 187.713 11.9857C188.68 11.4651 189.734 11.2021 190.879 11.2021C192.658 11.2021 194.155 11.7817 195.369 12.9356L195.358 12.941ZM203.382 24.619H205.436V4.00537H203.382V24.619ZM209.391 24.619H211.446V4.00537H209.391V24.619Z" fill="#F8961F"/>
<path d="M55.1037 14.8085C55.1037 12.474 54.5166 10.4668 53.3366 8.78166C52.1566 7.09651 50.5219 5.91046 48.4324 5.22889C46.9761 4.74588 44.6334 4.50439 41.41 4.50439H39.0039V6.47397H40.5293C43.626 6.47397 45.8537 6.66718 47.2006 7.04822C48.9965 7.55806 50.401 8.50261 51.4083 9.87649C52.4156 11.2504 52.9164 12.9087 52.9164 14.8514C52.9164 16.7942 52.4502 18.2647 51.5234 19.5419C50.5967 20.8192 49.3188 21.7047 47.6956 22.1985C46.5444 22.5419 44.4722 22.7191 41.4963 22.7191H39.0039V24.6189H43.7987C46.4868 24.6189 48.5763 24.2539 50.0671 23.5241C51.558 22.7942 52.7725 21.6672 53.705 20.1323C54.6375 18.6028 55.1037 16.8264 55.1037 14.8139V14.8085Z" fill="#F8961F"/>
</svg>
