<svg width="74" height="57" viewBox="0 0 74 57" fill="none" xmlns="http://www.w3.org/2000/svg">
<path d="M22.3239 0.122177C20.9361 0.26696 18.8427 0.734715 17.4196 1.21361C15.9965 1.6925 14.2089 2.49438 13.8914 2.79508C13.5621 3.10691 13.6091 3.70832 13.9854 3.98674C14.1619 4.12039 14.3618 4.22062 14.4441 4.22062C14.5264 4.22062 15.185 3.95333 15.926 3.61922C23.7351 0.122177 32.7086 1.43635 38.8713 6.99376C45.7278 13.1637 47.2803 22.8864 42.6583 30.6378C38.5537 37.5205 30.4388 41.3851 22.2298 40.3605C17.8195 39.8147 14.009 38.0662 10.7042 35.0815C7.51701 32.1858 5.48239 28.5663 4.6709 24.3231C4.37688 22.775 4.37688 19.4116 4.6709 17.8635C5.47063 13.6871 7.45821 10.1121 10.6219 7.17195C11.2805 6.55941 11.8685 5.96915 11.9273 5.85777C12.186 5.41229 11.7156 4.77748 11.1393 4.77748C10.8453 4.77748 10.5866 4.92226 9.9515 5.43457C8.10505 6.96035 6.30565 9.23231 5.03548 11.6268C2.70685 16.0482 2.07176 20.5587 3.10671 25.4034C3.81236 28.7445 5.75289 32.442 8.09329 34.9256L8.74013 35.6161L7.44645 37.7544C6.7408 38.9349 6.15276 39.9818 6.15276 40.1043C6.15276 40.4273 6.68199 40.8616 7.0701 40.8616C7.52877 40.8616 7.69342 40.7057 8.2697 39.7479C8.55196 39.2913 9.05767 38.4449 9.4105 37.8769L10.0456 36.8523L10.8924 37.4982C12.9035 39.0574 15.3379 40.3159 17.8195 41.0955C18.678 41.3628 19.4072 41.5967 19.4307 41.6078C19.4895 41.6412 11.9861 53.9922 11.9038 54.0034C11.8685 54.0034 11.3981 52.6892 10.8688 51.0743C10.3278 49.4706 9.81037 48.0673 9.71628 47.9559C9.43402 47.6664 8.99887 47.7109 5.77641 48.3792C4.15342 48.7133 2.80093 48.9694 2.76565 48.9472C2.74213 48.9137 3.43601 47.6998 4.31807 46.2408C6.02339 43.4232 6.08219 43.2672 5.5412 42.8329C5.25894 42.6101 4.75322 42.5879 4.48273 42.7883C4.28279 42.9331 0.342926 49.3481 0.0959491 49.9384C0.0136235 50.1165 -0.0216589 50.3504 0.0136235 50.4395C0.10771 50.7179 0.531098 51.1077 0.742793 51.1077C0.84864 51.1077 2.62452 50.7514 4.68266 50.3281C6.7408 49.8938 8.44611 49.5708 8.4814 49.5931C8.50492 49.6265 9.05767 51.2191 9.69276 53.1347C10.516 55.596 10.9394 56.6763 11.1041 56.8099C11.4686 57.0995 11.892 57.0549 12.2448 56.6986C12.4213 56.5315 14.5264 53.1458 16.9139 49.181L21.2654 41.9753L22.0886 42.0644C23.1706 42.1647 26.5695 42.1647 27.6162 42.0533L28.4395 41.9642L31.0856 46.3411C32.544 48.7467 33.8259 50.7959 33.9435 50.9073C34.2611 51.2191 34.8961 51.1746 35.1902 50.8182C35.3313 50.6511 35.4371 50.4395 35.4371 50.3393C35.4371 50.2391 34.2728 48.2344 32.8498 45.8845C31.4267 43.5345 30.2741 41.5967 30.2859 41.5855C30.3094 41.5744 30.6623 41.4742 31.0856 41.3628C33.7671 40.6277 36.8014 39.102 38.9771 37.398C39.377 37.075 39.7298 36.8523 39.7533 36.9191C39.7769 36.9748 41.4234 39.7034 43.4227 42.9777C45.4221 46.252 47.045 48.9472 47.0333 48.9583C47.0333 48.9583 45.5985 48.6799 43.8579 48.3123C42.1173 47.9559 40.6001 47.6552 40.4943 47.6552C39.9768 47.6552 39.9062 47.8223 38.3538 52.4665L37.8481 54.0034L37.4365 53.4688C36.9778 52.8897 36.5544 52.756 36.0957 53.0456C35.5547 53.3797 35.6018 53.7027 36.3898 55.0503C37.4482 56.8433 37.4953 56.899 37.9892 56.899C38.7654 56.899 38.6361 57.1775 40.6589 51.0966L41.1999 49.4817L44.8223 50.2391C46.8098 50.6511 48.6092 51.0075 48.8327 51.0186C49.3149 51.0409 49.6677 50.6957 49.6677 50.2056C49.6677 49.994 48.2917 47.633 45.4103 42.8997C43.0817 39.0574 41.1411 35.8165 41.1058 35.7052C41.0706 35.5938 41.2234 35.3376 41.5057 35.0369C42.7406 33.7673 43.9049 32.1079 44.8575 30.2257C48.621 22.8641 47.5155 14.0881 42.0232 7.72881C41.0353 6.58168 38.9301 4.72179 37.6599 3.86423C36.3545 2.97327 34.0729 1.84842 32.4734 1.28043C29.4039 0.200138 25.6051 -0.234211 22.3239 0.122177Z" fill="white"/>
<path d="M30.9912 7.11282C24.1817 8.20426 18.7953 13.2605 17.6545 19.6643C17.3958 21.0676 17.3958 23.4509 17.6545 24.8542C18.6542 30.445 22.8293 35.0335 28.5568 36.8488C30.168 37.3611 31.6616 37.5728 33.6374 37.5728C37.5655 37.5728 40.9997 36.3922 44.0104 33.9866C45.8451 32.5277 48.0444 29.7322 48.0444 28.8524C48.0444 28.4849 47.574 28.1062 47.1271 28.1062C46.7154 28.1062 46.7978 28.0171 45.4453 29.9773C43.787 32.3829 41.0232 34.343 37.9772 35.2897C35.3075 36.1138 31.8615 36.1138 29.1801 35.2897C27.0514 34.6326 25.1226 33.5077 23.4879 31.9819C20.4065 29.0974 18.96 25.4111 19.2422 21.179C19.5715 16.5125 22.6646 12.1691 27.2043 10.0196C30.5326 8.43814 34.5665 8.17085 38.0948 9.29569C43.0931 10.8772 46.7742 14.9088 47.7504 19.8648C47.9621 20.9451 47.9974 23.3507 47.8092 24.3753C47.6445 25.3108 47.6563 25.4667 47.9268 25.7452C48.2679 26.0904 48.8912 26.0793 49.197 25.7118C49.5145 25.3331 49.7027 24.0189 49.7027 22.2258C49.7027 20.611 49.5851 19.7311 49.1617 18.2499C47.5504 12.4809 42.3875 8.07061 36.1072 7.11282C34.837 6.91235 32.2144 6.91235 30.9912 7.11282Z" fill="white"/>
<path d="M63.6277 5.72283C63.5454 5.75624 62.8515 6.95904 62.0871 8.418L60.6875 11.0464L57.7709 11.4361C55.0306 11.8037 54.8189 11.8482 54.5249 12.1266C53.9368 12.6612 54.0074 12.7615 56.4184 15.0334L58.6529 17.1272L58.1237 19.9894C57.5944 22.8182 57.5944 22.8405 57.8179 23.1189C58.2531 23.6758 58.5588 23.5978 61.3697 22.1946C62.7927 21.4818 64.0041 20.9027 64.0864 20.9027C64.157 20.9027 65.3683 21.4818 66.7796 22.1946C69.5787 23.5978 69.8962 23.6758 70.3314 23.1189C70.5548 22.8405 70.5548 22.8182 70.0256 19.9894L69.4964 17.1383L71.7309 15.0334C73.2598 13.5856 73.9537 12.8617 73.9537 12.6946C73.9537 12.561 73.8361 12.316 73.6832 12.1489C73.4245 11.8705 73.2716 11.8371 70.4372 11.4473L67.45 11.0464L66.1093 8.48482C65.3683 7.07041 64.6744 5.85647 64.5686 5.77851C64.3804 5.64487 63.91 5.61146 63.6277 5.72283ZM65.1331 10.4004C65.6859 11.4807 66.2386 12.4162 66.368 12.4942C66.5562 12.6055 70.5431 13.2181 71.0723 13.2181C71.1429 13.2181 70.4137 13.9309 69.4493 14.8107C67.8616 16.2696 67.7205 16.4256 67.7205 16.7819C67.7205 17.0047 67.8851 18.0516 68.0733 19.1096C68.2733 20.1676 68.4144 21.0586 68.4026 21.0697C68.3791 21.092 67.4735 20.6465 66.368 20.0897C65.2743 19.5328 64.2393 19.0873 64.0746 19.0873C63.91 19.0873 62.8868 19.5439 61.7813 20.1008C60.6875 20.6577 59.7702 21.092 59.7467 21.0697C59.7349 21.0586 59.876 20.1676 60.076 19.1096C60.2641 18.0516 60.4288 17.0047 60.4288 16.7819C60.4288 16.4256 60.2994 16.2696 58.7 14.8107C57.7356 13.9309 57.0182 13.2181 57.077 13.2181C57.618 13.2181 61.5931 12.6055 61.7813 12.4942C61.9107 12.4162 62.4752 11.4696 63.0162 10.4004C63.5689 9.3201 64.0394 8.44027 64.0746 8.44027C64.1099 8.44027 64.5804 9.3201 65.1331 10.4004Z" fill="white"/>
</svg>
