<svg width="42" height="42" viewBox="0 0 42 42" fill="none" xmlns="http://www.w3.org/2000/svg">
<path d="M34.1642 18V14C34.1642 12.9391 33.7425 11.9217 32.9917 11.1716C32.241 10.4214 31.2229 10 30.1612 10H14.149C13.0873 10 12.0692 10.4214 11.3185 11.1716C10.5677 11.9217 10.146 12.9391 10.146 14V30C10.146 31.0609 10.5677 32.0783 11.3185 32.8284C12.0692 33.5786 13.0873 34 14.149 34H18.1521" stroke="white" stroke-width="3" stroke-linecap="round" stroke-linejoin="round"/>
<path d="M2.14014 2V2.02M10.1462 2V2.02M18.1523 2V2.02M26.1583 2V2.02M2.14014 10V10.02M2.14014 18V18.02M2.14014 26V26.02M22.1553 22L40.169 28L32.1629 32L28.1599 40L22.1553 22Z" stroke="white" stroke-width="3" stroke-linecap="round" stroke-linejoin="round"/>
</svg>
