<svg width="116" height="102" viewBox="0 0 116 102" fill="none" xmlns="http://www.w3.org/2000/svg">
<path d="M11.1426 101.82C11.8853 101.82 12.6364 101.82 13.3707 101.727C13.4721 101.72 13.571 101.692 13.6615 101.645C13.752 101.599 13.8324 101.535 13.8977 101.456C13.9631 101.378 14.0122 101.287 14.0421 101.189C14.0719 101.091 14.082 100.988 14.0717 100.887C14.0526 100.682 13.9544 100.493 13.7982 100.361C13.642 100.229 13.4405 100.164 13.2372 100.181C12.2469 100.273 11.2516 100.298 10.258 100.256C10.0555 100.254 9.85997 100.33 9.71222 100.47C9.56446 100.609 9.47595 100.801 9.46519 101.004C9.45841 101.208 9.53175 101.406 9.66928 101.556C9.8068 101.705 9.99739 101.794 10.1996 101.803C10.525 101.82 10.8338 101.82 11.1426 101.82ZM7.18697 101.5C7.38196 101.504 7.5709 101.432 7.71543 101.3C7.85997 101.168 7.94926 100.986 7.96519 100.79C7.98112 100.595 7.92249 100.4 7.8012 100.246C7.67992 100.092 7.50507 99.9909 7.31214 99.9622C6.33283 99.8009 5.36539 99.5734 4.41637 99.2814C4.22482 99.2328 4.02204 99.2605 3.8502 99.3586C3.67838 99.4567 3.55071 99.6178 3.49375 99.8083C3.43679 99.9988 3.45492 100.204 3.54438 100.381C3.63384 100.559 3.78774 100.695 3.97408 100.761C4.98573 101.074 6.01733 101.319 7.06179 101.492L7.18697 101.5ZM16.3666 101.282H16.5169C17.5495 101.058 18.5691 100.777 19.5712 100.441C19.7642 100.374 19.9236 100.234 20.0155 100.05C20.1075 99.8666 20.1247 99.6541 20.0635 99.4579C19.997 99.2638 19.8573 99.1038 19.6746 99.0126C19.4919 98.9214 19.2809 98.9062 19.0872 98.9705C18.1432 99.2842 17.1819 99.5424 16.2081 99.7437C16.1089 99.7636 16.0147 99.8033 15.931 99.8604C15.8473 99.9175 15.7757 99.9909 15.7205 100.076C15.6653 100.162 15.6276 100.257 15.6096 100.357C15.5916 100.458 15.5936 100.56 15.6156 100.66C15.6496 100.832 15.7409 100.987 15.8744 101.1C16.0079 101.214 16.1756 101.277 16.35 101.282H16.3666ZM1.34536 99.6764C1.5197 99.677 1.68904 99.6179 1.82555 99.5086C1.96205 99.3994 2.05759 99.2467 2.09643 99.0755C2.13528 98.9044 2.11514 98.725 2.0393 98.5669C1.96346 98.4088 1.83645 98.2814 1.67916 98.2057L1.14507 97.9451C1.05472 97.8937 0.954941 97.8613 0.851791 97.8498C0.748634 97.8383 0.644234 97.848 0.544907 97.8783C0.445572 97.9085 0.353371 97.9588 0.273872 98.026C0.194366 98.0932 0.129219 98.1759 0.0823517 98.2691C0.0354919 98.3624 0.00788879 98.4643 0.00121307 98.5686C-0.00546265 98.6729 0.00892639 98.7775 0.0435181 98.876C0.0781097 98.9745 0.132179 99.065 0.202461 99.1419C0.272743 99.2188 0.357773 99.2806 0.452423 99.3234L1.0199 99.6092C1.11573 99.659 1.22099 99.6876 1.32867 99.6932L1.34536 99.6764ZM22.2083 99.3487C22.3209 99.3478 22.4321 99.322 22.5337 99.273C23.4865 98.826 24.4142 98.3265 25.3127 97.777C25.3987 97.7218 25.4731 97.6501 25.5316 97.566C25.5901 97.4819 25.6316 97.3869 25.6537 97.2867C25.6758 97.1864 25.678 97.0827 25.6603 96.9815C25.6426 96.8804 25.6053 96.7837 25.5505 96.6971C25.4957 96.6104 25.4245 96.5355 25.341 96.4766C25.2574 96.4177 25.1632 96.3759 25.0636 96.3536C24.964 96.3314 24.861 96.3291 24.7606 96.347C24.6601 96.3648 24.5642 96.4024 24.4781 96.4575C23.6251 96.9759 22.7448 97.4472 21.8411 97.8695C21.687 97.9477 21.5632 98.0754 21.4892 98.2325C21.4153 98.3895 21.3954 98.5668 21.4327 98.7365C21.47 98.9062 21.5625 99.0585 21.6954 99.1693C21.8283 99.2802 21.994 99.3433 22.1665 99.3487H22.2083ZM27.4657 96.155C27.6302 96.1512 27.7898 96.0986 27.9247 96.0037C28.7592 95.3818 29.5937 94.701 30.3448 93.9782C30.4193 93.9098 30.4797 93.8273 30.5226 93.7353C30.5654 93.6434 30.5899 93.5438 30.5945 93.4424C30.5992 93.3409 30.5839 93.2396 30.5497 93.144C30.5154 93.0485 30.4628 92.9607 30.3949 92.8857C30.3269 92.8106 30.2449 92.7498 30.1537 92.7066C30.0624 92.6635 29.9635 92.6388 29.8628 92.6342C29.7621 92.6295 29.6614 92.6448 29.5665 92.6793C29.4717 92.7138 29.3845 92.7668 29.31 92.8352C28.5589 93.5244 27.7828 94.1715 26.9984 94.7683C26.8711 94.8666 26.7776 95.0026 26.731 95.1572C26.6844 95.3118 26.687 95.4773 26.7386 95.6303C26.7902 95.7833 26.888 95.9162 27.0184 96.0103C27.1488 96.1044 27.3053 96.155 27.4657 96.155ZM31.9971 91.9948C32.104 91.9953 32.2098 91.9732 32.3076 91.9297C32.4054 91.8863 32.493 91.8225 32.5646 91.7427C33.2572 90.9779 33.9415 90.1626 34.5758 89.3222C34.6371 89.2416 34.6822 89.1497 34.7082 89.0516C34.7343 88.9535 34.741 88.8512 34.7278 88.7505C34.7012 88.5472 34.5955 88.3628 34.4339 88.238C34.2723 88.1132 34.0682 88.0581 33.8663 88.0849C33.6644 88.1117 33.4813 88.2182 33.3574 88.3809C32.7482 89.2213 32.0973 89.9609 31.4297 90.7005C31.3617 90.7756 31.3091 90.8633 31.2748 90.9589C31.2405 91.0544 31.2253 91.1558 31.2299 91.2573C31.2346 91.3587 31.259 91.4583 31.3019 91.5502C31.3447 91.6421 31.4052 91.7247 31.4797 91.7931C31.6108 91.913 31.7786 91.9842 31.9554 91.9948H31.9971ZM35.694 87.0866C35.8229 87.087 35.9497 87.0539 36.0623 86.9906C36.1748 86.9273 36.2693 86.8359 36.3366 86.7252C36.6704 86.2042 36.9959 85.6663 37.3046 85.1284C37.5133 84.7586 37.7219 84.3804 37.9222 84.0022C37.9988 83.8238 38.0058 83.6229 37.942 83.4394C37.8781 83.256 37.7479 83.1036 37.5775 83.0124C37.407 82.9213 37.2087 82.8981 37.022 82.9476C36.8354 82.9971 36.6741 83.1156 36.5703 83.2794C36.3783 83.6408 36.1781 84.0022 35.9778 84.3552C35.6773 84.8763 35.3686 85.3889 35.0431 85.8932C34.9706 86.0109 34.9305 86.146 34.9269 86.2845C34.9233 86.423 34.9563 86.5599 35.0225 86.6814C35.0887 86.8028 35.1858 86.9043 35.3038 86.9755C35.4218 87.0467 35.5565 87.0851 35.694 87.0866ZM38.5648 81.6237C38.7159 81.6243 38.8638 81.5799 38.99 81.4962C39.1161 81.4125 39.215 81.2931 39.2741 81.1531C39.683 80.1782 40.0502 79.1781 40.3673 78.1863C40.3986 78.0898 40.4106 77.9879 40.4028 77.8867C40.395 77.7854 40.3674 77.6867 40.3217 77.5962C40.276 77.5056 40.213 77.425 40.1363 77.359C40.0597 77.293 39.9709 77.2429 39.875 77.2114C39.6802 77.1505 39.4694 77.1693 39.2883 77.2637C39.1071 77.358 38.9701 77.5204 38.9069 77.7157C38.6065 78.6654 38.256 79.6151 37.8638 80.548C37.8121 80.665 37.7904 80.7932 37.8006 80.9209C37.8109 81.0485 37.8529 81.1715 37.9227 81.2786C37.9924 81.3857 38.0878 81.4734 38.2 81.5337C38.3122 81.594 38.4376 81.625 38.5648 81.6237ZM40.4341 75.7407C40.6097 75.7391 40.7797 75.6776 40.9161 75.5661C41.0525 75.4547 41.1474 75.2999 41.1851 75.1271C41.4082 74.0921 41.5754 73.0456 41.6859 71.9923C41.7045 71.7897 41.6432 71.5879 41.5151 71.4306C41.387 71.2732 41.2025 71.1731 41.0016 71.1518C40.8945 71.1267 40.7831 71.1267 40.6761 71.1518C40.6201 71.0473 40.5401 70.9578 40.4429 70.8905C40.3457 70.8233 40.2339 70.7804 40.117 70.7652C39.1446 70.63 38.1846 70.4164 37.2462 70.1265C37.0515 70.0652 36.8405 70.0843 36.6597 70.1797C36.479 70.2751 36.3432 70.4388 36.2824 70.635C36.2215 70.8311 36.2405 71.0436 36.3352 71.2256C36.4299 71.4077 36.5925 71.5444 36.7872 71.6057C37.8081 71.9193 38.8516 72.1525 39.9083 72.3033C39.972 72.3117 40.0366 72.3117 40.1003 72.3033C40.0001 73.1437 39.8583 73.9841 39.683 74.7742C39.6611 74.8736 39.659 74.9764 39.677 75.0766C39.6951 75.1768 39.7328 75.2724 39.788 75.3577C39.8432 75.443 39.9147 75.5164 39.9984 75.5735C40.0822 75.6306 40.1764 75.6703 40.2755 75.6902C40.3249 75.7183 40.3784 75.7382 40.4341 75.7491V75.7407ZM43.0795 72.5302C44.1383 72.5137 45.1949 72.4267 46.2423 72.2696C46.4422 72.2378 46.6215 72.1278 46.7413 71.9636C46.8611 71.7993 46.9116 71.594 46.8819 71.3924C46.8522 71.1908 46.7447 71.0092 46.5827 70.887C46.4208 70.7649 46.2174 70.712 46.017 70.74C45.0392 70.8911 44.052 70.9726 43.0628 70.9838C42.8592 70.9838 42.6639 71.0652 42.5199 71.2102C42.3759 71.3552 42.2951 71.5519 42.2951 71.757C42.2951 71.962 42.3759 72.1587 42.5199 72.3037C42.6639 72.4487 42.8592 72.5302 43.0628 72.5302H43.0795ZM49.1381 71.6225C49.2071 71.6346 49.2777 71.6346 49.3467 71.6225C50.3622 71.3235 51.3573 70.9586 52.3259 70.5299C52.513 70.4486 52.6602 70.2957 52.7353 70.105C52.8105 69.9143 52.8073 69.7013 52.7265 69.513C52.6457 69.3246 52.4939 69.1763 52.3046 69.1007C52.1152 69.025 51.9038 69.0282 51.7167 69.1096C50.8051 69.5052 49.8684 69.8393 48.9128 70.1097C48.718 70.1683 48.5538 70.3014 48.4555 70.4806C48.3572 70.6597 48.3326 70.8706 48.387 71.0678C48.4355 71.2305 48.5347 71.3732 48.67 71.4746C48.8053 71.576 48.9694 71.6308 49.1381 71.6309V71.6225ZM34.1752 70.5047C34.345 70.5017 34.5091 70.4422 34.6416 70.3353C34.7742 70.2284 34.8679 70.0802 34.908 69.914C34.948 69.7478 34.9322 69.5729 34.8631 69.4167C34.7939 69.2605 34.6753 69.1318 34.5257 69.0507C33.6662 68.6068 32.8598 68.0654 32.1223 67.4371C31.9677 67.304 31.7674 67.2374 31.5645 67.2516C31.3616 67.2657 31.1724 67.3595 31.0374 67.5127C30.9715 67.5899 30.9213 67.6794 30.8898 67.7762C30.8583 67.8729 30.8461 67.975 30.8538 68.0765C30.8616 68.178 30.8891 68.277 30.935 68.3677C30.9808 68.4585 31.044 68.5392 31.1209 68.6053C31.9433 69.3178 32.8484 69.9274 33.8164 70.4207C33.9269 70.4799 34.05 70.5116 34.1752 70.5131V70.5047ZM41.06 69.597C41.2643 69.5926 41.4587 69.5072 41.6009 69.3593C41.7431 69.2113 41.8216 69.0129 41.8194 68.807C41.8026 67.7441 41.7218 66.6832 41.5774 65.6302C41.5669 65.5265 41.5358 65.426 41.4858 65.3348C41.4358 65.2436 41.3681 65.1635 41.2866 65.0993C41.2051 65.0351 41.1116 64.9881 41.0116 64.9613C40.9117 64.9344 40.8074 64.9281 40.705 64.9428C40.6026 64.9576 40.5042 64.993 40.4157 65.047C40.3272 65.101 40.2505 65.1724 40.1901 65.257C40.1297 65.3416 40.0869 65.4377 40.0643 65.5393C40.0417 65.641 40.0398 65.7462 40.0585 65.8487C40.1933 66.8377 40.2685 67.834 40.2839 68.8322C40.2861 69.0381 40.3688 69.2347 40.5141 69.3795C40.6594 69.5243 40.8556 69.6054 41.06 69.6054V69.597ZM54.7794 69.202C54.9136 69.2 55.0452 69.1654 55.1633 69.1012C56.0761 68.5658 56.9567 67.9765 57.8004 67.3362C57.8817 67.2766 57.9502 67.201 58.002 67.1141C58.0537 67.0272 58.0876 66.9307 58.1016 66.8304C58.1156 66.73 58.1095 66.6279 58.0835 66.53C58.0576 66.4321 58.0124 66.3404 57.9506 66.2605C57.8904 66.1786 57.8148 66.1095 57.7281 66.0572C57.6414 66.0048 57.5453 65.9702 57.4452 65.9554C57.3452 65.9406 57.2433 65.9458 57.1452 65.9707C57.0472 65.9957 56.9551 66.0399 56.874 66.1008C56.0758 66.7141 55.2396 67.2755 54.3705 67.7817C54.2228 67.8662 54.107 67.9976 54.0414 68.1554C53.9758 68.3132 53.964 68.4885 54.0079 68.6538C54.0518 68.8191 54.1489 68.9651 54.284 69.0688C54.4191 69.1726 54.5845 69.2283 54.7544 69.2272L54.7794 69.202ZM29.6438 66.4454C29.7783 66.4458 29.9105 66.4111 30.0277 66.3445C30.1149 66.2933 30.1912 66.2252 30.2522 66.1442C30.3133 66.0633 30.3579 65.9709 30.3835 65.8726C30.409 65.7742 30.4151 65.6717 30.4013 65.571C30.3875 65.4703 30.3541 65.3733 30.3031 65.2856C30.0838 64.9025 29.8995 64.5003 29.7523 64.0837C29.5942 63.6399 29.4987 63.176 29.4685 62.7054C29.4623 62.6026 29.4355 62.5021 29.3898 62.41C29.3441 62.3178 29.2803 62.2359 29.2024 62.1692C29.1244 62.1025 29.0339 62.0523 28.9362 62.0217C28.8386 61.9911 28.7358 61.9807 28.634 61.991C28.5323 61.9984 28.4331 62.0262 28.3422 62.0726C28.2512 62.119 28.1704 62.1832 28.1044 62.2615C28.0383 62.3397 27.9884 62.4304 27.9576 62.5283C27.9267 62.6261 27.9156 62.7292 27.9247 62.8315C27.9687 63.4391 28.0922 64.0382 28.2919 64.6132C28.4701 65.12 28.6936 65.6094 28.9595 66.0756C29.0302 66.1939 29.1308 66.2912 29.251 66.3576C29.3712 66.4241 29.5067 66.4572 29.6438 66.4538V66.4454ZM59.6864 65.4873C59.8856 65.4862 60.0769 65.408 60.2205 65.2688L60.7295 64.7477C61.2886 64.1678 61.8311 63.5543 62.3485 62.9155C62.4768 62.7562 62.5371 62.552 62.516 62.3478C62.4948 62.1437 62.3941 61.9564 62.2358 61.8272C62.0776 61.6979 61.8748 61.6372 61.6721 61.6585C61.4695 61.6797 61.2835 61.7812 61.1551 61.9406C60.6711 62.5457 60.1537 63.1256 59.6279 63.6719L59.1523 64.1594C59.0801 64.2306 59.0228 64.3156 58.9836 64.4094C58.9445 64.5032 58.9243 64.6039 58.9243 64.7057C58.9243 64.8074 58.9445 64.9081 58.9836 65.0019C59.0228 65.0958 59.0801 65.1807 59.1523 65.252C59.2882 65.3958 59.4729 65.4828 59.6697 65.4957L59.6864 65.4873ZM40.1921 63.487C40.2667 63.4993 40.3428 63.4993 40.4174 63.487C40.5139 63.4573 40.6036 63.4087 40.6814 63.344C40.7592 63.2793 40.8235 63.1998 40.8708 63.11C40.9181 63.0203 40.9473 62.922 40.9569 62.8209C40.9664 62.7197 40.9561 62.6176 40.9264 62.5205C40.6176 61.4658 40.1714 60.4569 39.5996 59.5201C39.4889 59.3463 39.3142 59.2238 39.1139 59.1797C38.9135 59.1356 38.704 59.1734 38.5314 59.2848C38.3587 59.3963 38.2371 59.5722 38.1933 59.774C38.1495 59.9757 38.1871 60.1867 38.2977 60.3606C38.7987 61.1817 39.1888 62.0663 39.4577 62.9912C39.5111 63.1395 39.6087 63.2676 39.7372 63.3579C39.8657 63.4482 40.0187 63.4962 40.1754 63.4954L40.1921 63.487ZM63.5585 60.6968C63.6865 60.6972 63.8125 60.6651 63.9248 60.6034C64.0372 60.5417 64.1322 60.4524 64.2011 60.3438C64.7727 59.4581 65.2991 58.5436 65.7783 57.6039C65.8713 57.4212 65.8883 57.2087 65.8257 57.0132C65.7631 56.8178 65.626 56.6554 65.4445 56.5618C65.263 56.4682 65.0521 56.451 64.858 56.514C64.6639 56.5771 64.5027 56.7152 64.4097 56.898C63.9566 57.7917 63.458 58.6613 62.9159 59.5033C62.841 59.6199 62.7986 59.7547 62.7932 59.8935C62.7879 60.0323 62.8197 60.17 62.8855 60.2921C62.9512 60.4142 63.0484 60.5163 63.1669 60.5875C63.2853 60.6587 63.4206 60.6964 63.5585 60.6968ZM29.2015 60.5035C29.3535 60.5033 29.5021 60.4577 29.6284 60.3724C29.7547 60.2871 29.853 60.166 29.9108 60.0244C30.2302 59.2 30.7848 58.4894 31.5048 57.9821C31.6495 57.8608 31.745 57.6901 31.7729 57.5025C31.8009 57.3149 31.7594 57.1236 31.6563 56.9648C31.5533 56.806 31.3959 56.6909 31.2141 56.6414C31.0322 56.5919 30.8387 56.6114 30.6702 56.6963C29.6993 57.375 28.95 58.3285 28.5172 59.4361C28.4775 59.5293 28.4567 59.6294 28.4558 59.7308C28.4549 59.8322 28.4741 59.9327 28.5121 60.0265C28.5502 60.1204 28.6064 60.2057 28.6774 60.2774C28.7485 60.3492 28.833 60.406 28.9261 60.4446C29.0078 60.4821 29.0953 60.5049 29.1848 60.5119L29.2015 60.5035ZM36.854 58.436C36.9788 58.4354 37.1016 58.4045 37.212 58.346C37.3224 58.2875 37.4171 58.203 37.4882 58.0998C37.5453 58.0159 37.5854 57.9216 37.6063 57.8221C37.6271 57.7226 37.6282 57.62 37.6096 57.5201C37.591 57.4202 37.553 57.3249 37.4978 57.2398C37.4426 57.1547 37.3713 57.0814 37.288 57.024C36.3323 56.3584 35.2233 55.9504 34.0667 55.839C33.9633 55.8239 33.8579 55.8301 33.7569 55.8574C33.656 55.8848 33.5616 55.9325 33.4797 55.9979C33.3977 56.0632 33.3299 56.1447 33.2803 56.2374C33.2307 56.3301 33.2004 56.4319 33.1913 56.5368C33.1822 56.6417 33.1945 56.7473 33.2273 56.8472C33.2602 56.9472 33.313 57.0393 33.3824 57.118C33.4519 57.1966 33.5366 57.2602 33.6313 57.3047C33.726 57.3493 33.8287 57.3739 33.9332 57.377C34.8339 57.4644 35.6965 57.7858 36.4367 58.3099C36.5566 58.3886 36.6946 58.4349 36.8373 58.4444L36.854 58.436ZM66.3708 55.2087C66.5238 55.2079 66.6731 55.161 66.7995 55.0742C66.9259 54.9873 67.0236 54.8644 67.0802 54.7212C67.464 53.7547 67.8145 52.7546 68.115 51.7377C68.1494 51.6391 68.1637 51.5345 68.1568 51.4302C68.15 51.3259 68.1222 51.224 68.0752 51.1309C68.0282 51.0377 67.963 50.955 67.8834 50.888C67.8038 50.8209 67.7115 50.7708 67.6121 50.7407C67.5127 50.7105 67.4083 50.701 67.3052 50.7126C67.2021 50.7243 67.1023 50.7569 67.0121 50.8084C66.9218 50.86 66.8428 50.9294 66.7799 51.0126C66.7171 51.0957 66.6716 51.1909 66.6462 51.2922C66.3541 52.2587 66.0203 53.2252 65.6532 54.1497C65.5817 54.3405 65.587 54.5518 65.6681 54.7387C65.7492 54.9255 65.8995 55.0731 66.0871 55.1498C66.1705 55.1907 66.2615 55.2136 66.3541 55.2171L66.3708 55.2087ZM68.1484 49.3256C68.3244 49.3256 68.4951 49.2646 68.6319 49.1529C68.7686 49.0412 68.8631 48.8856 68.8994 48.7121C69.1164 47.6951 69.2916 46.653 69.4335 45.6024C69.4458 45.4068 69.3839 45.2139 69.2603 45.0625C69.1367 44.9111 68.9606 44.8127 68.7677 44.787C68.5747 44.7614 68.3793 44.8105 68.221 44.9245C68.0626 45.0384 67.9532 45.2086 67.9147 45.4007C67.7812 46.4093 67.6059 47.4094 67.3973 48.3927C67.3553 48.5933 67.3941 48.8025 67.5052 48.9743C67.6163 49.1461 67.7906 49.2664 67.9898 49.3088L68.1484 49.3256ZM68.9829 43.1988C69.1789 43.1971 69.367 43.1207 69.5094 42.9851C69.6518 42.8495 69.738 42.6646 69.7506 42.4676C69.7506 41.6271 69.8174 40.7867 69.8174 39.9463V39.2991C69.8088 39.0955 69.7223 38.9031 69.5761 38.7621C69.43 38.6211 69.2353 38.5425 69.0329 38.5427C68.9322 38.5427 68.8324 38.563 68.7396 38.6026C68.6468 38.6422 68.5629 38.7002 68.4928 38.7731C68.4227 38.846 68.3679 38.9324 68.3317 39.0271C68.2955 39.1218 68.2785 39.2229 68.2819 39.3243V39.9463C68.2819 40.7867 68.2819 41.5599 68.2151 42.3583C68.2071 42.461 68.2194 42.5643 68.2512 42.6622C68.283 42.7601 68.3337 42.8507 68.4004 42.9288C68.4671 43.0069 68.5485 43.071 68.6399 43.1173C68.7312 43.1637 68.8308 43.1913 68.9328 43.1988H68.9829Z" fill="#263238"/>
<path d="M61.2891 15.0608L65.879 35.1473L116 24.3056L61.2891 15.0608Z" fill="#F8961F"/>
<path opacity="0.3" d="M61.2891 15.0608L65.879 35.1473L116 24.3056L61.2891 15.0608Z" fill="black"/>
<path d="M116 24.3139L53.5949 22.6331L38.9324 45.3922L116 24.3139Z" fill="#F8961F"/>
<path d="M116 24.3056L61.2891 15.0607L74.1824 0L116 24.3056Z" fill="#F8961F"/>
</svg>
