<?xml version="1.0" encoding="UTF-8"?>
<!DOCTYPE svg PUBLIC "-//W3C//DTD SVG 1.1//EN" "http://www.w3.org/Graphics/SVG/1.1/DTD/svg11.dtd">
<svg xmlns="http://www.w3.org/2000/svg" version="1.1" width="484px" height="549px" style="shape-rendering:geometricPrecision; text-rendering:geometricPrecision; image-rendering:optimizeQuality; fill-rule:evenodd; clip-rule:evenodd" xmlns:xlink="http://www.w3.org/1999/xlink">
<g><path style="opacity:0.983" fill="#f6931d" d="M 308.5,42.5 C 344.792,38.5699 377.459,47.4033 406.5,69C 441.069,100.651 446.236,136.485 422,176.5C 403.048,199.232 378.881,213.066 349.5,218C 326.771,221.252 304.437,219.585 282.5,213C 280.5,212.333 278.5,212.333 276.5,213C 258.168,219.999 240.834,228.832 224.5,239.5C 223.369,237.926 223.202,236.259 224,234.5C 230.785,221.811 234.952,208.311 236.5,194C 236.049,190.08 235.216,186.247 234,182.5C 225.037,170.906 219.037,157.906 216,143.5C 212.524,111.29 223.691,85.4565 249.5,66C 267.297,53.348 286.964,45.5147 308.5,42.5 Z M 272.5,104.5 C 274.5,104.5 276.5,104.5 278.5,104.5C 278.5,107.833 278.5,111.167 278.5,114.5C 281.5,114.5 284.5,114.5 287.5,114.5C 287.5,116.5 287.5,118.5 287.5,120.5C 284.5,120.5 281.5,120.5 278.5,120.5C 278.334,128.174 278.5,135.841 279,143.5C 281.374,145.246 283.874,145.58 286.5,144.5C 289.688,149.506 288.188,151.506 282,150.5C 276.875,151.105 273.208,149.105 271,144.5C 269.777,136.547 269.277,128.547 269.5,120.5C 267.833,120.5 266.167,120.5 264.5,120.5C 263.735,115.094 266.069,113.094 271.5,114.5C 271.46,111.119 271.793,107.786 272.5,104.5 Z M 370.5,104.5 C 372.5,104.5 374.5,104.5 376.5,104.5C 376.5,107.833 376.5,111.167 376.5,114.5C 379.5,114.5 382.5,114.5 385.5,114.5C 385.5,116.5 385.5,118.5 385.5,120.5C 382.5,120.5 379.5,120.5 376.5,120.5C 376.334,127.841 376.5,135.174 377,142.5C 379.007,145.115 381.507,145.782 384.5,144.5C 387.652,149.539 386.152,151.539 380,150.5C 372.058,150.558 368.058,146.558 368,138.5C 367.501,132.509 367.334,126.509 367.5,120.5C 365.833,120.5 364.167,120.5 362.5,120.5C 361.735,115.094 364.069,113.094 369.5,114.5C 369.616,111.14 369.949,107.807 370.5,104.5 Z M 307.5,113.5 C 320.252,114.622 325.585,121.622 323.5,134.5C 315.833,134.5 308.167,134.5 300.5,134.5C 303.057,144.926 309.39,147.926 319.5,143.5C 320.382,144.76 321.382,145.926 322.5,147C 302.406,154.907 292.906,148.073 294,126.5C 296.451,119.88 300.951,115.546 307.5,113.5 Z M 329.5,114.5 C 331.857,114.337 334.19,114.503 336.5,115C 339.042,119.251 341.709,123.418 344.5,127.5C 347.323,123.864 349.656,119.864 351.5,115.5C 353.833,114.167 356.167,114.167 358.5,115.5C 355.419,121.331 352.085,126.998 348.5,132.5C 351.918,138.337 355.584,144.004 359.5,149.5C 357.235,150.647 354.902,150.814 352.5,150C 349.363,145.549 346.363,141.049 343.5,136.5C 340.47,140.717 337.804,145.217 335.5,150C 333.167,150.667 330.833,150.667 328.5,150C 332.041,143.751 335.707,137.584 339.5,131.5C 335.891,125.943 332.558,120.276 329.5,114.5 Z"/></g>
<g><path style="opacity:0.98" fill="#f6931d" d="M 141.5,102.5 C 165.176,102.167 188.843,102.5 212.5,103.5C 210.879,106.652 209.879,109.985 209.5,113.5C 205.818,113.335 202.152,113.501 198.5,114C 191.833,116 191.833,118 198.5,120C 201.482,120.498 204.482,120.665 207.5,120.5C 207.5,125.5 207.5,130.5 207.5,135.5C 181.833,135.5 156.167,135.5 130.5,135.5C 130.5,142.5 130.5,149.5 130.5,156.5C 126.5,156.5 122.5,156.5 118.5,156.5C 118.088,144.771 118.588,133.104 120,121.5C 124.585,112.073 131.751,105.739 141.5,102.5 Z M 178.5,114.5 C 181.114,114.277 182.781,115.444 183.5,118C 181.74,120.483 179.573,120.983 177,119.5C 176.387,117.505 176.887,115.838 178.5,114.5 Z"/></g>
<g><path style="opacity:0.887" fill="#f6931d" d="M 307.5,119.5 C 314.5,119.167 317.833,122.5 317.5,129.5C 311.833,129.5 306.167,129.5 300.5,129.5C 300.568,124.453 302.901,121.119 307.5,119.5 Z"/></g>
<g><path style="opacity:0.916" fill="#f6931d" d="M 109.5,160.5 C 139.725,156.969 166.725,164.469 190.5,183C 217.319,210.631 219.486,240.131 197,271.5C 196.196,277.569 196.529,283.569 198,289.5C 201.031,297.896 204.865,305.896 209.5,313.5C 209,313.833 208.5,314.167 208,314.5C 192.149,307.884 176.482,300.884 161,293.5C 126.149,305.328 93.6492,300.828 63.5,280C 36.8914,257.728 31.0581,230.895 46,199.5C 61.409,177.282 82.5757,164.282 109.5,160.5 Z M 111.5,171.5 C 138.487,168.409 162.487,175.242 183.5,192C 205.141,213.71 206.975,236.876 189,261.5C 184.972,271.505 184.472,281.672 187.5,292C 180.389,289.958 173.389,287.291 166.5,284C 164.667,283.833 162.833,283.667 161,283.5C 153.5,284.916 146,286.416 138.5,288C 114.054,291.18 91.7209,285.847 71.5,272C 43.5632,247.489 41.5632,221.156 65.5,193C 78.9331,181.693 94.2664,174.526 111.5,171.5 Z"/></g>
<g><path style="opacity:0.966" fill="#f6931d" d="M 74.5,219.5 C 80.1764,219.334 85.8431,219.501 91.5,220C 93.5624,221.532 94.8957,223.532 95.5,226C 94.703,229.745 94.203,233.579 94,237.5C 93.1667,238.333 92.3333,239.167 91.5,240C 85.8333,240.667 80.1667,240.667 74.5,240C 73.0692,239.535 71.9025,238.701 71,237.5C 70.3333,232.5 70.3333,227.5 71,222.5C 72.1451,221.364 73.3117,220.364 74.5,219.5 Z"/></g>
<g><path style="opacity:0.966" fill="#f6931d" d="M 115.5,219.5 C 121.176,219.334 126.843,219.501 132.5,220C 134.562,221.532 135.896,223.532 136.5,226C 135.703,229.745 135.203,233.579 135,237.5C 134.167,238.333 133.333,239.167 132.5,240C 126.833,240.667 121.167,240.667 115.5,240C 114.069,239.535 112.903,238.701 112,237.5C 111.333,232.5 111.333,227.5 112,222.5C 113.145,221.364 114.312,220.364 115.5,219.5 Z"/></g>
<g><path style="opacity:0.966" fill="#f6931d" d="M 156.5,219.5 C 162.176,219.334 167.843,219.501 173.5,220C 175.562,221.532 176.896,223.532 177.5,226C 176.703,229.745 176.203,233.579 176,237.5C 175.167,238.333 174.333,239.167 173.5,240C 167.833,240.667 162.167,240.667 156.5,240C 155.069,239.535 153.903,238.701 153,237.5C 152.333,232.5 152.333,227.5 153,222.5C 154.145,221.364 155.312,220.364 156.5,219.5 Z"/></g>
<g><path style="opacity:0.994" fill="#f6931d" d="M 305.5,226.5 C 310.473,227.164 315.473,227.497 320.5,227.5C 320.667,291.834 320.5,356.168 320,420.5C 317.389,430.109 311.556,436.942 302.5,441C 248.892,442.654 195.225,442.987 141.5,442C 130,438.5 122.5,431 119,419.5C 118.5,380.835 118.333,342.168 118.5,303.5C 122.5,303.5 126.5,303.5 130.5,303.5C 130.5,331.167 130.5,358.833 130.5,386.5C 188.833,386.5 247.167,386.5 305.5,386.5C 305.5,333.167 305.5,279.833 305.5,226.5 Z M 205.5,405.5 C 216.896,405.091 228.23,405.591 239.5,407C 246.42,414.255 245.087,419.588 235.5,423C 225.5,423.667 215.5,423.667 205.5,423C 197.209,420.919 195.043,416.085 199,408.5C 201.166,407.269 203.333,406.269 205.5,405.5 Z"/></g>
<g><path style="opacity:0.366" fill="#fcfcfc" d="M 311.5,517.5 C 313.833,516.833 316.167,516.167 318.5,515.5C 323.092,514.402 327.759,513.735 332.5,513.5C 336.761,513.102 340.761,512.102 344.5,510.5C 347.152,510.59 349.485,509.924 351.5,508.5C 358.799,507.523 364.466,504.023 368.5,498C 367.24,494.406 364.907,491.739 361.5,490C 357.095,487.628 352.428,486.128 347.5,485.5C 335.231,481.675 322.564,479.342 309.5,478.5C 297.383,476.627 285.05,475.461 272.5,475C 236.76,473.687 201.093,474.687 165.5,478C 153.85,479.216 142.517,481.383 131.5,484.5C 127.838,484.723 124.505,485.723 121.5,487.5C 117.638,488.428 113.971,489.928 110.5,492C 106.325,496.306 106.658,500.306 111.5,504C 115.203,506.354 119.203,507.854 123.5,508.5C 136.871,511.578 150.204,514.578 163.5,517.5C 143.934,516.621 125.267,512.121 107.5,504C 102.167,499.667 102.167,495.333 107.5,491C 122.71,483.863 138.71,479.53 155.5,478C 182.713,474.352 210.046,472.852 237.5,473.5C 275.617,472.344 313.283,475.844 350.5,484C 358.257,485.794 365.09,489.294 371,494.5C 372.293,498.582 371.126,501.749 367.5,504C 349.733,512.121 331.066,516.621 311.5,517.5 Z"/></g>
<g><path style="opacity:0.502" fill="#f2f2f2" d="M 309.5,478.5 C 306.167,478.5 302.833,478.5 299.5,478.5C 268.419,475.516 237.419,474.849 206.5,476.5C 199.857,477.212 193.191,477.546 186.5,477.5C 170.466,478.266 154.799,480.599 139.5,484.5C 136.833,484.5 134.167,484.5 131.5,484.5C 142.517,481.383 153.85,479.216 165.5,478C 201.093,474.687 236.76,473.687 272.5,475C 285.05,475.461 297.383,476.627 309.5,478.5 Z"/></g>
<g><path style="opacity:0.502" fill="#e7e8e7" d="M 206.5,476.5 C 237.419,474.849 268.419,475.516 299.5,478.5C 299.5,478.833 299.5,479.167 299.5,479.5C 294.493,479.249 289.493,478.916 284.5,478.5C 277.529,477.71 270.529,477.377 263.5,477.5C 244.674,476.503 225.674,476.17 206.5,476.5 Z"/></g>
<g><path style="opacity:0.502" fill="#dddedd" d="M 206.5,476.5 C 225.674,476.17 244.674,476.503 263.5,477.5C 244.164,477.333 224.83,477.5 205.5,478C 199.984,478.173 194.651,478.673 189.5,479.5C 188.5,479.5 187.5,479.5 186.5,479.5C 185.167,479.5 183.833,479.5 182.5,479.5C 183.833,478.833 185.167,478.167 186.5,477.5C 193.191,477.546 199.857,477.212 206.5,476.5 Z"/></g>
<g><path style="opacity:0.502" fill="#d3d4d3" d="M 263.5,477.5 C 270.529,477.377 277.529,477.71 284.5,478.5C 286.5,479.167 288.5,479.833 290.5,480.5C 288.167,480.5 285.833,480.5 283.5,480.5C 256.345,478.28 229.011,477.947 201.5,479.5C 197.5,479.5 193.5,479.5 189.5,479.5C 194.651,478.673 199.984,478.173 205.5,478C 224.83,477.5 244.164,477.333 263.5,477.5 Z"/></g>
<g><path style="opacity:0.502" fill="#c4c6c4" d="M 283.5,480.5 C 278.167,480.5 272.833,480.5 267.5,480.5C 246.5,480.5 225.5,480.5 204.5,480.5C 203.5,480.5 202.5,480.5 201.5,480.5C 201.5,480.167 201.5,479.833 201.5,479.5C 229.011,477.947 256.345,478.28 283.5,480.5 Z"/></g>
<g><path style="opacity:0.502" fill="#d9dad9" d="M 284.5,478.5 C 289.493,478.916 294.493,479.249 299.5,479.5C 300.167,479.5 300.833,479.5 301.5,479.5C 301.5,479.833 301.5,480.167 301.5,480.5C 297.833,480.5 294.167,480.5 290.5,480.5C 288.5,479.833 286.5,479.167 284.5,478.5 Z"/></g>
<g><path style="opacity:0.502" fill="#bec0be" d="M 267.5,480.5 C 272.833,480.5 278.167,480.5 283.5,480.5C 286.625,481.479 289.958,481.813 293.5,481.5C 294.833,482.167 296.167,482.833 297.5,483.5C 287.33,482.75 277.33,481.75 267.5,480.5 Z"/></g>
<g><path style="opacity:0.502" fill="#dfe0df" d="M 301.5,480.5 C 301.5,480.167 301.5,479.833 301.5,479.5C 313.184,480.224 324.517,482.224 335.5,485.5C 336.5,486.167 337.5,486.833 338.5,487.5C 337.167,487.5 335.833,487.5 334.5,487.5C 323.911,483.789 312.911,481.456 301.5,480.5 Z"/></g>
<g><path style="opacity:0.502" fill="#efefef" d="M 299.5,479.5 C 299.5,479.167 299.5,478.833 299.5,478.5C 302.833,478.5 306.167,478.5 309.5,478.5C 322.564,479.342 335.231,481.675 347.5,485.5C 347.5,485.833 347.5,486.167 347.5,486.5C 345.139,486.326 342.806,485.993 340.5,485.5C 338.833,485.5 337.167,485.5 335.5,485.5C 324.517,482.224 313.184,480.224 301.5,479.5C 300.833,479.5 300.167,479.5 299.5,479.5 Z"/></g>
<g><path style="opacity:0.502" fill="#e6e7e6" d="M 186.5,477.5 C 185.167,478.167 183.833,478.833 182.5,479.5C 169.144,480.026 156.144,482.026 143.5,485.5C 142.167,485.5 140.833,485.5 139.5,485.5C 139.5,485.167 139.5,484.833 139.5,484.5C 154.799,480.599 170.466,478.266 186.5,477.5 Z"/></g>
<g><path style="opacity:0.502" fill="#d9dad9" d="M 182.5,479.5 C 183.833,479.5 185.167,479.5 186.5,479.5C 178.311,480.639 169.978,481.805 161.5,483C 155.527,483.82 149.861,485.32 144.5,487.5C 143.167,487.5 141.833,487.5 140.5,487.5C 141.5,486.833 142.5,486.167 143.5,485.5C 156.144,482.026 169.144,480.026 182.5,479.5 Z"/></g>
<g><path style="opacity:0.502" fill="#cdcecd" d="M 186.5,479.5 C 187.5,479.5 188.5,479.5 189.5,479.5C 193.5,479.5 197.5,479.5 201.5,479.5C 201.5,479.833 201.5,480.167 201.5,480.5C 186.355,480.95 171.355,482.616 156.5,485.5C 152.647,486.797 148.647,487.797 144.5,488.5C 144.5,488.167 144.5,487.833 144.5,487.5C 149.861,485.32 155.527,483.82 161.5,483C 169.978,481.805 178.311,480.639 186.5,479.5 Z"/></g>
<g><path style="opacity:0.502" fill="#bec0be" d="M 201.5,480.5 C 202.5,480.5 203.5,480.5 204.5,480.5C 195.315,481.648 185.982,482.815 176.5,484C 175.263,484.232 174.263,484.732 173.5,485.5C 168.547,485.123 163.881,485.789 159.5,487.5C 158.5,487.5 157.5,487.5 156.5,487.5C 156.5,486.833 156.5,486.167 156.5,485.5C 171.355,482.616 186.355,480.95 201.5,480.5 Z"/></g>
<g><path style="opacity:0.502" fill="#b3b5b3" d="M 204.5,480.5 C 225.5,480.5 246.5,480.5 267.5,480.5C 277.33,481.75 287.33,482.75 297.5,483.5C 300.01,483.927 302.343,484.593 304.5,485.5C 302.833,485.5 301.167,485.5 299.5,485.5C 295.865,484.886 292.198,484.552 288.5,484.5C 281.042,483.105 273.375,482.271 265.5,482C 246.662,481.171 227.995,481.338 209.5,482.5C 208.833,482.5 208.167,482.5 207.5,482.5C 196.117,482.972 184.784,483.972 173.5,485.5C 174.263,484.732 175.263,484.232 176.5,484C 185.982,482.815 195.315,481.648 204.5,480.5 Z"/></g>
<g><path style="opacity:0.502" fill="#9da09d" d="M 207.5,482.5 C 208.167,482.5 208.833,482.5 209.5,482.5C 225.342,482.17 241.009,482.504 256.5,483.5C 240.991,483.17 225.658,483.504 210.5,484.5C 208.167,484.5 205.833,484.5 203.5,484.5C 202.167,484.5 200.833,484.5 199.5,484.5C 202.167,483.833 204.833,483.167 207.5,482.5 Z"/></g>
<g><path style="opacity:0.502" fill="#a6a9a6" d="M 209.5,482.5 C 227.995,481.338 246.662,481.171 265.5,482C 273.375,482.271 281.042,483.105 288.5,484.5C 286.5,484.5 284.5,484.5 282.5,484.5C 280.5,484.5 278.5,484.5 276.5,484.5C 269.745,484.793 263.078,484.46 256.5,483.5C 241.009,482.504 225.342,482.17 209.5,482.5 Z"/></g>
<g><path style="opacity:0.502" fill="#929592" d="M 210.5,484.5 C 225.658,483.504 240.991,483.17 256.5,483.5C 263.078,484.46 269.745,484.793 276.5,484.5C 278.167,485.167 279.833,485.833 281.5,486.5C 275.855,485.866 270.189,485.532 264.5,485.5C 260.833,485.5 257.167,485.5 253.5,485.5C 239.343,484.504 225.01,484.171 210.5,484.5 Z"/></g>
<g><path style="opacity:0.502" fill="#a8aba8" d="M 207.5,482.5 C 204.833,483.167 202.167,483.833 199.5,484.5C 192.984,484.79 186.65,485.457 180.5,486.5C 177.14,486.616 173.807,486.949 170.5,487.5C 171.5,486.833 172.5,486.167 173.5,485.5C 184.784,483.972 196.117,482.972 207.5,482.5 Z"/></g>
<g><path style="opacity:0.502" fill="#c4c6c4" d="M 293.5,481.5 C 300.631,481.852 307.631,482.852 314.5,484.5C 314.5,484.833 314.5,485.167 314.5,485.5C 313.167,485.5 311.833,485.5 310.5,485.5C 308.833,485.5 307.167,485.5 305.5,485.5C 305.167,485.5 304.833,485.5 304.5,485.5C 302.343,484.593 300.01,483.927 297.5,483.5C 296.167,482.833 294.833,482.167 293.5,481.5 Z"/></g>
<g><path style="opacity:0.502" fill="#f1f1f1" d="M 131.5,484.5 C 134.167,484.5 136.833,484.5 139.5,484.5C 139.5,484.833 139.5,485.167 139.5,485.5C 136.833,485.833 134.167,486.167 131.5,486.5C 125.372,487.375 119.872,489.709 115,493.5C 112.846,497.058 113.346,500.225 116.5,503C 120.219,505.364 124.219,506.864 128.5,507.5C 136.059,509.639 143.725,511.306 151.5,512.5C 152.167,512.833 152.833,513.167 153.5,513.5C 163.24,515.77 173.24,517.104 183.5,517.5C 184.791,517.263 185.791,517.596 186.5,518.5C 181.833,518.5 177.167,518.5 172.5,518.5C 169.287,518.81 166.287,518.477 163.5,517.5C 150.204,514.578 136.871,511.578 123.5,508.5C 120.283,506.583 116.949,504.749 113.5,503C 109.908,500.029 109.575,496.696 112.5,493C 115.564,491.141 118.564,489.308 121.5,487.5C 124.505,485.723 127.838,484.723 131.5,484.5 Z"/></g>
<g><path style="opacity:0.502" fill="#e2e3e2" d="M 139.5,485.5 C 133.727,487.49 128.06,489.99 122.5,493C 119.575,496.696 119.908,500.029 123.5,503C 127.203,505.354 131.203,506.854 135.5,507.5C 140.402,509.084 145.402,510.084 150.5,510.5C 150.833,511.167 151.167,511.833 151.5,512.5C 143.725,511.306 136.059,509.639 128.5,507.5C 126.058,505.774 123.391,504.274 120.5,503C 116.99,499.952 116.657,496.619 119.5,493C 123.434,490.536 127.434,488.369 131.5,486.5C 134.167,486.167 136.833,485.833 139.5,485.5 Z"/></g>
<g><path style="opacity:0.502" fill="#999c99" d="M 199.5,484.5 C 200.833,484.5 202.167,484.5 203.5,484.5C 194.948,485.723 186.281,487.057 177.5,488.5C 178.5,487.833 179.5,487.167 180.5,486.5C 186.65,485.457 192.984,484.79 199.5,484.5 Z"/></g>
<g><path style="opacity:0.502" fill="#7d817d" d="M 214.5,486.5 C 227.323,485.505 240.323,485.171 253.5,485.5C 257.167,485.5 260.833,485.5 264.5,485.5C 264.833,486.167 265.167,486.833 265.5,487.5C 264.5,487.5 263.5,487.5 262.5,487.5C 260.5,487.5 258.5,487.5 256.5,487.5C 244.011,486.505 231.344,486.171 218.5,486.5C 217.167,486.5 215.833,486.5 214.5,486.5 Z"/></g>
<g><path style="opacity:0.502" fill="#999c99" d="M 276.5,484.5 C 278.5,484.5 280.5,484.5 282.5,484.5C 284.167,485.167 285.833,485.833 287.5,486.5C 286.167,486.5 284.833,486.5 283.5,486.5C 282.833,486.5 282.167,486.5 281.5,486.5C 279.833,485.833 278.167,485.167 276.5,484.5 Z"/></g>
<g><path style="opacity:0.502" fill="#a7aaa7" d="M 288.5,484.5 C 292.198,484.552 295.865,484.886 299.5,485.5C 300.833,486.167 302.167,486.833 303.5,487.5C 298.23,487.237 293.23,486.237 288.5,484.5 Z"/></g>
<g><path style="opacity:0.502" fill="#c9cbc9" d="M 314.5,485.5 C 314.5,485.167 314.5,484.833 314.5,484.5C 317.495,484.294 320.162,484.96 322.5,486.5C 319.833,486.167 317.167,485.833 314.5,485.5 Z"/></g>
<g><path style="opacity:0.502" fill="#f6f6f6" d="M 347.5,486.5 C 347.5,486.167 347.5,485.833 347.5,485.5C 352.428,486.128 357.095,487.628 361.5,490C 364.907,491.739 367.24,494.406 368.5,498C 364.466,504.023 358.799,507.523 351.5,508.5C 356.162,506.744 360.329,504.077 364,500.5C 364.667,498.5 364.667,496.5 364,494.5C 359.217,490.359 353.717,487.692 347.5,486.5 Z"/></g>
<g><path style="opacity:0.502" fill="#717571" d="M 218.5,486.5 C 231.344,486.171 244.011,486.505 256.5,487.5C 244.988,487.172 233.654,487.505 222.5,488.5C 220.833,488.5 219.167,488.5 217.5,488.5C 215.5,488.5 213.5,488.5 211.5,488.5C 213.833,487.833 216.167,487.167 218.5,486.5 Z"/></g>
<g><path style="opacity:0.502" fill="#adb0ad" d="M 299.5,485.5 C 301.167,485.5 302.833,485.5 304.5,485.5C 304.833,485.5 305.167,485.5 305.5,485.5C 306.167,486.167 306.833,486.833 307.5,487.5C 306.167,487.5 304.833,487.5 303.5,487.5C 302.167,486.833 300.833,486.167 299.5,485.5 Z"/></g>
<g><path style="opacity:0.502" fill="#babcba" d="M 310.5,485.5 C 311.833,485.5 313.167,485.5 314.5,485.5C 315.167,486.167 315.833,486.833 316.5,487.5C 314.102,487.741 312.102,487.074 310.5,485.5 Z"/></g>
<g><path style="opacity:0.502" fill="#f0f1f0" d="M 347.5,486.5 C 353.717,487.692 359.217,490.359 364,494.5C 364.667,496.5 364.667,498.5 364,500.5C 360.329,504.077 356.162,506.744 351.5,508.5C 349.485,509.924 347.152,510.59 344.5,510.5C 348.844,507.822 353.51,505.322 358.5,503C 362.01,499.952 362.343,496.619 359.5,493C 355.566,490.536 351.566,488.369 347.5,486.5 Z"/></g>
<g><path style="opacity:0.502" fill="#f6f6f6" d="M 121.5,487.5 C 118.564,489.308 115.564,491.141 112.5,493C 109.575,496.696 109.908,500.029 113.5,503C 116.949,504.749 120.283,506.583 123.5,508.5C 119.203,507.854 115.203,506.354 111.5,504C 106.658,500.306 106.325,496.306 110.5,492C 113.971,489.928 117.638,488.428 121.5,487.5 Z"/></g>
<g><path style="opacity:0.502" fill="#6a6f6a" d="M 222.5,488.5 C 233.654,487.505 244.988,487.172 256.5,487.5C 258.5,487.5 260.5,487.5 262.5,487.5C 264.167,488.167 265.833,488.833 267.5,489.5C 252.519,488.623 237.519,488.29 222.5,488.5 Z"/></g>
<g><path style="opacity:0.502" fill="#7c807c" d="M 268.5,487.5 C 274.196,487.447 279.862,487.78 285.5,488.5C 290.395,489.879 295.395,490.879 300.5,491.5C 300.833,492.167 301.167,492.833 301.5,493.5C 302.511,495.402 302.678,497.402 302,499.5C 300.333,500.733 298.833,502.067 297.5,503.5C 296.833,503.5 296.167,503.5 295.5,503.5C 297.121,501.539 298.787,499.539 300.5,497.5C 299.207,495.181 297.207,493.848 294.5,493.5C 286.027,490.644 277.361,488.644 268.5,487.5 Z"/></g>
<g><path style="opacity:0.502" fill="#888c88" d="M 264.5,485.5 C 270.189,485.532 275.855,485.866 281.5,486.5C 282.167,486.5 282.833,486.5 283.5,486.5C 284.167,487.167 284.833,487.833 285.5,488.5C 279.862,487.78 274.196,487.447 268.5,487.5C 267.5,487.5 266.5,487.5 265.5,487.5C 265.167,486.833 264.833,486.167 264.5,485.5 Z"/></g>
<g><path style="opacity:0.502" fill="#c2c4c2" d="M 314.5,485.5 C 317.167,485.833 319.833,486.167 322.5,486.5C 322.833,486.5 323.167,486.5 323.5,486.5C 325.5,487.5 327.5,488.5 329.5,489.5C 325.24,488.415 320.906,487.748 316.5,487.5C 315.833,486.833 315.167,486.167 314.5,485.5 Z"/></g>
<g><path style="opacity:0.502" fill="#e3e4e3" d="M 335.5,485.5 C 337.167,485.5 338.833,485.5 340.5,485.5C 345.107,487.548 349.773,489.715 354.5,492C 356.584,493.501 357.917,495.501 358.5,498C 354.171,504.183 348.171,507.683 340.5,508.5C 360.78,499.988 360.113,492.988 338.5,487.5C 337.5,486.833 336.5,486.167 335.5,485.5 Z"/></g>
<g><path style="opacity:0.502" fill="#eaebea" d="M 131.5,486.5 C 127.434,488.369 123.434,490.536 119.5,493C 116.657,496.619 116.99,499.952 120.5,503C 123.391,504.274 126.058,505.774 128.5,507.5C 124.219,506.864 120.219,505.364 116.5,503C 113.346,500.225 112.846,497.058 115,493.5C 119.872,489.709 125.372,487.375 131.5,486.5 Z"/></g>
<g><path style="opacity:0.502" fill="#dddedd" d="M 139.5,485.5 C 140.833,485.5 142.167,485.5 143.5,485.5C 142.5,486.167 141.5,486.833 140.5,487.5C 139.209,487.263 138.209,487.596 137.5,488.5C 119.66,493.467 118.994,499.8 135.5,507.5C 131.203,506.854 127.203,505.354 123.5,503C 119.908,500.029 119.575,496.696 122.5,493C 128.06,489.99 133.727,487.49 139.5,485.5 Z"/></g>
<g><path style="opacity:0.502" fill="#d0d2d0" d="M 140.5,487.5 C 141.833,487.5 143.167,487.5 144.5,487.5C 144.5,487.833 144.5,488.167 144.5,488.5C 137.806,488.991 133.139,492.158 130.5,498C 130.439,499.711 131.106,501.044 132.5,502C 136.219,504.364 140.219,505.864 144.5,506.5C 148.085,507.583 151.751,508.249 155.5,508.5C 156.833,509.167 158.167,509.833 159.5,510.5C 163.461,511.684 167.461,512.684 171.5,513.5C 168.833,513.5 166.167,513.5 163.5,513.5C 162.833,513.5 162.167,513.5 161.5,513.5C 157.851,512.609 154.184,511.609 150.5,510.5C 145.275,508.684 139.942,506.851 134.5,505C 131.827,503.999 129.493,502.499 127.5,500.5C 126.515,498.902 126.349,497.235 127,495.5C 129.998,492.262 133.498,489.929 137.5,488.5C 138.209,487.596 139.209,487.263 140.5,487.5 Z"/></g>
<g><path style="opacity:0.502" fill="#a1a4a1" d="M 180.5,486.5 C 179.5,487.167 178.5,487.833 177.5,488.5C 176.167,488.5 174.833,488.5 173.5,488.5C 169.173,489.551 164.84,490.718 160.5,492C 159.944,492.383 159.611,492.883 159.5,493.5C 158.5,493.5 157.5,493.5 156.5,493.5C 160.056,491.354 163.722,489.354 167.5,487.5C 168.5,487.5 169.5,487.5 170.5,487.5C 173.807,486.949 177.14,486.616 180.5,486.5 Z"/></g>
<g><path style="opacity:0.502" fill="#5e635e" d="M 217.5,489.5 C 217.5,489.167 217.5,488.833 217.5,488.5C 219.167,488.5 220.833,488.5 222.5,488.5C 237.519,488.29 252.519,488.623 267.5,489.5C 267.5,489.833 267.5,490.167 267.5,490.5C 250.847,489.688 234.18,489.355 217.5,489.5 Z"/></g>
<g><path style="opacity:0.502" fill="#dddedd" d="M 338.5,487.5 C 360.113,492.988 360.78,499.988 340.5,508.5C 331.11,511.164 321.443,513.164 311.5,514.5C 311.5,514.167 311.5,513.833 311.5,513.5C 316.437,512.787 321.104,511.453 325.5,509.5C 329.985,508.66 334.319,507.66 338.5,506.5C 342.062,506.035 345.395,504.868 348.5,503C 352.01,499.952 352.343,496.619 349.5,493C 345.741,491.121 342.075,489.287 338.5,487.5 Z"/></g>
<g><path style="opacity:0.502" fill="#b1b3b1" d="M 173.5,485.5 C 172.5,486.167 171.5,486.833 170.5,487.5C 169.5,487.5 168.5,487.5 167.5,487.5C 163.988,487.924 160.655,488.924 157.5,490.5C 154.779,490.963 152.112,491.629 149.5,492.5C 152.623,490.456 155.956,488.789 159.5,487.5C 163.881,485.789 168.547,485.123 173.5,485.5 Z"/></g>
<g><path style="opacity:0.502" fill="#838783" d="M 206.5,486.5 C 197.321,488.339 187.988,490.006 178.5,491.5C 177.5,491.5 176.5,491.5 175.5,491.5C 185.425,488.13 195.758,486.463 206.5,486.5 Z"/></g>
<g><path style="opacity:0.502" fill="#6c706c" d="M 211.5,488.5 C 213.5,488.5 215.5,488.5 217.5,488.5C 217.5,488.833 217.5,489.167 217.5,489.5C 216.167,489.5 214.833,489.5 213.5,489.5C 209.143,489.586 204.81,489.92 200.5,490.5C 199.167,490.5 197.833,490.5 196.5,490.5C 196.918,489.778 197.584,489.278 198.5,489C 202.821,488.501 207.154,488.334 211.5,488.5 Z"/></g>
<g><path style="opacity:0.502" fill="#545954" d="M 213.5,489.5 C 214.833,489.5 216.167,489.5 217.5,489.5C 234.18,489.355 250.847,489.688 267.5,490.5C 268.492,490.328 269.158,490.662 269.5,491.5C 266.5,491.5 263.5,491.5 260.5,491.5C 257.5,491.5 254.5,491.5 251.5,491.5C 237.656,490.291 223.656,490.291 209.5,491.5C 210.833,490.833 212.167,490.167 213.5,489.5 Z"/></g>
<g><path style="opacity:0.502" fill="#989b98" d="M 295.5,488.5 C 301.324,488.277 306.99,489.11 312.5,491C 313.056,491.383 313.389,491.883 313.5,492.5C 311.565,491.85 309.565,491.517 307.5,491.5C 303.407,490.492 299.407,489.492 295.5,488.5 Z"/></g>
<g><path style="opacity:0.502" fill="#aaadaa" d="M 307.5,487.5 C 312.529,487.92 317.195,489.254 321.5,491.5C 319.139,491.326 316.806,490.993 314.5,490.5C 311.904,489.945 309.571,488.945 307.5,487.5 Z"/></g>
<g><path style="opacity:0.502" fill="#d7d8d7" d="M 334.5,487.5 C 335.833,487.5 337.167,487.5 338.5,487.5C 342.075,489.287 345.741,491.121 349.5,493C 352.343,496.619 352.01,499.952 348.5,503C 345.395,504.868 342.062,506.035 338.5,506.5C 341.985,505.152 345.152,503.152 348,500.5C 349.173,496.695 348.007,493.861 344.5,492C 340.958,490.725 337.625,489.225 334.5,487.5 Z"/></g>
<g><path style="opacity:0.502" fill="#d7d8d7" d="M 137.5,488.5 C 133.498,489.929 129.998,492.262 127,495.5C 126.349,497.235 126.515,498.902 127.5,500.5C 129.493,502.499 131.827,503.999 134.5,505C 139.942,506.851 145.275,508.684 150.5,510.5C 145.402,510.084 140.402,509.084 135.5,507.5C 118.994,499.8 119.66,493.467 137.5,488.5 Z"/></g>
<g><path style="opacity:0.502" fill="#caccca" d="M 144.5,488.5 C 129.852,494.559 129.852,500.559 144.5,506.5C 140.219,505.864 136.219,504.364 132.5,502C 131.106,501.044 130.439,499.711 130.5,498C 133.139,492.158 137.806,488.991 144.5,488.5 Z"/></g>
<g><path style="opacity:0.502" fill="#5e635e" d="M 213.5,489.5 C 212.167,490.167 210.833,490.833 209.5,491.5C 209.167,491.5 208.833,491.5 208.5,491.5C 205.833,491.5 203.167,491.5 200.5,491.5C 200.5,491.167 200.5,490.833 200.5,490.5C 204.81,489.92 209.143,489.586 213.5,489.5 Z"/></g>
<g><path style="opacity:0.502" fill="#b1b4b1" d="M 305.5,485.5 C 307.167,485.5 308.833,485.5 310.5,485.5C 312.102,487.074 314.102,487.741 316.5,487.5C 320.871,489.182 325.205,491.182 329.5,493.5C 332.6,497.502 331.933,500.669 327.5,503C 324.978,504.341 322.311,505.174 319.5,505.5C 321.942,503.774 324.609,502.274 327.5,501C 329.126,495.757 327.126,492.59 321.5,491.5C 317.195,489.254 312.529,487.92 307.5,487.5C 306.833,486.833 306.167,486.167 305.5,485.5 Z"/></g>
<g><path style="opacity:0.502" fill="#c3c5c3" d="M 329.5,489.5 C 344.675,493.546 345.342,499.213 331.5,506.5C 327.767,506.87 324.101,507.537 320.5,508.5C 320.62,507.414 321.287,506.747 322.5,506.5C 324.762,505.533 327.095,504.866 329.5,504.5C 332.262,503.62 334.929,502.454 337.5,501C 338.987,495.291 336.654,492.124 330.5,491.5C 330.167,490.833 329.833,490.167 329.5,489.5 Z"/></g>
<g><path style="opacity:0.502" fill="#caccca" d="M 323.5,486.5 C 331.566,487.463 338.732,490.463 345,495.5C 345.756,497.809 345.256,499.809 343.5,501.5C 339.77,503.961 335.77,505.628 331.5,506.5C 345.342,499.213 344.675,493.546 329.5,489.5C 327.5,488.5 325.5,487.5 323.5,486.5 Z"/></g>
<g><path style="opacity:0.502" fill="#d1d2d1" d="M 283.5,480.5 C 285.833,480.5 288.167,480.5 290.5,480.5C 294.167,480.5 297.833,480.5 301.5,480.5C 312.911,481.456 323.911,483.789 334.5,487.5C 337.625,489.225 340.958,490.725 344.5,492C 348.007,493.861 349.173,496.695 348,500.5C 345.152,503.152 341.985,505.152 338.5,506.5C 334.319,507.66 329.985,508.66 325.5,509.5C 327.371,508.203 329.371,507.203 331.5,506.5C 335.77,505.628 339.77,503.961 343.5,501.5C 345.256,499.809 345.756,497.809 345,495.5C 338.732,490.463 331.566,487.463 323.5,486.5C 323.167,486.5 322.833,486.5 322.5,486.5C 320.162,484.96 317.495,484.294 314.5,484.5C 307.631,482.852 300.631,481.852 293.5,481.5C 289.958,481.813 286.625,481.479 283.5,480.5 Z"/></g>
<g><path style="opacity:0.502" fill="#e9eae9" d="M 340.5,485.5 C 342.806,485.993 345.139,486.326 347.5,486.5C 351.566,488.369 355.566,490.536 359.5,493C 362.343,496.619 362.01,499.952 358.5,503C 353.51,505.322 348.844,507.822 344.5,510.5C 341.291,510.411 338.125,510.744 335,511.5C 333.624,511.684 332.791,512.351 332.5,513.5C 327.759,513.735 323.092,514.402 318.5,515.5C 306.798,516.134 295.131,517.134 283.5,518.5C 282.167,518.5 280.833,518.5 279.5,518.5C 279.5,518.167 279.5,517.833 279.5,517.5C 290.151,516.354 300.818,515.354 311.5,514.5C 321.443,513.164 331.11,511.164 340.5,508.5C 348.171,507.683 354.171,504.183 358.5,498C 357.917,495.501 356.584,493.501 354.5,492C 349.773,489.715 345.107,487.548 340.5,485.5 Z"/></g>
<g><path style="opacity:0.502" fill="#8e928e" d="M 203.5,484.5 C 205.833,484.5 208.167,484.5 210.5,484.5C 225.01,484.171 239.343,484.504 253.5,485.5C 240.323,485.171 227.323,485.505 214.5,486.5C 211.833,486.5 209.167,486.5 206.5,486.5C 195.758,486.463 185.425,488.13 175.5,491.5C 173.5,491.833 171.5,492.167 169.5,492.5C 166.001,492.909 163.668,494.743 162.5,498C 164.508,501.342 167.508,503.176 171.5,503.5C 174.789,504.374 178.123,505.041 181.5,505.5C 183.167,505.5 184.833,505.5 186.5,505.5C 187.167,506.167 187.833,506.833 188.5,507.5C 187.167,507.5 185.833,507.5 184.5,507.5C 176.411,506.685 168.744,504.685 161.5,501.5C 159.752,499.84 159.252,497.84 160,495.5C 164.329,492.68 168.829,490.346 173.5,488.5C 174.833,488.5 176.167,488.5 177.5,488.5C 186.281,487.057 194.948,485.723 203.5,484.5 Z"/></g>
<g><path style="opacity:0.502" fill="#c4c6c4" d="M 156.5,485.5 C 156.5,486.167 156.5,486.833 156.5,487.5C 154.708,487.366 153.042,487.699 151.5,488.5C 131.5,494.5 131.5,500.5 151.5,506.5C 152.995,506.989 154.329,507.655 155.5,508.5C 151.751,508.249 148.085,507.583 144.5,506.5C 129.852,500.559 129.852,494.559 144.5,488.5C 148.647,487.797 152.647,486.797 156.5,485.5 Z"/></g>
<g><path style="opacity:0.502" fill="#bdbfbd" d="M 151.5,488.5 C 149.058,490.226 146.391,491.726 143.5,493C 140.542,495.128 139.876,497.794 141.5,501C 144.949,502.749 148.283,504.583 151.5,506.5C 131.5,500.5 131.5,494.5 151.5,488.5 Z"/></g>
<g><path style="opacity:0.502" fill="#b1b3b1" d="M 149.5,492.5 C 148.878,493.627 148.045,494.627 147,495.5C 146.333,496.833 146.333,498.167 147,499.5C 148.965,501.55 151.132,503.217 153.5,504.5C 149.719,504.026 146.552,502.359 144,499.5C 143.068,495.039 144.901,492.706 149.5,492.5 Z"/></g>
<g><path style="opacity:0.502" fill="#acafac" d="M 157.5,490.5 C 155.727,491.892 153.727,493.059 151.5,494C 148.421,498.165 149.421,500.999 154.5,502.5C 157.321,504.712 160.655,505.712 164.5,505.5C 165.167,506.167 165.833,506.833 166.5,507.5C 161.688,508.035 157.355,507.035 153.5,504.5C 151.132,503.217 148.965,501.55 147,499.5C 146.333,498.167 146.333,496.833 147,495.5C 148.045,494.627 148.878,493.627 149.5,492.5C 152.112,491.629 154.779,490.963 157.5,490.5 Z"/></g>
<g><path style="opacity:0.502" fill="#989b98" d="M 173.5,488.5 C 168.829,490.346 164.329,492.68 160,495.5C 159.252,497.84 159.752,499.84 161.5,501.5C 157.086,499.845 156.419,497.178 159.5,493.5C 159.611,492.883 159.944,492.383 160.5,492C 164.84,490.718 169.173,489.551 173.5,488.5 Z"/></g>
<g><path style="opacity:0.502" fill="#808480" d="M 175.5,491.5 C 176.5,491.5 177.5,491.5 178.5,491.5C 176.645,493.033 174.812,494.7 173,496.5C 172.51,497.793 172.343,499.127 172.5,500.5C 174.216,500.629 175.883,500.962 177.5,501.5C 180.507,502.514 183.507,503.514 186.5,504.5C 186.5,504.833 186.5,505.167 186.5,505.5C 184.833,505.5 183.167,505.5 181.5,505.5C 177.169,503.992 173.002,501.992 169,499.5C 168.333,498.167 168.333,496.833 169,495.5C 171.314,494.267 173.481,492.933 175.5,491.5 Z"/></g>
<g><path style="opacity:0.502" fill="#6e736e" d="M 190.5,491.5 C 188.402,492.935 186.069,494.102 183.5,495C 181.288,498.716 182.621,500.883 187.5,501.5C 189.371,502.797 191.371,503.797 193.5,504.5C 191.167,504.5 188.833,504.5 186.5,504.5C 184.791,502.187 182.457,500.687 179.5,500C 178.941,499.275 178.608,498.442 178.5,497.5C 180.122,495.359 182.122,493.692 184.5,492.5C 186.265,491.539 188.265,491.205 190.5,491.5 Z"/></g>
<g><path style="opacity:0.502" fill="#494f49" d="M 251.5,491.5 C 250.167,491.5 248.833,491.5 247.5,491.5C 235.378,491.059 223.378,491.726 211.5,493.5C 210.167,493.5 208.833,493.5 207.5,493.5C 207.5,493.167 207.5,492.833 207.5,492.5C 208.167,492.5 208.5,492.167 208.5,491.5C 208.833,491.5 209.167,491.5 209.5,491.5C 223.656,490.291 237.656,490.291 251.5,491.5 Z"/></g>
<g><path style="opacity:0.502" fill="#3d433d" d="M 247.5,491.5 C 247.5,491.833 247.5,492.167 247.5,492.5C 246.167,492.5 244.833,492.5 243.5,492.5C 234.035,492.105 224.702,492.772 215.5,494.5C 214.167,494.5 212.833,494.5 211.5,494.5C 211.5,494.167 211.5,493.833 211.5,493.5C 223.378,491.726 235.378,491.059 247.5,491.5 Z"/></g>
<g><path style="opacity:0.502" fill="#b9bbb9" d="M 316.5,487.5 C 320.906,487.748 325.24,488.415 329.5,489.5C 329.833,490.167 330.167,490.833 330.5,491.5C 332.868,492.872 334.535,494.872 335.5,497.5C 334.198,500.466 332.198,502.799 329.5,504.5C 327.095,504.866 324.762,505.533 322.5,506.5C 321.287,506.747 320.62,507.414 320.5,508.5C 314.743,509.181 309.077,510.181 303.5,511.5C 302.167,511.5 300.833,511.5 299.5,511.5C 300.833,510.833 302.167,510.167 303.5,509.5C 309.223,509.223 314.557,507.889 319.5,505.5C 322.311,505.174 324.978,504.341 327.5,503C 331.933,500.669 332.6,497.502 329.5,493.5C 325.205,491.182 320.871,489.182 316.5,487.5 Z"/></g>
<g><path style="opacity:0.502" fill="#bec0be" d="M 330.5,491.5 C 336.654,492.124 338.987,495.291 337.5,501C 334.929,502.454 332.262,503.62 329.5,504.5C 332.198,502.799 334.198,500.466 335.5,497.5C 334.535,494.872 332.868,492.872 330.5,491.5 Z"/></g>
<g><path style="opacity:0.502" fill="#a7aaa7" d="M 167.5,487.5 C 163.722,489.354 160.056,491.354 156.5,493.5C 150.655,495.219 149.988,498.219 154.5,502.5C 149.421,500.999 148.421,498.165 151.5,494C 153.727,493.059 155.727,491.892 157.5,490.5C 160.655,488.924 163.988,487.924 167.5,487.5 Z"/></g>
<g><path style="opacity:0.502" fill="#a2a5a2" d="M 156.5,493.5 C 154.752,495.16 154.252,497.16 155,499.5C 157.855,502.227 161.022,504.227 164.5,505.5C 160.655,505.712 157.321,504.712 154.5,502.5C 149.988,498.219 150.655,495.219 156.5,493.5 Z"/></g>
<g><path style="opacity:0.502" fill="#8d918d" d="M 169.5,492.5 C 167.938,493.785 166.604,495.285 165.5,497C 166.399,500.263 168.399,502.429 171.5,503.5C 167.508,503.176 164.508,501.342 162.5,498C 163.668,494.743 166.001,492.909 169.5,492.5 Z"/></g>
<g><path style="opacity:0.502" fill="#878b87" d="M 175.5,491.5 C 173.481,492.933 171.314,494.267 169,495.5C 168.333,496.833 168.333,498.167 169,499.5C 173.002,501.992 177.169,503.992 181.5,505.5C 178.123,505.041 174.789,504.374 171.5,503.5C 168.399,502.429 166.399,500.263 165.5,497C 166.604,495.285 167.938,493.785 169.5,492.5C 171.5,492.167 173.5,491.833 175.5,491.5 Z"/></g>
<g><path style="opacity:0.502" fill="#797d79" d="M 206.5,486.5 C 209.167,486.5 211.833,486.5 214.5,486.5C 215.833,486.5 217.167,486.5 218.5,486.5C 216.167,487.167 213.833,487.833 211.5,488.5C 207.154,488.334 202.821,488.501 198.5,489C 197.584,489.278 196.918,489.778 196.5,490.5C 194.379,490.325 192.379,490.659 190.5,491.5C 188.265,491.205 186.265,491.539 184.5,492.5C 181.325,492.503 178.492,493.503 176,495.5C 175.678,497.689 176.178,499.689 177.5,501.5C 175.883,500.962 174.216,500.629 172.5,500.5C 172.343,499.127 172.51,497.793 173,496.5C 174.812,494.7 176.645,493.033 178.5,491.5C 187.988,490.006 197.321,488.339 206.5,486.5 Z"/></g>
<g><path style="opacity:0.502" fill="#747874" d="M 184.5,492.5 C 182.122,493.692 180.122,495.359 178.5,497.5C 178.608,498.442 178.941,499.275 179.5,500C 182.457,500.687 184.791,502.187 186.5,504.5C 183.507,503.514 180.507,502.514 177.5,501.5C 176.178,499.689 175.678,497.689 176,495.5C 178.492,493.503 181.325,492.503 184.5,492.5 Z"/></g>
<g><path style="opacity:0.502" fill="#686d68" d="M 196.5,490.5 C 197.833,490.5 199.167,490.5 200.5,490.5C 200.5,490.833 200.5,491.167 200.5,491.5C 194.47,491.242 189.47,493.242 185.5,497.5C 185.752,499.073 186.418,500.406 187.5,501.5C 182.621,500.883 181.288,498.716 183.5,495C 186.069,494.102 188.402,492.935 190.5,491.5C 192.379,490.659 194.379,490.325 196.5,490.5 Z"/></g>
<g><path style="opacity:0.502" fill="#616661" d="M 200.5,491.5 C 198.157,492.344 195.824,493.344 193.5,494.5C 190.873,494.293 189.207,495.46 188.5,498C 189.973,500.233 191.973,501.733 194.5,502.5C 192.139,502.326 189.806,501.993 187.5,501.5C 186.418,500.406 185.752,499.073 185.5,497.5C 189.47,493.242 194.47,491.242 200.5,491.5 Z"/></g>
<g><path style="opacity:0.502" fill="#555a55" d="M 200.5,491.5 C 203.167,491.5 205.833,491.5 208.5,491.5C 208.5,492.167 208.167,492.5 207.5,492.5C 203.268,492.778 199.268,493.944 195.5,496C 194.549,496.718 194.383,497.551 195,498.5C 196.145,499.636 197.312,500.636 198.5,501.5C 195.614,501.39 193.28,500.223 191.5,498C 191.978,496.697 192.645,495.531 193.5,494.5C 195.824,493.344 198.157,492.344 200.5,491.5 Z"/></g>
<g><path style="opacity:0.502" fill="#282f28" d="M 228.5,494.5 C 233.305,493.513 238.305,493.179 243.5,493.5C 247.269,493.244 250.936,493.577 254.5,494.5C 254.5,494.833 254.5,495.167 254.5,495.5C 253.167,495.5 251.833,495.5 250.5,495.5C 243.922,494.54 237.255,494.207 230.5,494.5C 229.833,494.5 229.167,494.5 228.5,494.5 Z"/></g>
<g><path style="opacity:0.502" fill="#424842" d="M 247.5,492.5 C 247.5,492.167 247.5,491.833 247.5,491.5C 248.833,491.5 250.167,491.5 251.5,491.5C 254.5,491.5 257.5,491.5 260.5,491.5C 263.887,492.288 267.22,493.288 270.5,494.5C 271.66,495.265 272.66,496.265 273.5,497.5C 271.985,499.082 270.319,500.416 268.5,501.5C 267.167,501.5 265.833,501.5 264.5,501.5C 264.5,501.167 264.5,500.833 264.5,500.5C 267.061,500.553 269.061,499.553 270.5,497.5C 268.649,495.544 266.316,494.544 263.5,494.5C 258.417,492.922 253.084,492.255 247.5,492.5 Z"/></g>
<g><path style="opacity:0.502" fill="#5a5f5a" d="M 276.5,492.5 C 280.643,492.652 283.976,494.319 286.5,497.5C 284.838,499.652 282.838,501.318 280.5,502.5C 279.209,502.263 278.209,502.596 277.5,503.5C 275.833,503.5 274.167,503.5 272.5,503.5C 272.5,502.833 272.833,502.5 273.5,502.5C 277.643,502.348 280.976,500.681 283.5,497.5C 281.313,495.578 278.98,493.912 276.5,492.5 Z"/></g>
<g><path style="opacity:0.502" fill="#626762" d="M 267.5,490.5 C 267.5,490.167 267.5,489.833 267.5,489.5C 273.333,489.75 279,490.75 284.5,492.5C 286.355,493.69 288.188,495.023 290,496.5C 290.667,497.5 290.667,498.5 290,499.5C 286.995,501.002 283.829,502.002 280.5,502.5C 282.838,501.318 284.838,499.652 286.5,497.5C 283.976,494.319 280.643,492.652 276.5,492.5C 274.958,491.699 273.292,491.366 271.5,491.5C 270.833,491.5 270.167,491.5 269.5,491.5C 269.158,490.662 268.492,490.328 267.5,490.5 Z"/></g>
<g><path style="opacity:0.502" fill="#6e736e" d="M 262.5,487.5 C 263.5,487.5 264.5,487.5 265.5,487.5C 266.5,487.5 267.5,487.5 268.5,487.5C 277.361,488.644 286.027,490.644 294.5,493.5C 296.517,495.217 296.85,497.217 295.5,499.5C 291.727,501.517 288.061,503.517 284.5,505.5C 283.167,505.5 281.833,505.5 280.5,505.5C 276.846,505.942 273.179,506.276 269.5,506.5C 269.5,506.167 269.5,505.833 269.5,505.5C 272.096,504.735 274.763,504.401 277.5,504.5C 283.288,503.962 288.455,501.962 293,498.5C 293.507,497.004 293.007,495.837 291.5,495C 289.35,493.589 287.016,492.755 284.5,492.5C 279,490.75 273.333,489.75 267.5,489.5C 265.833,488.833 264.167,488.167 262.5,487.5 Z"/></g>
<g><path style="opacity:0.502" fill="#757975" d="M 294.5,493.5 C 297.207,493.848 299.207,495.181 300.5,497.5C 298.787,499.539 297.121,501.539 295.5,503.5C 291.864,504.326 288.197,504.992 284.5,505.5C 288.061,503.517 291.727,501.517 295.5,499.5C 296.85,497.217 296.517,495.217 294.5,493.5 Z"/></g>
<g><path style="opacity:0.502" fill="#888c88" d="M 300.5,491.5 C 312.032,493.783 313.032,497.783 303.5,503.5C 301.833,504.167 300.167,504.833 298.5,505.5C 297.833,505.5 297.167,505.5 296.5,505.5C 296.833,504.833 297.167,504.167 297.5,503.5C 300.736,502.473 303.902,501.139 307,499.5C 307.198,495.856 305.365,493.856 301.5,493.5C 301.167,492.833 300.833,492.167 300.5,491.5 Z"/></g>
<g><path style="opacity:0.502" fill="#a0a3a0" d="M 282.5,484.5 C 284.5,484.5 286.5,484.5 288.5,484.5C 293.23,486.237 298.23,487.237 303.5,487.5C 304.833,487.5 306.167,487.5 307.5,487.5C 309.571,488.945 311.904,489.945 314.5,490.5C 316.255,491.792 318.255,492.792 320.5,493.5C 323.658,497.863 322.658,500.863 317.5,502.5C 320.973,497.182 319.639,493.848 313.5,492.5C 313.389,491.883 313.056,491.383 312.5,491C 306.99,489.11 301.324,488.277 295.5,488.5C 292.833,487.833 290.167,487.167 287.5,486.5C 285.833,485.833 284.167,485.167 282.5,484.5 Z"/></g>
<g><path style="opacity:0.502" fill="#abaeab" d="M 321.5,491.5 C 327.126,492.59 329.126,495.757 327.5,501C 324.609,502.274 321.942,503.774 319.5,505.5C 315.864,506.326 312.197,506.992 308.5,507.5C 311.557,505.905 314.89,504.738 318.5,504C 326.422,501.158 327.422,496.992 321.5,491.5 Z"/></g>
<g><path style="opacity:0.502" fill="#4f544f" d="M 207.5,492.5 C 207.5,492.833 207.5,493.167 207.5,493.5C 206.209,493.263 205.209,493.596 204.5,494.5C 202.692,494.491 201.025,494.991 199.5,496C 198.269,497.183 198.269,498.349 199.5,499.5C 203.511,501.16 207.511,502.494 211.5,503.5C 206.921,503.847 202.588,503.18 198.5,501.5C 197.312,500.636 196.145,499.636 195,498.5C 194.383,497.551 194.549,496.718 195.5,496C 199.268,493.944 203.268,492.778 207.5,492.5 Z"/></g>
<g><path style="opacity:0.502" fill="#424842" d="M 207.5,493.5 C 208.833,493.5 210.167,493.5 211.5,493.5C 211.5,493.833 211.5,494.167 211.5,494.5C 206.093,494.501 204.76,496.501 207.5,500.5C 201.409,500.179 200.409,498.179 204.5,494.5C 205.209,493.596 206.209,493.263 207.5,493.5 Z"/></g>
<g><path style="opacity:0.502" fill="#3a403a" d="M 211.5,494.5 C 207.409,498.179 208.409,500.179 214.5,500.5C 216.167,500.5 217.833,500.5 219.5,500.5C 219.5,501.167 219.833,501.5 220.5,501.5C 220.5,501.833 220.5,502.167 220.5,502.5C 216.124,502.091 211.79,501.425 207.5,500.5C 204.76,496.501 206.093,494.501 211.5,494.5 Z"/></g>
<g><path style="opacity:0.502" fill="#353b35" d="M 211.5,494.5 C 212.833,494.5 214.167,494.5 215.5,494.5C 210.782,495.908 210.449,497.908 214.5,500.5C 208.409,500.179 207.409,498.179 211.5,494.5 Z"/></g>
<g><path style="opacity:0.502" fill="#1d241d" d="M 230.5,495.5 C 230.5,495.167 230.5,494.833 230.5,494.5C 237.255,494.207 243.922,494.54 250.5,495.5C 251.398,496.158 252.398,496.824 253.5,497.5C 251.827,499.086 249.827,499.753 247.5,499.5C 251.378,498.106 251.045,496.939 246.5,496C 241.177,495.501 235.844,495.334 230.5,495.5 Z"/></g>
<g><path style="opacity:0.502" fill="#363c36" d="M 243.5,493.5 C 243.5,493.167 243.5,492.833 243.5,492.5C 244.833,492.5 246.167,492.5 247.5,492.5C 253.084,492.255 258.417,492.922 263.5,494.5C 264.936,495.429 266.269,496.595 267.5,498C 266.429,498.852 265.429,499.685 264.5,500.5C 264.5,500.833 264.5,501.167 264.5,501.5C 261.167,501.833 257.833,502.167 254.5,502.5C 257.714,501.273 260.714,499.606 263.5,497.5C 261.05,495.133 258.05,494.133 254.5,494.5C 250.936,493.577 247.269,493.244 243.5,493.5 Z"/></g>
<g><path style="opacity:0.502" fill="#3b413b" d="M 263.5,494.5 C 266.316,494.544 268.649,495.544 270.5,497.5C 269.061,499.553 267.061,500.553 264.5,500.5C 265.429,499.685 266.429,498.852 267.5,498C 266.269,496.595 264.936,495.429 263.5,494.5 Z"/></g>
<g><path style="opacity:0.502" fill="#484e48" d="M 270.5,494.5 C 273.657,494.079 275.99,495.245 277.5,498C 274.928,500.287 271.928,501.453 268.5,501.5C 270.319,500.416 271.985,499.082 273.5,497.5C 272.66,496.265 271.66,495.265 270.5,494.5 Z"/></g>
<g><path style="opacity:0.502" fill="#555a55" d="M 271.5,491.5 C 273.292,491.366 274.958,491.699 276.5,492.5C 278.98,493.912 281.313,495.578 283.5,497.5C 280.976,500.681 277.643,502.348 273.5,502.5C 276.178,501.375 278.512,499.708 280.5,497.5C 277.61,495.23 274.61,493.23 271.5,491.5 Z"/></g>
<g><path style="opacity:0.502" fill="#8d908d" d="M 283.5,486.5 C 284.833,486.5 286.167,486.5 287.5,486.5C 290.167,487.167 292.833,487.833 295.5,488.5C 299.407,489.492 303.407,490.492 307.5,491.5C 314.919,497.782 313.586,501.782 303.5,503.5C 313.032,497.783 312.032,493.783 300.5,491.5C 295.395,490.879 290.395,489.879 285.5,488.5C 284.833,487.833 284.167,487.167 283.5,486.5 Z"/></g>
<g><path style="opacity:0.502" fill="#a4a7a4" d="M 314.5,490.5 C 316.806,490.993 319.139,491.326 321.5,491.5C 327.422,496.992 326.422,501.158 318.5,504C 314.89,504.738 311.557,505.905 308.5,507.5C 307.833,507.5 307.167,507.5 306.5,507.5C 303.518,507.963 300.518,508.296 297.5,508.5C 304.084,506.559 310.751,504.559 317.5,502.5C 322.658,500.863 323.658,497.863 320.5,493.5C 318.255,492.792 316.255,491.792 314.5,490.5 Z"/></g>
<g><path style="opacity:0.502" fill="#2f362f" d="M 243.5,492.5 C 243.5,492.833 243.5,493.167 243.5,493.5C 238.305,493.179 233.305,493.513 228.5,494.5C 225.615,494.194 222.948,494.527 220.5,495.5C 214.235,496.386 213.902,498.053 219.5,500.5C 217.833,500.5 216.167,500.5 214.5,500.5C 210.449,497.908 210.782,495.908 215.5,494.5C 224.702,492.772 234.035,492.105 243.5,492.5 Z"/></g>
<g><path style="opacity:0.502" fill="#272e27" d="M 220.5,495.5 C 218.184,498.263 219.184,499.597 223.5,499.5C 224.833,499.5 226.167,499.5 227.5,499.5C 233.744,500.458 240.077,500.791 246.5,500.5C 247.833,500.5 249.167,500.5 250.5,500.5C 240.681,501.494 230.681,501.827 220.5,501.5C 219.833,501.5 219.5,501.167 219.5,500.5C 213.902,498.053 214.235,496.386 220.5,495.5 Z"/></g>
<g><path style="opacity:0.502" fill="#222922" d="M 228.5,494.5 C 229.167,494.5 229.833,494.5 230.5,494.5C 230.5,494.833 230.5,495.167 230.5,495.5C 229.833,495.5 229.167,495.5 228.5,495.5C 225.774,495.264 223.441,496.097 221.5,498C 222.416,498.278 223.082,498.778 223.5,499.5C 219.184,499.597 218.184,498.263 220.5,495.5C 222.948,494.527 225.615,494.194 228.5,494.5 Z"/></g>
<g><path style="opacity:0.502" fill="#1b221b" d="M 228.5,495.5 C 228.5,495.833 228.5,496.167 228.5,496.5C 224.995,496.694 224.662,497.694 227.5,499.5C 226.167,499.5 224.833,499.5 223.5,499.5C 223.082,498.778 222.416,498.278 221.5,498C 223.441,496.097 225.774,495.264 228.5,495.5 Z"/></g>
<g><path style="opacity:0.502" fill="#121912" d="M 228.5,495.5 C 229.167,495.5 229.833,495.5 230.5,495.5C 235.844,495.334 241.177,495.501 246.5,496C 251.045,496.939 251.378,498.106 247.5,499.5C 247.167,499.5 246.833,499.5 246.5,499.5C 241.637,499.819 236.97,499.486 232.5,498.5C 230.517,498.843 229.183,498.176 228.5,496.5C 228.5,496.167 228.5,495.833 228.5,495.5 Z"/></g>
<g><path style="opacity:0.502" fill="#212821" d="M 250.5,495.5 C 251.833,495.5 253.167,495.5 254.5,495.5C 256.493,496.472 256.826,497.805 255.5,499.5C 253.784,499.629 252.117,499.962 250.5,500.5C 249.167,500.5 247.833,500.5 246.5,500.5C 246.5,500.167 246.5,499.833 246.5,499.5C 246.833,499.5 247.167,499.5 247.5,499.5C 249.827,499.753 251.827,499.086 253.5,497.5C 252.398,496.824 251.398,496.158 250.5,495.5 Z"/></g>
<g><path style="opacity:0.502" fill="#272e27" d="M 254.5,495.5 C 261.679,496.426 262.013,497.76 255.5,499.5C 256.826,497.805 256.493,496.472 254.5,495.5 Z"/></g>
<g><path style="opacity:0.502" fill="#2f352f" d="M 254.5,495.5 C 254.5,495.167 254.5,494.833 254.5,494.5C 258.05,494.133 261.05,495.133 263.5,497.5C 260.714,499.606 257.714,501.273 254.5,502.5C 243.167,502.5 231.833,502.5 220.5,502.5C 220.5,502.167 220.5,501.833 220.5,501.5C 230.681,501.827 240.681,501.494 250.5,500.5C 252.117,499.962 253.784,499.629 255.5,499.5C 262.013,497.76 261.679,496.426 254.5,495.5 Z"/></g>
<g><path style="opacity:0.502" fill="#171e17" d="M 228.5,496.5 C 229.183,498.176 230.517,498.843 232.5,498.5C 236.97,499.486 241.637,499.819 246.5,499.5C 246.5,499.833 246.5,500.167 246.5,500.5C 240.077,500.791 233.744,500.458 227.5,499.5C 224.662,497.694 224.995,496.694 228.5,496.5 Z"/></g>
<g><path style="opacity:0.502" fill="#081008" d="M 232.5,498.5 C 233.871,497.213 235.705,496.547 238,496.5C 239.833,496.833 241.667,497.167 243.5,497.5C 239.893,498.489 236.226,498.823 232.5,498.5 Z"/></g>
<g><path style="opacity:0.502" fill="#808480" d="M 301.5,493.5 C 305.365,493.856 307.198,495.856 307,499.5C 303.902,501.139 300.736,502.473 297.5,503.5C 298.833,502.067 300.333,500.733 302,499.5C 302.678,497.402 302.511,495.402 301.5,493.5 Z"/></g>
<g><path style="opacity:0.502" fill="#b7b9b7" d="M 156.5,487.5 C 157.5,487.5 158.5,487.5 159.5,487.5C 155.956,488.789 152.623,490.456 149.5,492.5C 144.901,492.706 143.068,495.039 144,499.5C 146.552,502.359 149.719,504.026 153.5,504.5C 157.355,507.035 161.688,508.035 166.5,507.5C 167.167,508.167 167.833,508.833 168.5,509.5C 164.19,508.92 159.857,508.586 155.5,508.5C 154.329,507.655 152.995,506.989 151.5,506.5C 148.283,504.583 144.949,502.749 141.5,501C 139.876,497.794 140.542,495.128 143.5,493C 146.391,491.726 149.058,490.226 151.5,488.5C 153.042,487.699 154.708,487.366 156.5,487.5 Z"/></g>
<g><path style="opacity:0.502" fill="#676c67" d="M 284.5,492.5 C 287.016,492.755 289.35,493.589 291.5,495C 293.007,495.837 293.507,497.004 293,498.5C 288.455,501.962 283.288,503.962 277.5,504.5C 277.5,504.167 277.5,503.833 277.5,503.5C 278.209,502.596 279.209,502.263 280.5,502.5C 283.829,502.002 286.995,501.002 290,499.5C 290.667,498.5 290.667,497.5 290,496.5C 288.188,495.023 286.355,493.69 284.5,492.5 Z"/></g>
<g><path style="opacity:0.502" fill="#929592" d="M 307.5,491.5 C 309.565,491.517 311.565,491.85 313.5,492.5C 314.146,494.156 314.813,495.823 315.5,497.5C 315.471,499.029 314.804,500.196 313.5,501C 308.938,504.021 303.938,505.521 298.5,505.5C 300.167,504.833 301.833,504.167 303.5,503.5C 313.586,501.782 314.919,497.782 307.5,491.5 Z"/></g>
<g><path style="opacity:0.502" fill="#444a44" d="M 204.5,494.5 C 200.409,498.179 201.409,500.179 207.5,500.5C 211.79,501.425 216.124,502.091 220.5,502.5C 231.833,502.5 243.167,502.5 254.5,502.5C 257.833,502.167 261.167,501.833 264.5,501.5C 265.833,501.5 267.167,501.5 268.5,501.5C 263.728,502.871 258.728,503.704 253.5,504C 243.839,504.5 234.172,504.666 224.5,504.5C 220.102,504.706 215.768,504.373 211.5,503.5C 207.511,502.494 203.511,501.16 199.5,499.5C 198.269,498.349 198.269,497.183 199.5,496C 201.025,494.991 202.692,494.491 204.5,494.5 Z"/></g>
<g><path style="opacity:0.502" fill="#505550" d="M 260.5,491.5 C 263.5,491.5 266.5,491.5 269.5,491.5C 270.167,491.5 270.833,491.5 271.5,491.5C 274.61,493.23 277.61,495.23 280.5,497.5C 278.512,499.708 276.178,501.375 273.5,502.5C 272.833,502.5 272.5,502.833 272.5,503.5C 265.825,504.094 259.158,504.76 252.5,505.5C 242.985,505.827 233.652,505.494 224.5,504.5C 234.172,504.666 243.839,504.5 253.5,504C 258.728,503.704 263.728,502.871 268.5,501.5C 271.928,501.453 274.928,500.287 277.5,498C 275.99,495.245 273.657,494.079 270.5,494.5C 267.22,493.288 263.887,492.288 260.5,491.5 Z"/></g>
<g><path style="opacity:0.502" fill="#5e635e" d="M 272.5,503.5 C 274.167,503.5 275.833,503.5 277.5,503.5C 277.5,503.833 277.5,504.167 277.5,504.5C 274.763,504.401 272.096,504.735 269.5,505.5C 263.828,505.76 258.161,506.093 252.5,506.5C 252.5,506.167 252.5,505.833 252.5,505.5C 259.158,504.76 265.825,504.094 272.5,503.5 Z"/></g>
<g><path style="opacity:0.502" fill="#9b9e9b" d="M 156.5,493.5 C 157.5,493.5 158.5,493.5 159.5,493.5C 156.419,497.178 157.086,499.845 161.5,501.5C 168.744,504.685 176.411,506.685 184.5,507.5C 184.833,508.167 185.167,508.833 185.5,509.5C 184.5,509.5 183.5,509.5 182.5,509.5C 181.833,509.5 181.167,509.5 180.5,509.5C 177.411,508.215 174.078,507.549 170.5,507.5C 168.898,505.926 166.898,505.259 164.5,505.5C 161.022,504.227 157.855,502.227 155,499.5C 154.252,497.16 154.752,495.16 156.5,493.5 Z"/></g>
<g><path style="opacity:0.502" fill="#5a5f5a" d="M 193.5,494.5 C 192.645,495.531 191.978,496.697 191.5,498C 193.28,500.223 195.614,501.39 198.5,501.5C 202.588,503.18 206.921,503.847 211.5,503.5C 215.768,504.373 220.102,504.706 224.5,504.5C 233.652,505.494 242.985,505.827 252.5,505.5C 252.5,505.833 252.5,506.167 252.5,506.5C 244.167,506.5 235.833,506.5 227.5,506.5C 223.154,506.666 218.821,506.499 214.5,506C 207.636,505.163 200.97,503.996 194.5,502.5C 191.973,501.733 189.973,500.233 188.5,498C 189.207,495.46 190.873,494.293 193.5,494.5 Z"/></g>
<g><path style="opacity:0.502" fill="#a3a6a3" d="M 164.5,505.5 C 166.898,505.259 168.898,505.926 170.5,507.5C 169.167,507.5 167.833,507.5 166.5,507.5C 165.833,506.833 165.167,506.167 164.5,505.5 Z"/></g>
<g><path style="opacity:0.502" fill="#838783" d="M 186.5,505.5 C 190.122,505.322 193.456,505.989 196.5,507.5C 194.167,507.5 191.833,507.5 189.5,507.5C 189.167,507.5 188.833,507.5 188.5,507.5C 187.833,506.833 187.167,506.167 186.5,505.5 Z"/></g>
<g><path style="opacity:0.502" fill="#757a75" d="M 186.5,505.5 C 186.5,505.167 186.5,504.833 186.5,504.5C 188.833,504.5 191.167,504.5 193.5,504.5C 204.691,506.819 216.025,507.819 227.5,507.5C 238.5,507.5 249.5,507.5 260.5,507.5C 260.5,507.833 260.5,508.167 260.5,508.5C 259.508,508.328 258.842,508.662 258.5,509.5C 244.5,509.5 230.5,509.5 216.5,509.5C 211.367,508.335 206.034,507.668 200.5,507.5C 199.167,507.5 197.833,507.5 196.5,507.5C 193.456,505.989 190.122,505.322 186.5,505.5 Z"/></g>
<g><path style="opacity:0.502" fill="#686d68" d="M 187.5,501.5 C 189.806,501.993 192.139,502.326 194.5,502.5C 200.97,503.996 207.636,505.163 214.5,506C 218.821,506.499 223.154,506.666 227.5,506.5C 227.5,506.833 227.5,507.167 227.5,507.5C 216.025,507.819 204.691,506.819 193.5,504.5C 191.371,503.797 189.371,502.797 187.5,501.5 Z"/></g>
<g><path style="opacity:0.502" fill="#676c67" d="M 269.5,505.5 C 269.5,505.833 269.5,506.167 269.5,506.5C 266.482,506.704 263.482,507.037 260.5,507.5C 249.5,507.5 238.5,507.5 227.5,507.5C 227.5,507.167 227.5,506.833 227.5,506.5C 235.833,506.5 244.167,506.5 252.5,506.5C 258.161,506.093 263.828,505.76 269.5,505.5 Z"/></g>
<g><path style="opacity:0.502" fill="#777b77" d="M 280.5,505.5 C 274.101,507.364 267.434,508.364 260.5,508.5C 260.5,508.167 260.5,507.833 260.5,507.5C 263.482,507.037 266.482,506.704 269.5,506.5C 273.179,506.276 276.846,505.942 280.5,505.5 Z"/></g>
<g><path style="opacity:0.502" fill="#999c99" d="M 313.5,492.5 C 319.639,493.848 320.973,497.182 317.5,502.5C 310.751,504.559 304.084,506.559 297.5,508.5C 296.167,508.5 294.833,508.5 293.5,508.5C 295.072,507.313 296.739,506.313 298.5,505.5C 303.938,505.521 308.938,504.021 313.5,501C 314.804,500.196 315.471,499.029 315.5,497.5C 314.813,495.823 314.146,494.156 313.5,492.5 Z"/></g>
<g><path style="opacity:0.502" fill="#898d89" d="M 189.5,507.5 C 191.833,507.5 194.167,507.5 196.5,507.5C 197.833,507.5 199.167,507.5 200.5,507.5C 201.5,508.167 202.5,508.833 203.5,509.5C 198.63,509.31 193.964,508.644 189.5,507.5 Z"/></g>
<g><path style="opacity:0.502" fill="#828682" d="M 295.5,503.5 C 296.167,503.5 296.833,503.5 297.5,503.5C 297.167,504.167 296.833,504.833 296.5,505.5C 283.905,507.493 271.238,508.826 258.5,509.5C 258.842,508.662 259.508,508.328 260.5,508.5C 267.434,508.364 274.101,507.364 280.5,505.5C 281.833,505.5 283.167,505.5 284.5,505.5C 288.197,504.992 291.864,504.326 295.5,503.5 Z"/></g>
<g><path style="opacity:0.502" fill="#aeb1ae" d="M 166.5,507.5 C 167.833,507.5 169.167,507.5 170.5,507.5C 173.507,509.175 176.84,509.841 180.5,509.5C 181.167,509.5 181.833,509.5 182.5,509.5C 193.6,511.51 204.933,512.677 216.5,513C 231.163,513.5 245.83,513.667 260.5,513.5C 260.5,513.833 260.5,514.167 260.5,514.5C 229.668,515.491 199.002,513.824 168.5,509.5C 167.833,508.833 167.167,508.167 166.5,507.5 Z"/></g>
<g><path style="opacity:0.502" fill="#a6a9a6" d="M 170.5,507.5 C 174.078,507.549 177.411,508.215 180.5,509.5C 176.84,509.841 173.507,509.175 170.5,507.5 Z"/></g>
<g><path style="opacity:0.502" fill="#959995" d="M 184.5,507.5 C 185.833,507.5 187.167,507.5 188.5,507.5C 188.833,507.5 189.167,507.5 189.5,507.5C 193.964,508.644 198.63,509.31 203.5,509.5C 204.833,509.5 206.167,509.5 207.5,509.5C 209.5,510.167 211.5,510.833 213.5,511.5C 204.157,510.966 194.823,510.299 185.5,509.5C 185.167,508.833 184.833,508.167 184.5,507.5 Z"/></g>
<g><path style="opacity:0.502" fill="#838783" d="M 200.5,507.5 C 206.034,507.668 211.367,508.335 216.5,509.5C 213.5,509.5 210.5,509.5 207.5,509.5C 206.167,509.5 204.833,509.5 203.5,509.5C 202.5,508.833 201.5,508.167 200.5,507.5 Z"/></g>
<g><path style="opacity:0.502" fill="#b1b3b1" d="M 319.5,505.5 C 314.557,507.889 309.223,509.223 303.5,509.5C 304.5,508.833 305.5,508.167 306.5,507.5C 307.167,507.5 307.833,507.5 308.5,507.5C 312.197,506.992 315.864,506.326 319.5,505.5 Z"/></g>
<g><path style="opacity:0.502" fill="#bbbdbb" d="M 155.5,508.5 C 159.857,508.586 164.19,508.92 168.5,509.5C 199.002,513.824 229.668,515.491 260.5,514.5C 262.833,514.5 265.167,514.5 267.5,514.5C 267.5,514.833 267.5,515.167 267.5,515.5C 264.5,515.5 261.5,515.5 258.5,515.5C 225.351,516.537 192.351,514.87 159.5,510.5C 158.167,509.833 156.833,509.167 155.5,508.5 Z"/></g>
<g><path style="opacity:0.502" fill="#a2a5a2" d="M 182.5,509.5 C 183.5,509.5 184.5,509.5 185.5,509.5C 194.823,510.299 204.157,510.966 213.5,511.5C 215.5,511.5 217.5,511.5 219.5,511.5C 234.324,512.496 249.324,512.829 264.5,512.5C 263.432,513.434 262.099,513.768 260.5,513.5C 245.83,513.667 231.163,513.5 216.5,513C 204.933,512.677 193.6,511.51 182.5,509.5 Z"/></g>
<g><path style="opacity:0.502" fill="#c7c9c7" d="M 331.5,506.5 C 329.371,507.203 327.371,508.203 325.5,509.5C 319.394,510.073 313.394,511.073 307.5,512.5C 306.167,512.5 304.833,512.5 303.5,512.5C 303.5,512.167 303.5,511.833 303.5,511.5C 309.077,510.181 314.743,509.181 320.5,508.5C 324.101,507.537 327.767,506.87 331.5,506.5 Z"/></g>
<g><path style="opacity:0.502" fill="#c6c8c6" d="M 159.5,510.5 C 192.351,514.87 225.351,516.537 258.5,515.5C 258.5,515.833 258.5,516.167 258.5,516.5C 236.822,516.682 215.155,516.349 193.5,515.5C 192.833,515.5 192.167,515.5 191.5,515.5C 185.678,514.511 179.678,513.844 173.5,513.5C 172.833,513.5 172.167,513.5 171.5,513.5C 167.461,512.684 163.461,511.684 159.5,510.5 Z"/></g>
<g><path style="opacity:0.502" fill="#8d908d" d="M 296.5,505.5 C 297.167,505.5 297.833,505.5 298.5,505.5C 296.739,506.313 295.072,507.313 293.5,508.5C 293.167,508.5 292.833,508.5 292.5,508.5C 268.237,511.006 243.904,512.006 219.5,511.5C 217.5,511.5 215.5,511.5 213.5,511.5C 211.5,510.833 209.5,510.167 207.5,509.5C 210.5,509.5 213.5,509.5 216.5,509.5C 230.5,509.5 244.5,509.5 258.5,509.5C 271.238,508.826 283.905,507.493 296.5,505.5 Z"/></g>
<g><path style="opacity:0.502" fill="#a7aaa7" d="M 306.5,507.5 C 305.5,508.167 304.5,508.833 303.5,509.5C 291.235,511.307 278.902,512.307 266.5,512.5C 275.177,511.24 283.843,509.906 292.5,508.5C 292.833,508.5 293.167,508.5 293.5,508.5C 294.833,508.5 296.167,508.5 297.5,508.5C 300.518,508.296 303.518,507.963 306.5,507.5 Z"/></g>
<g><path style="opacity:0.502" fill="#9a9d9a" d="M 292.5,508.5 C 283.843,509.906 275.177,511.24 266.5,512.5C 265.833,512.5 265.167,512.5 264.5,512.5C 249.324,512.829 234.324,512.496 219.5,511.5C 243.904,512.006 268.237,511.006 292.5,508.5 Z"/></g>
<g><path style="opacity:0.502" fill="#f4f4f4" d="M 344.5,510.5 C 340.761,512.102 336.761,513.102 332.5,513.5C 332.791,512.351 333.624,511.684 335,511.5C 338.125,510.744 341.291,510.411 344.5,510.5 Z"/></g>
<g><path style="opacity:0.502" fill="#dedfde" d="M 150.5,510.5 C 154.184,511.609 157.851,512.609 161.5,513.5C 158.833,513.5 156.167,513.5 153.5,513.5C 152.833,513.167 152.167,512.833 151.5,512.5C 151.167,511.833 150.833,511.167 150.5,510.5 Z"/></g>
<g><path style="opacity:0.502" fill="#b4b6b4" d="M 303.5,509.5 C 302.167,510.167 300.833,510.833 299.5,511.5C 288.829,512.5 278.163,513.5 267.5,514.5C 265.167,514.5 262.833,514.5 260.5,514.5C 260.5,514.167 260.5,513.833 260.5,513.5C 262.099,513.768 263.432,513.434 264.5,512.5C 265.167,512.5 265.833,512.5 266.5,512.5C 278.902,512.307 291.235,511.307 303.5,509.5 Z"/></g>
<g><path style="opacity:0.502" fill="#c0c2c0" d="M 299.5,511.5 C 300.833,511.5 302.167,511.5 303.5,511.5C 303.5,511.833 303.5,512.167 303.5,512.5C 291.512,513.647 279.512,514.647 267.5,515.5C 267.5,515.167 267.5,514.833 267.5,514.5C 278.163,513.5 288.829,512.5 299.5,511.5 Z"/></g>
<g><path style="opacity:0.502" fill="#d4d5d4" d="M 325.5,509.5 C 321.104,511.453 316.437,512.787 311.5,513.5C 310.167,513.5 308.833,513.5 307.5,513.5C 307.5,513.167 307.5,512.833 307.5,512.5C 313.394,511.073 319.394,510.073 325.5,509.5 Z"/></g>
<g><path style="opacity:0.502" fill="#e6e7e6" d="M 153.5,513.5 C 156.167,513.5 158.833,513.5 161.5,513.5C 162.167,513.5 162.833,513.5 163.5,513.5C 167.618,514.709 171.951,515.376 176.5,515.5C 177.5,515.5 178.5,515.5 179.5,515.5C 180.833,516.167 182.167,516.833 183.5,517.5C 173.24,517.104 163.24,515.77 153.5,513.5 Z"/></g>
<g><path style="opacity:0.502" fill="#dadbda" d="M 163.5,513.5 C 166.167,513.5 168.833,513.5 171.5,513.5C 172.167,513.5 172.833,513.5 173.5,513.5C 174.5,514.167 175.5,514.833 176.5,515.5C 171.951,515.376 167.618,514.709 163.5,513.5 Z"/></g>
<g><path style="opacity:0.502" fill="#d2d3d2" d="M 173.5,513.5 C 179.678,513.844 185.678,514.511 191.5,515.5C 189.833,515.5 188.167,515.5 186.5,515.5C 184.167,515.5 181.833,515.5 179.5,515.5C 178.5,515.5 177.5,515.5 176.5,515.5C 175.5,514.833 174.5,514.167 173.5,513.5 Z"/></g>
<g><path style="opacity:0.502" fill="#cdcfcd" d="M 303.5,512.5 C 304.833,512.5 306.167,512.5 307.5,512.5C 307.5,512.833 307.5,513.167 307.5,513.5C 296.505,514.56 285.505,515.56 274.5,516.5C 269.167,516.5 263.833,516.5 258.5,516.5C 258.5,516.167 258.5,515.833 258.5,515.5C 261.5,515.5 264.5,515.5 267.5,515.5C 279.512,514.647 291.512,513.647 303.5,512.5 Z"/></g>
<g><path style="opacity:0.502" fill="#dadbda" d="M 307.5,513.5 C 308.833,513.5 310.167,513.5 311.5,513.5C 311.5,513.833 311.5,514.167 311.5,514.5C 300.818,515.354 290.151,516.354 279.5,517.5C 277.833,517.5 276.167,517.5 274.5,517.5C 274.5,517.167 274.5,516.833 274.5,516.5C 285.505,515.56 296.505,514.56 307.5,513.5 Z"/></g>
<g><path style="opacity:0.502" fill="#e1e2e1" d="M 179.5,515.5 C 181.833,515.5 184.167,515.5 186.5,515.5C 190.919,516.972 195.586,517.638 200.5,517.5C 225.167,517.5 249.833,517.5 274.5,517.5C 276.167,517.5 277.833,517.5 279.5,517.5C 279.5,517.833 279.5,518.167 279.5,518.5C 253.498,519.763 227.498,519.763 201.5,518.5C 198.167,518.5 194.833,518.5 191.5,518.5C 189.833,518.5 188.167,518.5 186.5,518.5C 185.791,517.596 184.791,517.263 183.5,517.5C 182.167,516.833 180.833,516.167 179.5,515.5 Z"/></g>
<g><path style="opacity:0.502" fill="#dadbda" d="M 186.5,515.5 C 188.167,515.5 189.833,515.5 191.5,515.5C 192.167,515.5 192.833,515.5 193.5,515.5C 195.833,516.167 198.167,516.833 200.5,517.5C 195.586,517.638 190.919,516.972 186.5,515.5 Z"/></g>
<g><path style="opacity:0.502" fill="#d1d2d1" d="M 193.5,515.5 C 215.155,516.349 236.822,516.682 258.5,516.5C 263.833,516.5 269.167,516.5 274.5,516.5C 274.5,516.833 274.5,517.167 274.5,517.5C 249.833,517.5 225.167,517.5 200.5,517.5C 198.167,516.833 195.833,516.167 193.5,515.5 Z"/></g>
<g><path style="opacity:0.502" fill="#f6f6f6" d="M 318.5,515.5 C 316.167,516.167 313.833,516.833 311.5,517.5C 305.053,518.936 298.386,519.603 291.5,519.5C 288.833,519.5 286.167,519.5 283.5,519.5C 283.5,519.167 283.5,518.833 283.5,518.5C 295.131,517.134 306.798,516.134 318.5,515.5 Z"/></g>
<g><path style="opacity:0.502" fill="#f9f9f9" d="M 172.5,518.5 C 177.167,518.5 181.833,518.5 186.5,518.5C 188.167,518.5 189.833,518.5 191.5,518.5C 193.833,519.167 196.167,519.833 198.5,520.5C 189.622,520.665 180.955,519.999 172.5,518.5 Z"/></g>
<g><path style="opacity:0.502" fill="#f4f4f4" d="M 191.5,518.5 C 194.833,518.5 198.167,518.5 201.5,518.5C 204.5,519.167 207.5,519.833 210.5,520.5C 206.5,520.5 202.5,520.5 198.5,520.5C 196.167,519.833 193.833,519.167 191.5,518.5 Z"/></g>
<g><path style="opacity:0.502" fill="#eeefee" d="M 201.5,518.5 C 227.498,519.763 253.498,519.763 279.5,518.5C 280.833,518.5 282.167,518.5 283.5,518.5C 283.5,518.833 283.5,519.167 283.5,519.5C 259.174,520.265 234.841,520.599 210.5,520.5C 207.5,519.833 204.5,519.167 201.5,518.5 Z"/></g>
<g><path style="opacity:0.32" fill="#fafafa" d="M 283.5,519.5 C 286.167,519.5 288.833,519.5 291.5,519.5C 273.694,521.04 255.694,521.707 237.5,521.5C 224.329,521.5 211.329,521.167 198.5,520.5C 202.5,520.5 206.5,520.5 210.5,520.5C 234.841,520.599 259.174,520.265 283.5,519.5 Z"/></g>
</svg>
